<svg width="1920" height="13860" viewBox="0 0 1920 13860" fill="none" xmlns="http://www.w3.org/2000/svg">
<rect y="-22" width="1920" height="13882" fill="#ED1C24"/>
<path d="M389.709 -21.5996C278.139 109.18 290.989 330.05 381.039 354.23C432.339 368.01 533.699 330.83 534.639 291.94C535.039 275.25 515.889 259.39 498.759 254.47C470.739 246.42 437.909 264.68 430.919 286.39C420.309 319.37 469.059 361.03 486.789 376.18C652.319 517.64 1029.5 188.66 1376.67 404.11C1388.78 411.63 1513.3 488.05 1539.62 609.23C1544.2 630.34 1556.13 685.24 1530.31 703C1516.21 712.69 1492.44 710.23 1478.43 697.41C1460.72 681.21 1459.7 649.48 1472.44 635.56C1494.48 611.47 1569.36 627.91 1607.45 666.37C1667.15 726.64 1654.38 859.03 1602.66 944.82C1502.82 1110.44 1228.79 1161.99 1041.26 1132.71C977.879 1122.82 911.629 1101.71 798.039 1104.44C777.419 1104.94 698.949 1107.57 596.519 1132.37C484.789 1159.43 415.379 1176.23 355.099 1224.15C198.639 1348.5 177.519 1623.3 239.379 1660.02C258.279 1671.24 291.619 1663.35 307.219 1645.15C326.839 1622.26 322.649 1578.12 301.229 1561.35C271.469 1538.05 203.879 1564.01 178.269 1606.64C142.239 1666.6 187.669 1755.99 225.409 1802.78C300.709 1896.13 421.069 1915.14 475.999 1922.49C973.119 1989.09 1286.46 1794.86 1528.31 1966.39C1550.06 1981.81 1636.53 2046.51 1667.98 2157.93C1706.44 2294.2 1652.2 2463.56 1586.67 2474.8C1555.85 2480.09 1515.83 2451.55 1513.73 2423.74C1511.5 2394.21 1551.72 2361.55 1586.67 2361.44C1643.59 2361.26 1683.04 2447.43 1693.92 2471.18C1761.13 2617.95 1709.31 2856.92 1560.24 2997.92C1373.86 3174.21 1093.67 3142.41 968.009 3127.97C605.299 3086.3 461.789 2890 333.339 2973.97C214.619 3051.58 201.159 3308.21 273.309 3358.47C292.279 3371.68 333.189 3382.26 351.119 3362.87C366.089 3346.67 366.509 3313.18 353.119 3294.74C333.069 3267.14 277.649 3271.03 251.359 3288.15C183.429 3332.37 182.789 3548.71 271.309 3658.35C500.659 3942.4 1360.32 3549.65 1638.05 3792.03C1726.51 3869.22 1745.34 3967.61 1745.34 3967.61C1757.79 4032.66 1753.09 4141.98 1685.94 4177.11C1647.82 4197.05 1589.88 4192.94 1558.17 4159.7C1538.41 4138.99 1524.13 4102.02 1538.29 4081.34C1556.72 4054.42 1620.97 4054.03 1635.44 4076.45C1664.43 4121.37 1521.87 4302.45 1376.01 4388.6C1005.83 4607.25 619.009 4211.8 367.749 4409.88C165.669 4569.18 232.859 4969.21 243.029 5029.74C250.999 5077.18 280.869 5255.02 351.789 5263.85C401.449 5270.03 468.039 5192.95 455.539 5165.42C446.279 5145.03 389.159 5141.98 375.729 5162.76C359.269 5188.23 404.179 5256.01 444.899 5287.8C556.879 5375.21 715.489 5251.47 1055.45 5196.68C1266.74 5162.63 1409.1 5141.81 1527.66 5226.61C1642.12 5308.48 1697.28 5462.24 1681.96 5596.4C1662.94 5762.92 1532.88 5920.72 1463.81 5905C1428.4 5896.94 1399.15 5841.02 1413.26 5811.89C1428.13 5781.2 1495.05 5772.16 1527.65 5801.25C1560.23 5830.32 1546.32 5886.57 1540.29 5910.99C1523.33 5979.58 1472.27 6033.5 1431.88 6056.64C1296.91 6133.97 1145.52 5945.33 864.099 5886.32C668.309 5845.26 345.919 5853.59 261.339 6006.1C159.289 6190.12 416.649 6560.33 333.349 6728.44C324.049 6747.22 304.719 6786.21 279.969 6785.57C249.819 6784.79 216.779 6725.36 232.079 6697.78C250.829 6663.99 351.839 6660.43 394.359 6705.76C466.199 6782.35 330.689 6955.44 386.379 7009.04C427.819 7048.93 535.489 6984.48 838.439 6851.15C1108.43 6732.32 1188.3 6710.72 1285.35 6727.04C1319.23 6732.74 1444.75 6753.85 1519.68 6860.06C1531.38 6876.64 1576.29 6942.18 1572.22 7028.33C1568.66 7103.7 1530.64 7130.38 1506.38 7193.94C1441.67 7363.45 1583.47 7510.81 1538.3 7553.08C1462.79 7623.75 1039.95 7236.63 982.289 7293.7C959.169 7316.59 994.169 7411.5 1040.08 7419.81C1089.65 7428.78 1157.66 7337.79 1141.91 7312.33C1120.45 7277.62 969.829 7407.37 745.519 7394.8C566.069 7384.75 482.089 7291.61 426.279 7338.93C374.379 7382.95 437.839 7471.3 394.359 7647.53C366.009 7762.41 329.609 7763.1 317.349 7842.4C294.439 7990.65 391.609 8184.5 542.669 8259.41C672.899 8323.99 817.509 8285.92 1077.4 8217.51C1201.64 8184.8 1290.11 8145.14 1396.56 8184.14C1416.38 8191.4 1527.8 8232.22 1535.64 8317.94C1542.17 8389.37 1474.75 8470.09 1414.73 8466.71C1386.26 8465.1 1354.34 8444.29 1350.93 8419.22C1345.45 8378.96 1413.69 8329.17 1453.16 8341.89C1493.13 8354.77 1499.65 8430.48 1504.37 8492.86C1513.81 8617.71 1531.72 8854.51 1407.93 8929.82C1297.68 8996.89 1213.32 8851.73 998.239 8887.25C816.479 8917.27 779.259 9037.03 631.109 9020.27C496.959 9005.09 461.789 8899.46 386.359 8921.84C279.999 8953.39 255.419 9191.46 265.319 9334.86C271.229 9420.55 287.479 9655.96 466.169 9778.47C584.499 9859.6 723.579 9856.61 769.449 9855.62C944.409 9851.86 997.779 9769.72 1115.29 9807.73C1206.95 9837.38 1194.97 9890.51 1316.81 9941.41C1406.13 9978.72 1545.72 10005.2 1591.49 9946.07C1613.34 9917.87 1616 9867.38 1594.15 9850.3C1575.98 9836.09 1540.27 9844.56 1519.66 9863.6C1499.75 9882 1495.51 9908.8 1501.04 10001.9C1507.88 10117.2 1511.3 10174.8 1532.96 10212.1C1571.38 10278.3 1613.25 10272.4 1626.07 10315.9C1648.44 10391.6 1552.96 10517.8 1434.53 10571.2C1252.81 10653.3 1163.9 10498.1 819.989 10515.4C669.559 10522.9 540.379 10529.5 436.899 10621.8C368.869 10682.5 327.659 10766.3 277.279 10754.8C244.639 10747.4 216.029 10701.7 226.729 10669.7C237.919 10636.2 291.429 10619.4 325.159 10632.4C382.989 10654.8 388.229 10767 390.999 10843.3C400.179 11096.1 303.269 11178.5 357.079 11308.2C397.549 11405.6 490.709 11451.4 508.719 11459.8C640.799 11521.4 744.439 11445.7 1008.86 11388C1159.57 11355.1 1490.5 11282.9 1562.21 11398.6C1598.65 11457.4 1569.46 11566.9 1532.95 11576.8C1507.64 11583.7 1466.65 11546.1 1471.76 11529C1475.63 11516 1508.17 11507 1522.31 11518.3C1551.18 11541.4 1457.98 11627.7 1474.42 11733.8C1489.13 11828.7 1577.11 11851.9 1570.19 11922.7C1569 11934.9 1561.28 11986.4 1458.46 12042.4C1345.51 12103.9 1195.82 12128.3 843.919 12077C562.159 12035.9 463.939 11992 386.339 12058.4C326.799 12109.3 321.019 12189.3 314.509 12287.2C295.809 12568.2 430.609 12861.9 511.369 12853.8C537.649 12851.1 567.009 12815.7 561.919 12792.6C557.259 12771.5 522.439 12755.1 498.069 12763.3C471.029 12772.4 461.639 12810.6 456.519 12834.1C365.599 13251.5 320.139 13460.2 435.549 13584.1C558.279 13715.8 757.399 13721.4 835.929 13710.4C1007.52 13686.5 1196.76 13665.5 1130.25 13859.7" stroke="#981B1E" stroke-width="11.15" stroke-linecap="round" stroke-linejoin="round"/>
<path d="M1469.12 3806.03C1569.57 3793.62 1716.29 3799.29 1750.26 3860.82C1753.56 3866.8 1760.42 3879.21 1756.38 3891.53C1745.43 3924.94 1667.25 3918.05 1661 3946.77C1659.01 3955.92 1665.26 3964.39 1668.64 3968.97C1698.4 4009.3 1786.38 3979.56 1795.67 4002.89C1800.05 4013.88 1784.2 4029.76 1781.04 4032.82C1713.88 4097.75 1533.1 4020.61 1526.14 4041.08C1525.5 4042.98 1522.01 4047.5 1537.68 4062.1C1604.49 4124.4 1468.79 4159.36 1323.3 4141.88C1177.81 4124.4 954.109 4172.35 845.029 4176.54C735.939 4180.73 786.679 4070.02 680.079 4075.85C573.469 4081.68 477.318 4075.13 501.858 4056.07C520.748 4041.4 570.749 4005.83 563.079 3984.46C559.799 3975.31 543.458 3971.08 538.348 3970.03C440.148 3949.88 218.049 3991.37 197.549 3950.93C188.879 3933.84 221.689 3912.87 211.459 3887.83C196.299 3850.72 109.539 3860.68 107.709 3845.26C105.289 3824.88 256.089 3800.72 255.359 3769.44C254.868 3748.55 188.678 3739.44 190.178 3727.54C191.758 3714.96 267.339 3713.16 400.759 3712.25C491.939 3711.63 567.888 3711.71 568.608 3703.6C569.428 3694.44 473.279 3685.72 472.839 3665.69C472.509 3650.57 524.808 3638.09 537.348 3635.1C731.868 3588.67 1458.79 3599 1455.83 3669.68C1454.47 3702.24 1299.52 3715.7 1300.2 3768.11C1300.38 3782.09 1311.55 3792.47 1316.83 3797.37C1351.55 3829.64 1407.01 3813.69 1469.13 3806.02L1469.12 3806.03Z" fill="url(#paint0_linear_118_4438)"/>
<path d="M556.078 4169.75C549.668 4170.08 281.238 4148.56 236.198 4185.48C191.158 4222.4 364.898 4219.52 324.678 4230.97C284.458 4242.43 142.898 4262.41 213.678 4268.15C284.458 4273.89 532.198 4253.71 461.418 4284.31C390.638 4314.9 534.408 4332.07 688.538 4323.49C842.677 4314.91 1079.67 4338.45 1195.24 4340.51C1310.81 4342.57 1257.05 4288.21 1370 4291.07C1482.94 4293.93 1584.81 4290.71 1558.81 4281.36C1532.81 4272 1451.19 4245.33 1520.15 4239.12C1589.11 4232.91 1825.02 4219.9 1753.46 4179.67C1681.91 4139.44 1542.67 4173.5 1581.43 4138.36C1620.19 4103.21 1573.44 4087.67 1520.15 4082.57C1466.86 4077.47 574.998 4080.11 561.548 4098.84C548.098 4117.57 770.568 4144.34 701.458 4151.5C632.348 4158.66 638.158 4165.58 556.088 4169.76L556.078 4169.75Z" fill="url(#paint1_linear_118_4438)"/>
<path opacity="0.4" d="M825.239 4176.19C829.649 4176.61 834.039 4176 838.769 4176.09C842.889 4176.17 846.599 4176.63 849.059 4177.04C853.319 4177.74 853.949 4178.44 846.919 4179.02C841.229 4179.49 823.839 4179.9 816.909 4179.51C813.729 4179.33 809.659 4178.79 808.269 4178.38C804.079 4177.15 814.329 4176.69 820.919 4176.19H825.229H825.239ZM857.689 4101.7C851.099 4102.2 840.849 4102.65 845.039 4103.89C846.429 4104.3 850.499 4104.84 853.679 4105.02C860.599 4105.41 877.999 4105 883.689 4104.53C890.719 4103.95 890.079 4103.25 885.829 4102.55C883.369 4102.15 879.659 4101.68 875.539 4101.6C870.819 4101.51 866.429 4102.12 862.009 4101.7H857.699H857.689ZM768.549 4188.49C771.109 4188.81 774.009 4189.46 778.229 4189.32C784.929 4189.09 779.979 4188.51 777.379 4188.18C773.939 4188.33 770.539 4188.5 767.159 4188.68L768.549 4188.5V4188.49ZM941.789 4171.82C932.539 4171.71 925.049 4171.47 916.529 4171.85C910.569 4172.12 910.609 4172.15 910.629 4172.89C910.639 4173.35 910.349 4175.1 913.969 4175.44C915.769 4175.6 923.959 4175.54 926.529 4175.59C932.869 4175.71 939.109 4175.95 945.579 4175.91C960.609 4175.82 975.639 4175.86 989.959 4175.2C994.239 4175 1000.46 4174.57 1002.29 4173.99C1004.31 4173.35 999.709 4172.57 996.679 4172.09C991.359 4171.25 983.899 4171.09 976.989 4170.55C973.079 4170.25 968.329 4169.94 963.799 4169.85C956.699 4169.71 950.529 4170.25 943.889 4170.29C934.859 4170.34 931.449 4171 925.179 4171.81H941.799L941.789 4171.82ZM1067.02 4263.55C1065.13 4263.42 1063.69 4263.29 1061.63 4263.27C1060.19 4263.26 1060.17 4263.27 1059.68 4263.43C1059.38 4263.53 1058.15 4263.9 1058.69 4264.01C1058.96 4264.07 1060.75 4264.14 1061.26 4264.18C1062.53 4264.28 1063.69 4264.4 1065.09 4264.46C1068.34 4264.61 1071.51 4264.79 1074.99 4264.81C1076.03 4264.81 1077.64 4264.79 1078.42 4264.69C1079.27 4264.58 1078.81 4264.36 1078.49 4264.22C1077.92 4263.98 1076.44 4263.86 1075.33 4263.67C1074.7 4263.56 1073.9 4263.44 1073 4263.37C1071.59 4263.26 1069.91 4263.31 1068.48 4263.24C1066.53 4263.15 1065.36 4263.25 1063.49 4263.35L1067.02 4263.54V4263.55ZM1388.03 4299.27C1379.78 4298.72 1373.53 4298.13 1364.53 4298.07C1358.23 4298.03 1358.16 4298.07 1356.05 4298.75C1354.73 4299.18 1349.36 4300.79 1351.75 4301.27C1352.94 4301.51 1360.71 4301.85 1362.95 4302.02C1368.47 4302.44 1373.55 4302.97 1379.65 4303.25C1393.84 4303.9 1407.66 4304.67 1422.83 4304.76C1427.36 4304.79 1434.4 4304.68 1437.77 4304.24C1441.5 4303.75 1439.49 4302.8 1438.08 4302.21C1435.6 4301.17 1429.16 4300.66 1424.3 4299.83C1421.55 4299.36 1418.05 4298.84 1414.12 4298.53C1407.97 4298.05 1400.67 4298.25 1394.4 4297.96C1385.89 4297.57 1380.8 4298.01 1372.64 4298.46L1388.03 4299.27ZM710.739 4190.73C709.749 4191.67 723.699 4192.34 726.809 4191.46C726.469 4191.56 727.089 4190.58 727.119 4190.68C727.019 4190.31 726.749 4190.27 724.659 4190C718.589 4189.24 716.359 4189.61 710.749 4190.37V4190.73H710.739ZM448.949 4215.65C447.959 4216.59 461.909 4217.26 465.019 4216.38C464.679 4216.48 465.299 4215.5 465.329 4215.61C465.229 4215.24 464.959 4215.19 462.869 4214.93C456.799 4214.17 454.569 4214.54 448.959 4215.3V4215.66L448.949 4215.65ZM656.309 4192.25C653.319 4192.42 642.439 4192.87 641.179 4193.54C640.109 4194.11 645.379 4194.3 648.709 4194.32C651.629 4194.34 654.569 4194.29 655.749 4193.96C656.509 4193.75 655.969 4192.9 654.909 4192.79L656.299 4192.25H656.309ZM675.659 4196.92C672.479 4197.14 670.919 4197.46 670.979 4197.88C673.859 4198.02 680.249 4197.93 681.729 4197.56C684.029 4196.98 679.939 4196.88 677.049 4196.74L675.659 4196.92ZM1405.99 4250.77C1402.81 4250.99 1401.25 4251.31 1401.31 4251.73C1404.19 4251.87 1410.58 4251.78 1412.06 4251.41C1414.36 4250.83 1410.27 4250.73 1407.38 4250.59L1405.99 4250.77ZM1042.29 4277.25C1039.11 4277.47 1037.55 4277.79 1037.61 4278.21C1040.49 4278.35 1046.88 4278.26 1048.36 4277.89C1050.66 4277.31 1046.57 4277.21 1043.68 4277.07L1042.29 4277.25ZM989.129 4266.98C985.949 4267.2 984.389 4267.52 984.449 4267.94C987.329 4268.08 993.719 4267.99 995.199 4267.62C997.499 4267.04 993.409 4266.94 990.519 4266.8L989.129 4266.98ZM1097.23 4235.1C1094.05 4235.32 1092.49 4235.64 1092.55 4236.06C1095.43 4236.2 1101.82 4236.11 1103.3 4235.74C1105.6 4235.16 1101.51 4235.06 1098.62 4234.92L1097.23 4235.1ZM1002.32 4277.84C999.139 4278.06 997.579 4278.38 997.639 4278.8C1000.52 4278.94 1006.91 4278.85 1008.39 4278.48C1010.69 4277.9 1006.6 4277.8 1003.71 4277.66L1002.32 4277.84ZM914.549 4198.36C911.369 4198.58 909.809 4198.9 909.869 4199.32C912.749 4199.46 919.139 4199.37 920.619 4199C922.919 4198.42 918.829 4198.32 915.939 4198.18L914.549 4198.36ZM1154.21 4280.47C1151.03 4280.69 1149.47 4281.01 1149.53 4281.43C1152.41 4281.57 1158.8 4281.48 1160.28 4281.11C1162.58 4280.53 1158.49 4280.43 1155.6 4280.29L1154.21 4280.47ZM1102.74 4282.87C1099.56 4283.09 1098 4283.41 1098.06 4283.83C1100.94 4283.97 1107.33 4283.88 1108.81 4283.51C1111.11 4282.93 1107.02 4282.83 1104.13 4282.69L1102.74 4282.87ZM711.729 4201.95C708.549 4202.17 706.989 4202.49 707.049 4202.91C709.929 4203.05 716.319 4202.96 717.799 4202.59C720.099 4202.01 716.009 4201.91 713.119 4201.77L711.729 4201.95ZM1657.1 4228.92C1653.92 4229.14 1652.36 4229.46 1652.42 4229.88C1655.3 4230.02 1661.69 4229.93 1663.17 4229.56C1665.47 4228.98 1661.38 4228.88 1658.49 4228.74L1657.1 4228.92ZM1684.27 4236.82C1681.09 4237.04 1679.53 4237.36 1679.59 4237.78C1682.47 4237.92 1688.86 4237.83 1690.34 4237.46C1692.64 4236.88 1688.55 4236.78 1685.66 4236.64L1684.27 4236.82ZM1527.13 4217.52C1523.95 4217.74 1522.39 4218.06 1522.45 4218.48C1525.33 4218.62 1531.72 4218.53 1533.2 4218.16C1535.5 4217.58 1531.41 4217.48 1528.52 4217.34L1527.13 4217.52ZM1651.6 4240.28C1648.42 4240.5 1646.86 4240.82 1646.92 4241.24C1649.8 4241.38 1656.19 4241.29 1657.67 4240.92C1659.97 4240.34 1655.88 4240.24 1652.99 4240.1L1651.6 4240.28ZM1019.35 4281.91C1016.17 4282.13 1014.61 4282.45 1014.67 4282.87C1017.55 4283.01 1023.94 4282.92 1025.42 4282.55C1027.72 4281.97 1023.63 4281.87 1020.74 4281.73L1019.35 4281.91ZM1627.74 4231.95C1624.56 4232.17 1623 4232.49 1623.06 4232.91C1625.94 4233.05 1632.33 4232.96 1633.81 4232.59C1636.11 4232.01 1632.02 4231.91 1629.13 4231.77L1627.74 4231.95ZM897.609 4230.68C894.429 4230.9 892.869 4231.22 892.929 4231.64C895.809 4231.78 902.199 4231.69 903.679 4231.32C905.979 4230.74 901.889 4230.64 898.999 4230.5L897.609 4230.68ZM1337.81 4221.93C1334.63 4222.15 1333.07 4222.47 1333.13 4222.89C1336.01 4223.03 1342.4 4222.94 1343.88 4222.57C1346.18 4221.99 1342.09 4221.89 1339.2 4221.75L1337.81 4221.93ZM1022.71 4186.16C1017.69 4185.94 1013.12 4185.57 1008.11 4185.8C1004.43 4185.97 1000.62 4186.07 996.979 4186.26C994.519 4186.38 988.139 4186.72 988.449 4187.17C988.569 4187.34 989.999 4187.48 990.779 4187.6C992.089 4187.8 993.159 4188 994.339 4188.21C998.139 4188.89 1004.93 4189.54 1010.83 4189.86C1019.36 4190.32 1031.87 4191.18 1040.68 4190.31C1044.76 4189.91 1042.52 4188.86 1040.86 4188.37C1037.82 4187.47 1031.44 4186.98 1024.79 4186.63L1022.72 4186.18L1022.71 4186.16ZM941.739 4092.95C936.719 4092.73 932.149 4092.36 927.139 4092.59C923.459 4092.76 919.649 4092.86 916.009 4093.05C913.549 4093.17 907.169 4093.51 907.479 4093.96C907.599 4094.13 909.029 4094.27 909.809 4094.39C911.119 4094.59 912.189 4094.79 913.369 4095C917.169 4095.68 923.959 4096.33 929.859 4096.65C938.389 4097.11 950.899 4097.97 959.709 4097.1C963.789 4096.7 961.549 4095.65 959.889 4095.16C956.849 4094.26 950.469 4093.77 943.819 4093.42L941.749 4092.97L941.739 4092.95ZM909.069 4191.48C907.529 4191.62 905.719 4191.63 905.679 4191.95C905.649 4192.14 906.799 4192.41 907.649 4192.56C909.489 4192.89 913.089 4193.09 916.099 4193.01C918.539 4192.94 925.289 4192.61 923.999 4192.16C923.409 4191.95 920.569 4191.77 919.129 4191.69C915.949 4191.52 912.959 4191.63 909.759 4191.74L909.069 4191.47V4191.48ZM1056.65 4223.59C1055.11 4223.73 1053.3 4223.74 1053.26 4224.06C1053.23 4224.25 1054.38 4224.52 1055.23 4224.67C1057.07 4225 1060.67 4225.2 1063.68 4225.12C1066.12 4225.05 1072.87 4224.72 1071.58 4224.27C1070.99 4224.07 1068.15 4223.88 1066.71 4223.8C1063.53 4223.63 1060.54 4223.74 1057.34 4223.85L1056.65 4223.58V4223.59ZM1516.6 4216.66C1515.06 4216.8 1513.25 4216.81 1513.21 4217.13C1513.18 4217.32 1514.33 4217.59 1515.18 4217.74C1517.02 4218.07 1520.62 4218.27 1523.63 4218.19C1526.07 4218.12 1532.82 4217.79 1531.53 4217.34C1530.94 4217.14 1528.1 4216.95 1526.66 4216.87C1523.48 4216.7 1520.49 4216.81 1517.29 4216.92L1516.6 4216.65V4216.66ZM1547.02 4327.48C1545.48 4327.62 1543.67 4327.63 1543.63 4327.95C1543.6 4328.14 1544.75 4328.41 1545.6 4328.57C1547.44 4328.9 1551.04 4329.1 1554.05 4329.02C1556.49 4328.95 1563.24 4328.62 1561.95 4328.17C1561.36 4327.97 1558.52 4327.78 1557.08 4327.7C1553.9 4327.53 1550.91 4327.64 1547.71 4327.75L1547.02 4327.48ZM1481.15 4393.74C1479.61 4393.88 1477.8 4393.89 1477.76 4394.21C1477.73 4394.4 1478.88 4394.67 1479.73 4394.82C1481.57 4395.15 1485.17 4395.35 1488.18 4395.27C1490.62 4395.2 1497.37 4394.87 1496.08 4394.42C1495.49 4394.22 1492.65 4394.03 1491.21 4393.95C1488.03 4393.78 1485.04 4393.89 1481.84 4394L1481.15 4393.73V4393.74ZM819.069 4193.63C816.819 4193.49 814.549 4193.46 812.269 4193.52C814.049 4193.67 817.369 4194.05 819.479 4193.77C820.609 4193.62 818.739 4193.12 816.989 4193.18L819.059 4193.63H819.069ZM730.379 4197.57C728.229 4197.67 724.779 4197.71 724.589 4198.09C724.489 4198.29 724.889 4198.35 726.339 4198.45C728.149 4198.58 731.769 4198.78 733.819 4198.7C739.349 4198.51 734.159 4197.32 730.369 4197.39V4197.57H730.379ZM365.059 4207.14C362.909 4207.24 359.459 4207.28 359.269 4207.66C359.169 4207.86 359.569 4207.92 361.019 4208.02C362.829 4208.15 366.449 4208.35 368.499 4208.27C374.029 4208.08 368.839 4206.89 365.049 4206.96V4207.14H365.059ZM503.939 4217.77C501.789 4217.87 498.339 4217.91 498.149 4218.29C498.049 4218.49 498.449 4218.55 499.899 4218.65C501.709 4218.78 505.329 4218.98 507.379 4218.9C512.909 4218.71 507.719 4217.52 503.929 4217.59V4217.77H503.939ZM663.269 4199.21C661.119 4199.31 657.669 4199.35 657.479 4199.73C657.379 4199.93 657.779 4199.99 659.229 4200.09C661.039 4200.22 664.659 4200.42 666.709 4200.34C672.239 4200.15 667.049 4198.96 663.259 4199.03V4199.21H663.269ZM480.769 4214.76C478.619 4214.86 475.169 4214.9 474.979 4215.28C474.879 4215.48 475.279 4215.54 476.729 4215.64C478.539 4215.77 482.159 4215.97 484.209 4215.89C489.739 4215.7 484.549 4214.51 480.759 4214.58V4214.76H480.769ZM688.089 4200.53C685.779 4200.82 685.539 4201.07 687.719 4201.38C689.599 4201.65 691.559 4201.77 694.369 4201.78C698.489 4201.8 699.109 4201.59 699.189 4201.07C699.319 4200.26 692.979 4200.45 688.779 4200.62L688.089 4200.53ZM754.039 4270.44L753.309 4270.5C752.149 4270.39 752.609 4270.23 752.339 4270.08C751.909 4269.84 751.159 4269.72 749.899 4269.53C747.499 4269.19 743.159 4268.84 739.369 4268.91C734.039 4269.01 729.789 4269.24 727.329 4269.88C725.779 4270.29 725.719 4270.89 728.289 4271.24C732.419 4271.8 739.949 4271.97 745.579 4272.03C749.779 4272.07 755.209 4272.17 758.749 4271.8C760.829 4271.58 762.729 4271.27 761.579 4270.9C760.999 4270.71 759.109 4270.54 757.859 4270.43C755.069 4270.19 753.739 4270.37 750.579 4270.52L754.039 4270.43V4270.44ZM1650.65 4392.87C1650.41 4392.89 1650.17 4392.91 1649.92 4392.93C1648.76 4392.82 1649.22 4392.66 1648.95 4392.51C1648.52 4392.27 1647.77 4392.15 1646.51 4391.96C1644.11 4391.62 1639.77 4391.27 1635.98 4391.34C1630.65 4391.44 1626.4 4391.67 1623.94 4392.31C1622.39 4392.71 1622.33 4393.32 1624.9 4393.67C1629.03 4394.23 1636.56 4394.4 1642.19 4394.46C1646.39 4394.5 1651.82 4394.6 1655.36 4394.23C1657.44 4394.01 1659.34 4393.7 1658.19 4393.33C1657.61 4393.14 1655.72 4392.97 1654.47 4392.86C1651.68 4392.62 1650.35 4392.8 1647.19 4392.95L1650.65 4392.86V4392.87ZM1008.3 4273.4C1008.06 4273.42 1007.82 4273.44 1007.57 4273.46C1006.41 4273.35 1006.87 4273.19 1006.6 4273.04C1006.17 4272.8 1005.42 4272.68 1004.16 4272.49C1001.76 4272.15 997.419 4271.8 993.629 4271.87C988.299 4271.97 984.049 4272.2 981.589 4272.84C980.039 4273.24 979.979 4273.85 982.549 4274.2C986.679 4274.76 994.209 4274.93 999.839 4274.99C1004.04 4275.03 1009.47 4275.13 1013.01 4274.76C1015.09 4274.54 1016.99 4274.23 1015.84 4273.86C1015.26 4273.67 1013.37 4273.5 1012.12 4273.39C1009.33 4273.15 1008 4273.33 1004.84 4273.48L1008.3 4273.39V4273.4ZM1260.78 4270.83L1260.05 4270.89C1258.89 4270.78 1259.35 4270.62 1259.08 4270.47C1258.65 4270.23 1257.9 4270.11 1256.64 4269.92C1254.24 4269.58 1249.9 4269.23 1246.11 4269.3C1240.78 4269.4 1236.53 4269.63 1234.07 4270.27C1232.52 4270.68 1232.46 4271.28 1235.03 4271.63C1239.16 4272.19 1246.69 4272.36 1252.32 4272.42C1256.52 4272.46 1261.95 4272.56 1265.49 4272.19C1267.57 4271.97 1269.47 4271.66 1268.32 4271.29C1267.74 4271.1 1265.85 4270.93 1264.6 4270.82C1261.81 4270.58 1260.48 4270.76 1257.32 4270.91L1260.78 4270.82V4270.83ZM850.779 4207.29C853.189 4207.38 855.549 4207.39 857.879 4207.3C856.539 4207.19 856.579 4206.64 854.249 4206.98C854.019 4206.96 853.789 4206.94 853.559 4206.92L850.789 4207.28L850.779 4207.29ZM858.019 4200.01C860.429 4200.1 862.789 4200.11 865.119 4200.02C863.779 4199.91 863.819 4199.36 861.489 4199.7L860.799 4199.64L858.029 4200L858.019 4200.01ZM436.999 4240.45C439.409 4240.54 441.769 4240.55 444.099 4240.46C442.759 4240.35 442.799 4239.8 440.469 4240.14C440.239 4240.12 440.009 4240.1 439.779 4240.08L437.009 4240.44L436.999 4240.45ZM1007.4 4233.71C1009.81 4233.8 1012.17 4233.81 1014.5 4233.72C1013.16 4233.61 1013.2 4233.06 1010.87 4233.4C1010.64 4233.38 1010.41 4233.36 1010.18 4233.34L1007.41 4233.7L1007.4 4233.71ZM931.169 4199C933.579 4199.09 935.939 4199.1 938.269 4199.01C936.929 4198.9 936.969 4198.35 934.639 4198.69C934.409 4198.67 934.179 4198.65 933.949 4198.63L931.179 4198.99L931.169 4199ZM789.389 4202.88C791.799 4202.97 794.159 4202.98 796.489 4202.89C795.149 4202.78 795.189 4202.23 792.859 4202.57C792.629 4202.55 792.399 4202.53 792.169 4202.51L789.399 4202.87L789.389 4202.88ZM1187.26 4282.35C1189.67 4282.44 1192.03 4282.45 1194.36 4282.36C1193.02 4282.25 1193.06 4281.7 1190.73 4282.04C1190.5 4282.02 1190.27 4282 1190.04 4281.98L1187.27 4282.34L1187.26 4282.35ZM1310.21 4216.46C1312.62 4216.55 1314.98 4216.56 1317.31 4216.47C1315.97 4216.36 1316.01 4215.81 1313.68 4216.15C1313.45 4216.13 1313.22 4216.11 1312.99 4216.09L1310.22 4216.45L1310.21 4216.46ZM1385.63 4209.74C1388.04 4209.83 1390.4 4209.84 1392.73 4209.75C1391.39 4209.64 1391.43 4209.09 1389.1 4209.43C1388.87 4209.41 1388.64 4209.39 1388.41 4209.37L1385.64 4209.73L1385.63 4209.74ZM1501.19 4207.57C1503.6 4207.66 1505.96 4207.67 1508.29 4207.58C1506.95 4207.47 1506.99 4206.92 1504.66 4207.26C1504.43 4207.24 1504.2 4207.22 1503.97 4207.2L1501.2 4207.56L1501.19 4207.57ZM1543.59 4200.66C1546 4200.75 1548.36 4200.76 1550.69 4200.67C1549.35 4200.56 1549.39 4200.01 1547.06 4200.35C1546.83 4200.33 1546.6 4200.31 1546.37 4200.29L1543.6 4200.65L1543.59 4200.66ZM877.979 4208.71C880.389 4208.8 882.749 4208.81 885.079 4208.72C883.739 4208.61 883.779 4208.06 881.449 4208.4C881.219 4208.38 880.989 4208.36 880.759 4208.34L877.989 4208.7L877.979 4208.71ZM882.569 4196.39C884.979 4196.48 887.339 4196.49 889.669 4196.4C888.329 4196.29 888.369 4195.74 886.039 4196.08C885.809 4196.06 885.579 4196.04 885.349 4196.02L882.579 4196.38L882.569 4196.39ZM1123.25 4276.92C1125.66 4277.01 1128.02 4277.02 1130.35 4276.93C1129.01 4276.82 1129.05 4276.27 1126.72 4276.61C1126.49 4276.59 1126.26 4276.57 1126.03 4276.55L1123.26 4276.91L1123.25 4276.92ZM810.689 4198.15C809.259 4198.22 803.339 4198.39 805.709 4198.78C807.199 4199.03 813.329 4199 814.869 4198.86C816.129 4198.75 818.359 4198.47 818.579 4198.26C818.849 4198 816.699 4197.44 814.159 4197.69L810.689 4198.14V4198.15ZM971.169 4204.25C969.739 4204.32 963.819 4204.49 966.189 4204.88C967.679 4205.13 973.809 4205.1 975.349 4204.96C976.609 4204.85 978.839 4204.57 979.059 4204.36C979.329 4204.1 977.179 4203.54 974.639 4203.79L971.169 4204.24V4204.25ZM1252.54 4289.17C1251.11 4289.24 1245.19 4289.41 1247.56 4289.8C1249.05 4290.05 1255.18 4290.02 1256.72 4289.88C1257.98 4289.77 1260.21 4289.49 1260.43 4289.28C1260.7 4289.02 1258.55 4288.46 1256.01 4288.71L1252.54 4289.16V4289.17ZM1654.36 4226.39C1652.93 4226.46 1647.01 4226.63 1649.38 4227.02C1650.87 4227.27 1657 4227.24 1658.54 4227.1C1659.8 4226.99 1662.03 4226.71 1662.25 4226.5C1662.52 4226.24 1660.37 4225.68 1657.83 4225.93L1654.36 4226.38V4226.39ZM1028.54 4222.67C1027.11 4222.74 1021.19 4222.91 1023.56 4223.3C1025.05 4223.55 1031.18 4223.52 1032.72 4223.38C1033.98 4223.27 1036.21 4222.99 1036.43 4222.78C1036.7 4222.52 1034.55 4221.96 1032.01 4222.21L1028.54 4222.66V4222.67ZM1118.42 4284.11C1116.99 4284.18 1111.07 4284.35 1113.44 4284.74C1114.93 4284.99 1121.06 4284.96 1122.6 4284.82C1123.86 4284.71 1126.09 4284.43 1126.31 4284.22C1126.58 4283.96 1124.43 4283.4 1121.89 4283.65L1118.42 4284.1V4284.11ZM648.089 4212.69C646.659 4212.76 640.739 4212.93 643.109 4213.32C644.599 4213.57 650.729 4213.54 652.269 4213.4C653.529 4213.29 655.759 4213.01 655.979 4212.8C656.249 4212.54 654.099 4211.98 651.559 4212.23L648.089 4212.68V4212.69ZM866.789 4198.07C865.359 4198.14 859.439 4198.31 861.809 4198.7C863.299 4198.95 869.429 4198.92 870.969 4198.78C872.229 4198.67 874.459 4198.39 874.679 4198.18C874.949 4197.92 872.799 4197.36 870.259 4197.61L866.789 4198.06V4198.07ZM648.949 4058.36C647.519 4058.43 641.599 4058.6 643.969 4058.99C645.459 4059.24 651.589 4059.21 653.129 4059.07C654.389 4058.96 656.619 4058.68 656.839 4058.47C657.109 4058.21 654.959 4057.65 652.419 4057.9L648.949 4058.35V4058.36ZM869.939 4196.14C868.509 4196.21 862.589 4196.38 864.959 4196.77C866.449 4197.02 872.579 4196.99 874.119 4196.85C875.379 4196.74 877.609 4196.46 877.829 4196.25C878.099 4195.99 875.949 4195.43 873.409 4195.68L869.939 4196.13V4196.14ZM969.179 4210.89C967.749 4210.96 961.829 4211.13 964.199 4211.52C965.689 4211.77 971.819 4211.74 973.359 4211.6C974.619 4211.49 976.849 4211.21 977.069 4211C977.339 4210.74 975.189 4210.18 972.649 4210.43L969.179 4210.88V4210.89ZM655.679 4123.67C654.249 4123.74 648.329 4123.91 650.699 4124.3C652.189 4124.55 658.319 4124.52 659.859 4124.38C661.119 4124.27 663.349 4123.99 663.569 4123.78C663.839 4123.52 661.689 4122.96 659.149 4123.21L655.679 4123.66V4123.67ZM573.119 4243.7C571.689 4243.77 565.769 4243.94 568.139 4244.33C569.629 4244.58 575.759 4244.55 577.299 4244.41C578.559 4244.3 580.789 4244.02 581.009 4243.81C581.279 4243.55 579.129 4242.99 576.589 4243.24L573.119 4243.69V4243.7ZM1388.25 4218.71C1386.82 4218.78 1380.9 4218.95 1383.27 4219.34C1384.76 4219.59 1390.89 4219.56 1392.43 4219.42C1393.69 4219.31 1395.92 4219.03 1396.14 4218.82C1396.41 4218.56 1394.26 4218 1391.72 4218.25L1388.25 4218.7V4218.71ZM1262.95 4250.41C1261.52 4250.48 1255.6 4250.65 1257.97 4251.04C1259.46 4251.29 1265.59 4251.26 1267.13 4251.12C1268.39 4251.01 1270.62 4250.73 1270.84 4250.52C1271.11 4250.26 1268.96 4249.7 1266.42 4249.95L1262.95 4250.4V4250.41ZM745.719 4256.08C744.289 4256.15 738.369 4256.32 740.739 4256.71C742.229 4256.96 748.359 4256.93 749.899 4256.79C751.159 4256.68 753.389 4256.4 753.609 4256.19C753.879 4255.93 751.729 4255.37 749.189 4255.62L745.719 4256.07V4256.08ZM999.539 4246.11C998.109 4246.18 992.189 4246.35 994.559 4246.74C996.049 4246.99 1002.18 4246.96 1003.72 4246.82C1004.98 4246.71 1007.21 4246.43 1007.43 4246.22C1007.7 4245.96 1005.55 4245.4 1003.01 4245.65L999.539 4246.1V4246.11ZM1102.85 4279.73C1099.91 4279.63 1088.6 4279.04 1089.07 4280.05C1089.36 4280.68 1099.77 4281.53 1103.52 4281.53C1106.58 4281.53 1112.7 4281.4 1114.9 4281.08C1117.65 4280.69 1118.94 4279.44 1112.51 4279.49L1102.85 4279.72V4279.73ZM540.219 4227.68C537.279 4227.58 525.969 4226.99 526.439 4228C526.729 4228.63 537.139 4229.48 540.889 4229.48C543.949 4229.48 550.069 4229.35 552.269 4229.03C555.019 4228.64 556.309 4227.39 549.879 4227.44L540.219 4227.67V4227.68ZM1210.35 4293.71C1207.41 4293.61 1196.1 4293.02 1196.57 4294.03C1196.86 4294.66 1207.27 4295.51 1211.02 4295.51C1214.08 4295.51 1220.2 4295.38 1222.4 4295.06C1225.15 4294.67 1226.44 4293.42 1220.01 4293.47L1210.35 4293.7V4293.71ZM561.679 4234.49C558.739 4234.39 542.959 4234.99 543.429 4236C543.719 4236.63 554.129 4237.48 557.879 4237.48C560.939 4237.48 567.059 4237.35 569.259 4237.03C572.009 4236.64 573.299 4235.39 566.869 4235.44L561.679 4234.48V4234.49ZM1106.61 4295.5C1103.67 4295.4 1092.36 4294.81 1092.83 4295.82C1093.12 4296.45 1103.53 4297.3 1107.28 4297.3C1110.34 4297.3 1116.46 4297.17 1118.66 4296.85C1121.41 4296.46 1122.7 4295.21 1116.27 4295.26L1106.61 4295.49V4295.5ZM665.439 4193.46C664.009 4193.53 658.089 4193.7 660.459 4194.09C661.949 4194.34 668.079 4194.31 669.619 4194.17C670.879 4194.06 673.109 4193.78 673.329 4193.57C673.599 4193.31 671.449 4192.75 668.909 4193L665.439 4193.45V4193.46ZM424.759 4232.81C425.849 4232.67 430.699 4232.2 427.279 4231.97C425.129 4231.82 419.639 4232.18 418.669 4232.38C417.879 4232.55 416.729 4232.92 417.199 4233.12C417.789 4233.37 421.529 4233.77 423.029 4233.4L424.759 4232.81ZM405.449 4224.7C404.019 4224.77 398.099 4224.94 400.469 4225.33C401.959 4225.58 408.089 4225.55 409.629 4225.41C410.889 4225.3 413.119 4225.02 413.339 4224.81C413.609 4224.55 411.459 4223.99 408.919 4224.24L405.449 4224.69V4224.7ZM768.459 4193.56C765.049 4193.38 761.639 4193.19 758.209 4193.02C757.039 4193.33 754.089 4193.39 752.499 4193.66C751.139 4193.89 750.779 4194.15 751.409 4194.42C752.679 4194.97 759.869 4195.17 763.879 4195.22C767.879 4195.27 773.059 4195.24 776.629 4194.98C781.969 4194.59 776.749 4193.92 773.999 4193.56H768.459ZM808.079 4112.61C804.669 4112.43 801.259 4112.24 797.829 4112.07C796.659 4112.38 793.709 4112.44 792.119 4112.71C790.759 4112.94 790.399 4113.2 791.029 4113.47C792.299 4114.02 799.489 4114.22 803.499 4114.27C807.499 4114.32 812.679 4114.29 816.249 4114.03C821.589 4113.64 816.369 4112.97 813.619 4112.61H808.079ZM430.709 4220.39C427.299 4220.21 423.889 4220.02 420.459 4219.85C419.289 4220.16 416.339 4220.22 414.749 4220.49C413.389 4220.72 413.029 4220.98 413.659 4221.25C414.929 4221.8 422.119 4222 426.129 4222.05C430.129 4222.1 435.309 4222.07 438.879 4221.81C444.219 4221.42 438.999 4220.75 436.249 4220.39H430.709ZM358.659 4220.39C355.249 4220.21 351.839 4220.02 348.409 4219.85C347.239 4220.16 344.289 4220.22 342.699 4220.49C341.339 4220.72 340.979 4220.98 341.609 4221.25C342.879 4221.8 350.069 4222 354.079 4222.05C358.079 4222.1 363.259 4222.07 366.829 4221.81C372.169 4221.42 366.949 4220.75 364.199 4220.39H358.659ZM868.529 4305.65C865.119 4305.47 861.709 4305.28 858.279 4305.11C857.109 4305.42 854.159 4305.48 852.569 4305.75C851.209 4305.98 850.849 4306.24 851.479 4306.51C852.749 4307.06 859.939 4307.26 863.949 4307.31C867.949 4307.36 873.129 4307.33 876.699 4307.07C882.039 4306.68 876.819 4306.01 874.069 4305.65H868.529ZM1175.45 4258.87C1178.03 4259.21 1180.63 4259.55 1183.25 4259.89C1185.26 4259.67 1188.16 4259.76 1190.42 4259.59C1192.35 4259.45 1193.47 4259.23 1193.71 4258.94C1194.19 4258.37 1188.17 4257.82 1184.63 4257.57C1181.1 4257.32 1176.24 4257.09 1172.17 4257.14C1166.09 4257.23 1168.88 4258.11 1170.34 4258.58L1175.44 4258.86L1175.45 4258.87ZM726.269 4186.82C723.449 4186.91 720.589 4186.93 717.839 4187.01C715.279 4187.09 712.179 4187.33 709.909 4187.49C706.979 4187.69 701.699 4188.27 703.739 4188.76C705.389 4189.16 712.869 4189.27 715.819 4189.41C719.349 4189.58 723.089 4189.64 726.839 4189.62C734.879 4189.57 742.039 4189.05 747.129 4188.27C749.889 4187.85 749.199 4187.41 746.749 4186.99C740.849 4185.99 731.239 4186.25 723.519 4186.65L726.289 4186.83L726.269 4186.82ZM703.489 4257.19C697.709 4257.07 692.769 4257.46 687.949 4257.86C684.529 4258.14 682.939 4258.32 682.499 4258.82C682.169 4259.2 682.529 4259.46 684.489 4259.77C687.429 4260.24 692.289 4260.23 696.609 4260.25C706.359 4260.3 714.009 4259.35 715.639 4258.12C716.239 4257.67 716.169 4256.93 711.889 4256.81C707.419 4256.69 703.219 4256.94 699.329 4257.18H703.489V4257.19ZM856.399 4194.93C853.489 4194.82 850.579 4194.7 847.679 4194.58C846.989 4194.65 846.219 4194.7 845.369 4194.74C843.409 4194.86 842.049 4194.91 841.549 4195.22C840.519 4195.86 845.339 4196.08 849.149 4196.24C851.209 4196.32 855.939 4196.56 856.829 4196.11C857.159 4195.95 855.779 4195.21 855.019 4195.12L856.409 4194.94L856.399 4194.93ZM1447.73 4221.09C1444.82 4220.98 1441.91 4220.86 1439.01 4220.74C1438.32 4220.81 1437.55 4220.86 1436.7 4220.9C1434.74 4221.02 1433.38 4221.07 1432.88 4221.38C1431.85 4222.02 1436.67 4222.24 1440.48 4222.4C1442.54 4222.48 1447.27 4222.72 1448.16 4222.27C1448.49 4222.11 1447.11 4221.37 1446.35 4221.28L1447.74 4221.1L1447.73 4221.09ZM808.159 4314.64C805.249 4314.53 802.339 4314.41 799.439 4314.29C798.749 4314.36 797.979 4314.41 797.129 4314.45C795.169 4314.57 793.809 4314.62 793.309 4314.93C792.279 4315.57 797.099 4315.79 800.909 4315.95C802.969 4316.03 807.699 4316.27 808.589 4315.82C808.919 4315.66 807.539 4314.92 806.779 4314.83L808.169 4314.65L808.159 4314.64ZM1677.63 4243.94C1674.72 4243.83 1671.81 4243.71 1668.91 4243.59C1668.22 4243.66 1667.45 4243.71 1666.6 4243.75C1664.64 4243.87 1663.28 4243.92 1662.78 4244.23C1661.75 4244.87 1666.57 4245.09 1670.38 4245.25C1672.44 4245.33 1677.17 4245.57 1678.06 4245.12C1678.39 4244.96 1677.01 4244.22 1676.25 4244.13L1677.64 4243.95L1677.63 4243.94ZM1259.73 4292.81C1256.82 4292.7 1253.91 4292.58 1251 4292.46C1250.31 4292.53 1249.54 4292.58 1248.69 4292.62C1246.73 4292.74 1245.37 4292.79 1244.87 4293.1C1243.84 4293.74 1248.66 4293.96 1252.47 4294.12C1254.53 4294.2 1259.26 4294.44 1260.15 4293.99C1260.48 4293.83 1259.1 4293.09 1258.34 4293L1259.73 4292.82V4292.81ZM1682.38 4232.69C1679.47 4232.58 1676.56 4232.46 1673.65 4232.34C1672.96 4232.41 1672.19 4232.46 1671.34 4232.5C1669.38 4232.62 1668.02 4232.67 1667.52 4232.98C1666.49 4233.62 1671.31 4233.84 1675.12 4234C1677.18 4234.08 1681.91 4234.32 1682.8 4233.87C1683.13 4233.71 1681.75 4232.97 1680.99 4232.88L1682.38 4232.7V4232.69ZM1152.62 4278.89C1149.71 4278.78 1146.8 4278.66 1143.9 4278.54C1143.21 4278.61 1142.44 4278.66 1141.59 4278.7C1139.63 4278.82 1138.27 4278.87 1137.77 4279.18C1136.74 4279.82 1141.56 4280.04 1145.37 4280.2C1147.43 4280.28 1152.16 4280.52 1153.05 4280.07C1153.38 4279.91 1152 4279.17 1151.25 4279.08L1152.64 4278.9L1152.62 4278.89ZM1457.41 4208.94C1454.5 4208.83 1451.59 4208.71 1448.69 4208.59C1448 4208.66 1447.23 4208.71 1446.38 4208.75C1444.42 4208.87 1443.06 4208.92 1442.56 4209.23C1441.53 4209.87 1446.35 4210.09 1450.16 4210.25C1452.22 4210.33 1456.95 4210.57 1457.84 4210.12C1458.17 4209.96 1456.79 4209.22 1456.03 4209.13L1457.42 4208.95L1457.41 4208.94ZM1363.07 4269.1C1360.16 4268.99 1357.25 4268.87 1354.34 4268.75C1353.65 4268.82 1352.88 4268.87 1352.03 4268.91C1350.07 4269.03 1348.71 4269.08 1348.21 4269.39C1347.18 4270.03 1352 4270.25 1355.81 4270.41C1357.87 4270.49 1362.6 4270.73 1363.49 4270.28C1363.82 4270.12 1362.44 4269.38 1361.68 4269.29L1363.07 4269.11V4269.1ZM1076.1 4280.36C1073.19 4280.25 1070.28 4280.13 1067.38 4280.01C1066.69 4280.08 1065.92 4280.13 1065.07 4280.17C1063.11 4280.29 1061.75 4280.34 1061.25 4280.65C1060.22 4281.29 1065.04 4281.51 1068.85 4281.67C1070.91 4281.75 1075.64 4281.99 1076.53 4281.54C1076.86 4281.38 1075.48 4280.64 1074.72 4280.55L1076.11 4280.37L1076.1 4280.36ZM1653.75 4230.3C1650.84 4230.19 1647.93 4230.07 1645.02 4229.95C1644.33 4230.02 1643.56 4230.07 1642.71 4230.11C1640.75 4230.23 1639.39 4230.28 1638.89 4230.59C1637.86 4231.23 1642.68 4231.45 1646.49 4231.61C1648.55 4231.69 1653.28 4231.93 1654.17 4231.48C1654.5 4231.32 1653.12 4230.58 1652.37 4230.49L1653.76 4230.31L1653.75 4230.3ZM1507.55 4203.99C1504.64 4203.88 1501.73 4203.76 1498.83 4203.64C1498.14 4203.71 1497.37 4203.76 1496.52 4203.8C1494.56 4203.92 1493.2 4203.97 1492.7 4204.28C1491.67 4204.92 1496.49 4205.14 1500.3 4205.3C1502.36 4205.38 1507.09 4205.62 1507.98 4205.17C1508.31 4205.01 1506.93 4204.27 1506.17 4204.18L1507.56 4204L1507.55 4203.99ZM1646.02 4200.61C1643.11 4200.5 1640.2 4200.38 1637.3 4200.26C1636.61 4200.33 1635.84 4200.38 1634.99 4200.42C1633.03 4200.54 1631.67 4200.59 1631.17 4200.9C1630.14 4201.54 1634.96 4201.76 1638.77 4201.92C1640.83 4202 1645.56 4202.24 1646.45 4201.79C1646.78 4201.63 1645.4 4200.89 1644.64 4200.8L1646.03 4200.62L1646.02 4200.61ZM1668.87 4111.52C1665.96 4111.41 1663.05 4111.29 1660.15 4111.17C1659.46 4111.24 1658.69 4111.29 1657.84 4111.33C1655.88 4111.45 1654.52 4111.5 1654.02 4111.81C1652.99 4112.45 1657.81 4112.67 1661.62 4112.83C1663.68 4112.91 1668.41 4113.15 1669.3 4112.7C1669.63 4112.54 1668.25 4111.8 1667.5 4111.71L1668.89 4111.53L1668.87 4111.52ZM1109.79 4293.55C1106.88 4293.44 1103.97 4293.32 1101.07 4293.2C1100.38 4293.27 1099.61 4293.32 1098.76 4293.36C1096.8 4293.48 1095.44 4293.53 1094.93 4293.84C1093.9 4294.48 1098.72 4294.7 1102.53 4294.86C1104.59 4294.94 1109.32 4295.18 1110.21 4294.73C1110.54 4294.57 1109.16 4293.83 1108.41 4293.74L1109.8 4293.56L1109.79 4293.55ZM817.969 4191.89C815.059 4191.78 812.149 4191.66 809.239 4191.54C808.549 4191.61 807.779 4191.66 806.929 4191.7C804.969 4191.82 803.609 4191.87 803.109 4192.18C802.079 4192.82 806.899 4193.04 810.709 4193.2C812.769 4193.28 817.499 4193.52 818.389 4193.07C818.719 4192.91 817.339 4192.17 816.579 4192.08L817.969 4191.9V4191.89ZM486.969 4063.8C484.059 4063.69 481.149 4063.57 478.249 4063.45C477.559 4063.52 476.789 4063.57 475.939 4063.61C473.979 4063.73 472.619 4063.78 472.119 4064.09C471.089 4064.73 475.909 4064.95 479.719 4065.11C481.779 4065.19 486.509 4065.43 487.399 4064.98C487.729 4064.82 486.349 4064.08 485.589 4063.99L486.979 4063.81L486.969 4063.8ZM617.559 4193.82C614.649 4193.71 611.739 4193.59 608.839 4193.47C608.149 4193.54 607.379 4193.59 606.529 4193.63C604.569 4193.75 603.209 4193.8 602.709 4194.11C601.679 4194.75 606.499 4194.97 610.309 4195.13C612.369 4195.21 617.099 4195.45 617.989 4195C618.319 4194.84 616.939 4194.1 616.179 4194.01L617.569 4193.83L617.559 4193.82ZM850.729 4184.79C849.269 4184.73 847.819 4184.68 846.369 4184.62C846.029 4184.66 845.639 4184.68 845.209 4184.7C844.229 4184.76 843.549 4184.78 843.299 4184.94C842.789 4185.26 845.199 4185.37 847.099 4185.45C848.129 4185.49 850.489 4185.61 850.939 4185.38C851.099 4185.3 850.419 4184.93 850.039 4184.88L850.729 4184.79ZM647.159 4068.64C643.699 4068.9 638.319 4069.14 640.519 4069.79C641.249 4070.01 643.389 4070.29 645.059 4070.38C648.689 4070.58 657.829 4070.37 660.819 4070.12C664.509 4069.82 664.179 4069.45 661.939 4069.08C660.649 4068.87 658.699 4068.62 656.539 4068.58C654.059 4068.53 651.749 4068.85 649.439 4068.63H647.169L647.159 4068.64ZM619.659 4075.1C620.999 4075.27 622.519 4075.61 624.739 4075.53C628.259 4075.41 625.659 4075.11 624.299 4074.93C622.489 4075.01 620.709 4075.1 618.929 4075.19L619.659 4075.1ZM710.629 4066.35C705.769 4066.29 701.839 4066.17 697.359 4066.37C694.229 4066.51 694.249 4066.53 694.259 4066.92C694.259 4067.16 694.109 4068.08 696.009 4068.26C696.949 4068.35 701.249 4068.31 702.599 4068.34C705.929 4068.41 709.209 4068.53 712.599 4068.51C720.489 4068.46 728.389 4068.48 735.899 4068.14C738.149 4068.04 741.409 4067.81 742.369 4067.5C743.429 4067.16 741.009 4066.76 739.419 4066.5C736.629 4066.06 732.709 4065.97 729.079 4065.69C727.029 4065.53 724.529 4065.37 722.149 4065.32C718.419 4065.24 715.179 4065.53 711.699 4065.55C706.959 4065.58 705.169 4065.92 701.869 4066.35H710.599H710.629ZM753.119 4073.87C750.479 4073.75 748.079 4073.56 745.459 4073.68C743.529 4073.77 741.529 4073.82 739.609 4073.92C738.319 4073.98 734.969 4074.16 735.129 4074.4C735.189 4074.49 735.939 4074.56 736.349 4074.62C737.039 4074.72 737.599 4074.83 738.219 4074.94C740.219 4075.3 743.779 4075.64 746.879 4075.81C751.359 4076.05 757.929 4076.51 762.549 4076.05C764.689 4075.84 763.519 4075.29 762.649 4075.03C761.049 4074.56 757.699 4074.3 754.209 4074.11L753.119 4073.87ZM662.839 4073.14C662.079 4073.11 661.309 4073.08 660.549 4073.05C660.369 4073.07 660.169 4073.08 659.939 4073.09C659.419 4073.12 659.069 4073.13 658.939 4073.22C658.669 4073.39 659.939 4073.45 660.939 4073.49C661.479 4073.51 662.719 4073.57 662.959 4073.46C663.049 4073.42 662.679 4073.22 662.489 4073.2L662.849 4073.15L662.839 4073.14ZM1046.55 4215.34C1045.09 4215.28 1043.64 4215.23 1042.19 4215.17C1041.85 4215.21 1041.46 4215.23 1041.03 4215.25C1040.05 4215.31 1039.37 4215.33 1039.12 4215.49C1038.61 4215.81 1041.02 4215.92 1042.92 4216C1043.95 4216.04 1046.31 4216.16 1046.76 4215.93C1046.92 4215.85 1046.23 4215.48 1045.86 4215.43L1046.55 4215.34ZM497.259 4223.15C495.799 4223.09 494.349 4223.04 492.899 4222.98C492.559 4223.02 492.169 4223.04 491.739 4223.06C490.759 4223.12 490.079 4223.14 489.829 4223.3C489.319 4223.62 491.729 4223.73 493.629 4223.81C494.659 4223.85 497.019 4223.97 497.469 4223.74C497.629 4223.66 496.949 4223.29 496.569 4223.24L497.259 4223.15ZM774.719 4197.38C773.259 4197.32 771.809 4197.27 770.359 4197.21C770.019 4197.25 769.629 4197.27 769.199 4197.29C768.219 4197.35 767.539 4197.37 767.289 4197.53C766.779 4197.85 769.189 4197.96 771.089 4198.04C772.119 4198.08 774.479 4198.2 774.929 4197.97C775.089 4197.89 774.409 4197.52 774.029 4197.47L774.719 4197.38ZM963.489 4193.68C964.909 4193.94 965.719 4194.02 967.829 4194.2C969.629 4194.35 970.399 4194.35 971.179 4194.3C972.159 4194.24 972.739 4194.06 970.649 4193.72C968.219 4193.33 966.549 4193.3 964.239 4193.11C964.199 4193.22 964.669 4193.38 965.639 4193.57L963.479 4193.67L963.489 4193.68ZM660.319 4205.77C656.499 4206.1 655.069 4206.14 654.039 4206.7C653.429 4207.03 652.879 4207.4 653.419 4207.74C654.359 4208.33 660.229 4208.87 664.679 4208.87C669.829 4208.87 672.909 4208.63 673.939 4207.94C674.359 4207.66 674.129 4207.26 673.299 4206.98C671.899 4206.51 667.769 4206.42 664.469 4206.32L660.319 4205.78V4205.77ZM453.769 4216.89C449.949 4217.22 448.519 4217.26 447.489 4217.82C446.879 4218.15 446.329 4218.52 446.869 4218.86C447.809 4219.45 453.679 4219.99 458.129 4219.99C463.279 4219.99 466.359 4219.75 467.389 4219.06C467.809 4218.78 467.579 4218.38 466.749 4218.1C465.349 4217.63 461.219 4217.54 457.919 4217.44L453.769 4216.9V4216.89ZM1078.62 4225.84C1074.8 4226.17 1073.37 4226.21 1072.34 4226.77C1071.73 4227.1 1071.18 4227.47 1071.72 4227.81C1072.66 4228.4 1078.53 4228.94 1082.98 4228.94C1088.13 4228.94 1091.21 4228.7 1092.24 4228.01C1092.66 4227.73 1092.43 4227.33 1091.6 4227.05C1090.2 4226.58 1086.07 4226.49 1082.77 4226.39L1078.62 4225.85V4225.84ZM1120.32 4286.17C1116.5 4286.5 1115.07 4286.54 1114.04 4287.1C1113.43 4287.43 1112.88 4287.8 1113.42 4288.14C1114.36 4288.73 1120.23 4289.27 1124.68 4289.27C1129.83 4289.27 1132.91 4289.03 1133.94 4288.34C1134.36 4288.06 1134.13 4287.66 1133.3 4287.38C1131.9 4286.91 1127.77 4286.82 1124.47 4286.72L1120.32 4286.18V4286.17ZM608.339 4288.55C604.519 4288.88 603.089 4288.92 602.059 4289.48C601.449 4289.81 600.899 4290.18 601.439 4290.52C602.379 4291.11 608.249 4291.65 612.699 4291.65C617.849 4291.65 620.929 4291.41 621.959 4290.72C622.379 4290.44 622.149 4290.04 621.319 4289.76C619.919 4289.29 615.789 4289.2 612.489 4289.1L608.339 4288.56V4288.55ZM672.269 3993.33C674.279 3993.49 676.559 3993.82 679.879 3993.75C685.139 3993.63 681.249 3993.34 679.209 3993.17C676.509 3993.25 673.829 3993.33 671.179 3993.42L672.269 3993.33ZM1156.87 4014.85C1150.39 4014.57 1145.48 4014.28 1138.4 4014.24C1133.45 4014.22 1133.4 4014.24 1131.73 4014.58C1130.69 4014.79 1126.47 4015.61 1128.35 4015.85C1129.28 4015.97 1135.39 4016.14 1137.15 4016.23C1141.48 4016.44 1145.48 4016.71 1150.28 4016.85C1161.43 4017.18 1172.29 4017.56 1184.22 4017.61C1187.78 4017.62 1193.31 4017.57 1195.96 4017.35C1198.89 4017.1 1197.31 4016.63 1196.2 4016.33C1194.25 4015.81 1189.19 4015.55 1185.37 4015.13C1183.21 4014.89 1180.46 4014.63 1177.37 4014.48C1172.53 4014.24 1166.8 4014.34 1161.88 4014.2C1155.19 4014 1151.19 4014.23 1144.78 4014.45L1156.88 4014.86L1156.87 4014.85ZM626.849 3994.45C626.069 3994.92 637.029 3995.26 639.479 3994.82C639.209 3994.87 639.699 3994.38 639.719 3994.43C639.639 3994.24 639.429 3994.22 637.779 3994.09C633.009 3993.71 631.259 3993.89 626.849 3994.27V3994.45ZM584.069 3995.21C581.719 3995.3 573.169 3995.52 572.179 3995.86C571.339 3996.15 575.479 3996.24 578.099 3996.25C580.389 3996.25 582.699 3996.24 583.639 3996.07C584.239 3995.96 583.809 3995.54 582.979 3995.48L584.069 3995.21ZM599.279 3997.56C596.779 3997.67 595.549 3997.83 595.599 3998.04C597.859 3998.11 602.889 3998.07 604.049 3997.88C605.849 3997.59 602.639 3997.54 600.369 3997.47L599.279 3997.56ZM1141.86 4022.75C1139.36 4022.86 1138.13 4023.02 1138.18 4023.23C1140.44 4023.3 1145.47 4023.26 1146.63 4023.07C1148.43 4022.78 1145.22 4022.73 1142.95 4022.66L1141.86 4022.75ZM1115.1 4001.34C1112.6 4001.45 1111.37 4001.61 1111.42 4001.82C1113.68 4001.89 1118.71 4001.85 1119.87 4001.66C1121.67 4001.37 1118.46 4001.32 1116.19 4001.25L1115.1 4001.34ZM1525.71 4012.1C1523.21 4012.21 1521.98 4012.37 1522.03 4012.58C1524.29 4012.65 1529.32 4012.61 1530.48 4012.42C1532.28 4012.13 1529.07 4012.08 1526.8 4012.01L1525.71 4012.1ZM1125.46 4006.8C1122.96 4006.91 1121.73 4007.07 1121.78 4007.28C1124.04 4007.35 1129.07 4007.31 1130.23 4007.12C1132.03 4006.83 1128.82 4006.78 1126.55 4006.71L1125.46 4006.8ZM787.009 3998.27C784.509 3998.38 783.279 3998.54 783.329 3998.75C785.589 3998.82 790.619 3998.78 791.779 3998.59C793.579 3998.3 790.369 3998.25 788.099 3998.18L787.009 3998.27ZM1229.81 4024.36C1227.31 4024.47 1226.08 4024.63 1226.13 4024.84C1228.39 4024.91 1233.42 4024.87 1234.58 4024.68C1236.38 4024.39 1233.17 4024.34 1230.9 4024.27L1229.81 4024.36ZM1189.36 4025.57C1186.86 4025.68 1185.63 4025.84 1185.68 4026.05C1187.94 4026.12 1192.97 4026.08 1194.13 4025.89C1195.93 4025.6 1192.72 4025.55 1190.45 4025.48L1189.36 4025.57ZM627.619 4000.08C625.119 4000.19 623.889 4000.35 623.939 4000.56C626.199 4000.63 631.229 4000.59 632.389 4000.4C634.189 4000.11 630.979 4000.06 628.709 3999.99L627.619 4000.08ZM1123.82 4025.08C1121.32 4025.19 1120.09 4025.35 1120.14 4025.56C1122.4 4025.63 1127.43 4025.59 1128.59 4025.4C1130.39 4025.11 1127.18 4025.06 1124.91 4024.99L1123.82 4025.08ZM773.689 4014.53C771.189 4014.64 769.959 4014.8 770.009 4015.01C772.269 4015.08 777.299 4015.04 778.459 4014.85C780.259 4014.56 777.049 4014.51 774.779 4014.44L773.689 4014.53ZM871.999 3992.13C868.059 3992.02 864.459 3991.83 860.529 3991.95C857.639 3992.03 854.639 3992.09 851.779 3992.18C849.849 3992.24 844.829 3992.41 845.069 3992.64C845.159 3992.73 846.289 3992.8 846.899 3992.85C847.929 3992.95 848.769 3993.05 849.689 3993.16C852.679 3993.5 858.009 3993.83 862.649 3993.99C869.349 3994.22 879.189 3994.66 886.109 3994.22C889.309 3994.02 887.559 3993.49 886.249 3993.24C883.859 3992.79 878.839 3992.54 873.619 3992.36L871.989 3992.13H871.999ZM782.689 3994.81C781.479 3994.88 780.059 3994.89 780.019 3995.04C779.999 3995.14 780.899 3995.27 781.569 3995.35C783.019 3995.52 785.839 3995.62 788.209 3995.58C790.129 3995.55 795.429 3995.38 794.419 3995.15C793.959 3995.05 791.719 3994.95 790.589 3994.91C788.089 3994.82 785.739 3994.88 783.229 3994.94L782.689 3994.8V3994.81ZM1493.8 4006.31C1492.59 4006.38 1491.17 4006.39 1491.13 4006.54C1491.11 4006.64 1492.01 4006.77 1492.68 4006.85C1494.13 4007.02 1496.95 4007.12 1499.32 4007.08C1501.24 4007.05 1506.54 4006.88 1505.53 4006.65C1505.07 4006.55 1502.83 4006.45 1501.71 4006.41C1499.21 4006.32 1496.86 4006.38 1494.35 4006.44L1493.81 4006.3L1493.8 4006.31ZM711.959 3995.9C710.189 3995.83 708.409 3995.81 706.619 3995.84C708.019 3995.92 710.629 3996.11 712.289 3995.97C713.179 3995.89 711.699 3995.64 710.339 3995.67L711.969 3995.9H711.959ZM642.259 3997.88C640.569 3997.93 637.859 3997.95 637.709 3998.14C637.629 3998.24 637.949 3998.27 639.089 3998.32C640.509 3998.39 643.359 3998.48 644.969 3998.45C649.319 3998.35 645.239 3997.76 642.259 3997.79V3997.88ZM589.529 3998.7C587.839 3998.75 585.129 3998.77 584.979 3998.96C584.899 3999.06 585.219 3999.09 586.359 3999.14C587.779 3999.21 590.629 3999.3 592.239 3999.27C596.589 3999.17 592.509 3998.58 589.529 3998.61V3998.7ZM609.039 3999.36C607.219 3999.51 607.029 3999.63 608.749 3999.79C610.219 3999.93 611.769 3999.98 613.969 3999.99C617.209 3999.99 617.689 3999.89 617.759 3999.63C617.859 3999.22 612.879 3999.32 609.579 3999.4L609.039 3999.35V3999.36ZM1076.19 4039.98L1075.62 4040.01C1074.71 4039.96 1075.07 4039.87 1074.86 4039.8C1074.52 4039.68 1073.94 4039.62 1072.94 4039.53C1071.06 4039.36 1067.64 4039.18 1064.66 4039.22C1060.47 4039.27 1057.13 4039.39 1055.2 4039.71C1053.98 4039.91 1053.93 4040.22 1055.95 4040.39C1059.19 4040.67 1065.11 4040.76 1069.54 4040.79C1072.84 4040.81 1077.11 4040.86 1079.89 4040.68C1081.52 4040.57 1083.01 4040.41 1082.11 4040.22C1081.66 4040.12 1080.17 4040.04 1079.18 4039.98C1076.99 4039.86 1075.94 4039.95 1073.46 4040.03L1076.18 4039.99L1076.19 4039.98ZM1130.17 4004.56L1129.6 4004.59C1128.69 4004.54 1129.05 4004.45 1128.84 4004.38C1128.5 4004.26 1127.92 4004.2 1126.92 4004.11C1125.04 4003.94 1121.62 4003.76 1118.64 4003.8C1114.45 4003.85 1111.11 4003.97 1109.18 4004.29C1107.96 4004.49 1107.91 4004.8 1109.93 4004.97C1113.17 4005.25 1119.09 4005.34 1123.52 4005.37C1126.82 4005.39 1131.09 4005.44 1133.87 4005.26C1135.5 4005.15 1136.99 4004.99 1136.09 4004.81C1135.64 4004.71 1134.15 4004.63 1133.16 4004.57C1130.97 4004.45 1129.92 4004.54 1127.44 4004.62L1130.16 4004.58L1130.17 4004.56ZM736.909 4002.76C738.799 4002.81 740.659 4002.81 742.489 4002.76C741.439 4002.7 741.469 4002.43 739.629 4002.6C739.449 4002.6 739.269 4002.58 739.089 4002.57L736.909 4002.75V4002.76ZM742.599 3999.1C744.489 3999.15 746.349 3999.15 748.179 3999.1C747.129 3999.04 747.159 3998.77 745.319 3998.94C745.139 3998.94 744.959 3998.92 744.779 3998.91L742.599 3999.09V3999.1ZM1455.12 4011.4C1457.01 4011.45 1458.87 4011.45 1460.7 4011.4C1459.65 4011.34 1459.68 4011.07 1457.84 4011.24C1457.66 4011.24 1457.48 4011.22 1457.3 4011.21L1455.12 4011.39V4011.4ZM800.079 3998.59C801.969 3998.64 803.829 3998.64 805.659 3998.59C804.609 3998.53 804.639 3998.26 802.799 3998.43C802.619 3998.43 802.439 3998.41 802.259 3998.4L800.079 3998.58V3998.59ZM688.659 4000.54C690.549 4000.59 692.409 4000.59 694.239 4000.54C693.189 4000.48 693.219 4000.21 691.379 4000.38C691.199 4000.38 691.019 4000.36 690.839 4000.35L688.659 4000.53V4000.54ZM1255.79 4025.3C1257.68 4025.35 1259.54 4025.35 1261.37 4025.3C1260.32 4025.24 1260.35 4024.97 1258.51 4025.14C1258.33 4025.14 1258.15 4025.12 1257.97 4025.11L1255.79 4025.29V4025.3ZM758.289 4003.47C760.179 4003.52 762.039 4003.52 763.869 4003.47C762.819 4003.41 762.849 4003.14 761.009 4003.31C760.829 4003.31 760.649 4003.29 760.469 4003.28L758.289 4003.46V4003.47ZM761.889 3997.27C763.779 3997.32 765.639 3997.32 767.469 3997.27C766.419 3997.21 766.449 3996.94 764.609 3997.11C764.429 3997.11 764.249 3997.09 764.069 3997.08L761.889 3997.26V3997.27ZM1205.49 4022.56C1207.38 4022.61 1209.24 4022.61 1211.07 4022.56C1210.02 4022.5 1210.05 4022.23 1208.21 4022.4C1208.03 4022.4 1207.85 4022.38 1207.67 4022.37L1205.49 4022.55V4022.56ZM705.399 3998.15C704.279 3998.18 699.619 3998.27 701.489 3998.47C702.659 3998.6 707.469 3998.58 708.689 3998.51C709.679 3998.45 711.429 3998.31 711.609 3998.21C711.829 3998.08 710.129 3997.8 708.129 3997.93L705.409 3998.16L705.399 3998.15ZM831.519 4001.22C830.399 4001.25 825.739 4001.34 827.609 4001.54C828.779 4001.67 833.589 4001.65 834.809 4001.58C835.799 4001.52 837.549 4001.38 837.729 4001.28C837.949 4001.15 836.249 4000.87 834.249 4001L831.529 4001.23L831.519 4001.22ZM1471.74 4005.83C1470.62 4005.86 1465.96 4005.95 1467.83 4006.15C1469 4006.28 1473.81 4006.26 1475.03 4006.19C1476.02 4006.13 1477.77 4005.99 1477.95 4005.89C1478.17 4005.76 1476.47 4005.48 1474.47 4005.61L1471.75 4005.84L1471.74 4005.83ZM1201.7 4026.18C1200.58 4026.21 1195.92 4026.3 1197.79 4026.5C1198.96 4026.63 1203.77 4026.61 1204.99 4026.54C1205.98 4026.48 1207.73 4026.34 1207.91 4026.24C1208.13 4026.11 1206.43 4025.83 1204.43 4025.96L1201.71 4026.19L1201.7 4026.18ZM577.629 4005.47C576.509 4005.5 571.849 4005.59 573.719 4005.79C574.889 4005.92 579.709 4005.9 580.919 4005.83C581.909 4005.77 583.659 4005.63 583.839 4005.53C584.059 4005.4 582.359 4005.12 580.359 4005.25L577.639 4005.48L577.629 4005.47ZM749.489 3998.11C748.369 3998.14 743.709 3998.23 745.579 3998.43C746.749 3998.56 751.559 3998.54 752.779 3998.47C753.769 3998.41 755.519 3998.27 755.699 3998.17C755.919 3998.04 754.219 3997.76 752.219 3997.89L749.499 3998.12L749.489 3998.11ZM751.969 3997.14C750.849 3997.17 746.189 3997.26 748.059 3997.46C749.229 3997.59 754.039 3997.57 755.259 3997.5C756.249 3997.44 757.999 3997.3 758.179 3997.2C758.399 3997.07 756.699 3996.79 754.699 3996.92L751.979 3997.15L751.969 3997.14ZM829.959 4004.56C828.839 4004.59 824.179 4004.68 826.049 4004.88C827.219 4005.01 832.029 4004.99 833.249 4004.92C834.239 4004.86 835.989 4004.72 836.169 4004.62C836.389 4004.49 834.689 4004.21 832.689 4004.34L829.969 4004.57L829.959 4004.56ZM934.019 4026.52C932.899 4026.55 928.239 4026.64 930.109 4026.84C931.279 4026.97 936.089 4026.95 937.309 4026.88C938.299 4026.82 940.049 4026.68 940.229 4026.58C940.449 4026.45 938.749 4026.17 936.749 4026.3L934.029 4026.53L934.019 4026.52ZM1069.66 4032.75C1068.54 4032.78 1063.88 4032.87 1065.75 4033.07C1066.92 4033.2 1071.73 4033.18 1072.95 4033.11C1073.94 4033.05 1075.69 4032.91 1075.87 4032.81C1076.09 4032.68 1074.39 4032.4 1072.39 4032.53L1069.67 4032.76L1069.66 4032.75ZM1448.94 4017.63C1447.82 4017.66 1443.16 4017.75 1445.03 4017.95C1446.2 4018.08 1451.02 4018.06 1452.23 4017.99C1453.22 4017.93 1454.97 4017.79 1455.15 4017.69C1455.37 4017.56 1453.67 4017.28 1451.67 4017.41L1448.95 4017.64L1448.94 4017.63ZM1189.46 4023.98C1187.15 4023.93 1178.26 4023.63 1178.63 4024.14C1178.86 4024.46 1187.04 4024.89 1189.99 4024.89C1192.39 4024.89 1197.21 4024.82 1198.93 4024.66C1201.09 4024.46 1202.1 4023.84 1197.05 4023.86L1189.46 4023.98ZM1273.94 4031.01C1271.63 4030.96 1262.74 4030.66 1263.11 4031.17C1263.34 4031.49 1271.52 4031.92 1274.47 4031.92C1276.88 4031.92 1281.69 4031.85 1283.41 4031.69C1285.57 4031.49 1286.58 4030.87 1281.53 4030.89L1273.94 4031.01ZM925.029 4021.89C922.719 4021.84 910.319 4022.14 910.689 4022.65C910.919 4022.97 919.099 4023.4 922.049 4023.4C924.449 4023.4 929.269 4023.33 930.989 4023.17C933.149 4022.97 934.159 4022.35 929.109 4022.37L925.029 4021.89ZM1192.41 4031.91C1190.1 4031.86 1181.21 4031.56 1181.58 4032.07C1181.81 4032.39 1189.99 4032.82 1192.94 4032.82C1195.35 4032.82 1200.16 4032.75 1201.88 4032.59C1204.04 4032.39 1205.05 4031.77 1200 4031.79L1192.41 4031.91ZM591.249 3995.8C590.129 3995.83 585.469 3995.92 587.339 3996.12C588.509 3996.25 593.319 3996.23 594.539 3996.16C595.529 3996.1 597.279 3995.96 597.459 3995.86C597.679 3995.73 595.979 3995.45 593.979 3995.58L591.259 3995.81L591.249 3995.8ZM672.209 3995.85C669.529 3995.76 666.849 3995.67 664.159 3995.58C663.239 3995.74 660.919 3995.77 659.669 3995.9C658.599 3996.01 658.319 3996.15 658.809 3996.28C659.809 3996.56 665.459 3996.66 668.609 3996.68C671.749 3996.71 675.829 3996.69 678.629 3996.56C682.829 3996.37 678.719 3996.03 676.559 3995.85H672.209ZM1655.07 4089.23C1652.39 4089.14 1649.71 4089.05 1647.02 4088.96C1646.1 4089.12 1643.78 4089.15 1642.53 4089.28C1641.46 4089.39 1641.18 4089.53 1641.67 4089.66C1642.67 4089.94 1648.32 4090.04 1651.47 4090.06C1654.61 4090.09 1658.69 4090.07 1661.49 4089.94C1665.69 4089.75 1661.58 4089.41 1659.42 4089.23H1655.07ZM1246.51 4013.48C1248.54 4013.65 1250.58 4013.82 1252.64 4013.99C1254.22 4013.88 1256.5 4013.92 1258.28 4013.84C1259.8 4013.77 1260.68 4013.66 1260.86 4013.52C1261.24 4013.23 1256.51 4012.96 1253.73 4012.83C1250.96 4012.7 1247.14 4012.59 1243.94 4012.62C1239.16 4012.66 1241.36 4013.11 1242.5 4013.34L1246.51 4013.48ZM639.059 3992.45C636.849 3992.49 634.589 3992.5 632.429 3992.54C630.419 3992.58 627.979 3992.7 626.199 3992.78C623.899 3992.88 619.749 3993.17 621.349 3993.42C622.649 3993.62 628.529 3993.68 630.839 3993.75C633.609 3993.83 636.559 3993.87 639.499 3993.85C645.819 3993.82 651.439 3993.56 655.439 3993.17C657.609 3992.96 657.069 3992.74 655.139 3992.53C650.499 3992.03 642.949 3992.16 636.879 3992.36L639.059 3992.45ZM1036.48 4033.3C1031.94 4033.24 1028.05 4033.44 1024.27 4033.64C1021.59 4033.78 1020.33 4033.87 1019.99 4034.12C1019.73 4034.31 1020.01 4034.44 1021.55 4034.6C1023.86 4034.84 1027.68 4034.83 1031.07 4034.84C1038.73 4034.86 1044.74 4034.39 1046.03 4033.77C1046.5 4033.54 1046.44 4033.17 1043.09 4033.11C1039.58 4033.05 1036.28 4033.18 1033.22 4033.3H1036.49H1036.48ZM741.329 3996.52C739.039 3996.46 736.759 3996.4 734.469 3996.35C733.929 3996.39 733.319 3996.41 732.649 3996.43C731.109 3996.49 730.039 3996.51 729.639 3996.67C728.829 3996.99 732.619 3997.1 735.609 3997.18C737.229 3997.22 740.939 3997.34 741.639 3997.11C741.899 3997.03 740.809 3996.66 740.219 3996.61L741.309 3996.52H741.329ZM1118.73 4062.2C1116.44 4062.14 1114.16 4062.08 1111.87 4062.03C1111.33 4062.07 1110.72 4062.09 1110.05 4062.11C1108.51 4062.17 1107.44 4062.19 1107.04 4062.35C1106.23 4062.67 1110.02 4062.78 1113.01 4062.86C1114.63 4062.9 1118.34 4063.02 1119.04 4062.79C1119.3 4062.71 1118.21 4062.34 1117.62 4062.29L1118.71 4062.2H1118.73ZM1228.58 4023.53C1226.29 4023.47 1224.01 4023.41 1221.72 4023.36C1221.18 4023.4 1220.57 4023.42 1219.9 4023.44C1218.36 4023.5 1217.29 4023.52 1216.89 4023.68C1216.08 4024 1219.87 4024.11 1222.86 4024.19C1224.48 4024.23 1228.19 4024.35 1228.89 4024.12C1229.15 4024.04 1228.06 4023.67 1227.47 4023.62L1228.56 4023.53H1228.58ZM1168.45 4024.27C1166.16 4024.21 1163.88 4024.15 1161.59 4024.1C1161.05 4024.14 1160.44 4024.16 1159.77 4024.18C1158.23 4024.24 1157.16 4024.26 1156.76 4024.42C1155.95 4024.74 1159.74 4024.85 1162.73 4024.93C1164.35 4024.97 1168.06 4025.09 1168.76 4024.86C1169.02 4024.78 1167.93 4024.41 1167.34 4024.36L1168.43 4024.27H1168.45ZM1194.92 4030.91C1192.63 4030.85 1190.34 4030.79 1188.06 4030.74C1187.52 4030.78 1186.91 4030.8 1186.24 4030.82C1184.7 4030.88 1183.63 4030.9 1183.23 4031.06C1182.42 4031.38 1186.21 4031.49 1189.2 4031.57C1190.82 4031.61 1194.53 4031.73 1195.23 4031.5C1195.49 4031.42 1194.41 4031.05 1193.81 4031L1194.9 4030.91H1194.92ZM711.129 3994.99C708.839 3994.93 706.559 3994.87 704.269 3994.82C703.729 3994.86 703.119 3994.88 702.449 3994.9C700.909 3994.96 699.839 3994.98 699.439 3995.14C698.629 3995.46 702.419 3995.57 705.409 3995.65C707.029 3995.69 710.739 3995.81 711.439 3995.58C711.699 3995.5 710.609 3995.13 710.019 3995.08L711.109 3994.99H711.129ZM553.629 3995.96C551.339 3995.9 549.059 3995.84 546.769 3995.79C546.229 3995.83 545.619 3995.85 544.949 3995.87C543.409 3995.93 542.339 3995.95 541.939 3996.11C541.129 3996.43 544.919 3996.54 547.909 3996.62C549.529 3996.66 553.239 3996.78 553.939 3996.55C554.199 3996.47 553.119 3996.1 552.519 3996.05L553.609 3995.96H553.629ZM890.739 4006.78C889.599 4006.75 888.449 4006.72 887.309 4006.69C887.039 4006.71 886.739 4006.72 886.399 4006.73C885.629 4006.76 885.089 4006.77 884.899 4006.85C884.499 4007.01 886.389 4007.07 887.889 4007.11C888.699 4007.13 890.559 4007.19 890.909 4007.08C891.039 4007.04 890.499 4006.85 890.199 4006.83L890.749 4006.78H890.739ZM677.119 3997.74C675.979 3997.71 674.829 3997.68 673.689 3997.65C673.419 3997.67 673.119 3997.68 672.779 3997.69C672.009 3997.72 671.469 3997.73 671.279 3997.81C670.879 3997.97 672.769 3998.03 674.269 3998.07C675.079 3998.09 676.939 3998.15 677.289 3998.04C677.419 3998 676.879 3997.81 676.579 3997.79L677.129 3997.74H677.119ZM825.469 3995.88C826.589 3996.01 827.219 3996.05 828.879 3996.14C830.299 3996.22 830.899 3996.22 831.509 3996.19C832.279 3996.16 832.739 3996.07 831.089 3995.9C829.179 3995.71 827.869 3995.69 826.059 3995.59C826.029 3995.65 826.399 3995.72 827.159 3995.82L825.469 3995.87V3995.88ZM587.219 4001.96C584.219 4002.12 583.089 4002.15 582.289 4002.43C581.809 4002.6 581.379 4002.78 581.799 4002.95C582.539 4003.25 587.149 4003.52 590.649 4003.52C594.699 4003.52 597.119 4003.4 597.919 4003.05C598.249 4002.91 598.069 4002.71 597.419 4002.57C596.319 4002.34 593.069 4002.29 590.479 4002.24L587.219 4001.97V4001.96ZM1511.09 4007.4C1508.09 4007.56 1506.96 4007.59 1506.16 4007.87C1505.68 4008.04 1505.25 4008.22 1505.67 4008.39C1506.41 4008.69 1511.02 4008.96 1514.52 4008.96C1518.57 4008.96 1520.99 4008.84 1521.79 4008.49C1522.12 4008.35 1521.94 4008.15 1521.29 4008.01C1520.19 4007.78 1516.94 4007.73 1514.35 4007.68L1511.09 4007.41V4007.4ZM1203.19 4027.19C1200.19 4027.35 1199.06 4027.38 1198.26 4027.66C1197.78 4027.83 1197.35 4028.01 1197.77 4028.18C1198.51 4028.48 1203.12 4028.75 1206.62 4028.75C1210.67 4028.75 1213.09 4028.63 1213.89 4028.28C1214.22 4028.14 1214.04 4027.94 1213.39 4027.8C1212.29 4027.57 1209.04 4027.52 1206.45 4027.47L1203.19 4027.2V4027.19ZM961.699 4049.06C958.699 4049.22 957.569 4049.25 956.769 4049.53C956.289 4049.7 955.859 4049.88 956.279 4050.05C957.019 4050.35 961.629 4050.62 965.129 4050.62C969.179 4050.62 971.599 4050.5 972.399 4050.15C972.729 4050.01 972.549 4049.81 971.899 4049.67C970.799 4049.44 967.549 4049.39 964.959 4049.34L961.699 4049.07V4049.06Z" fill="#A4CF57"/>
<path d="M739.22 3790.63L726.01 3791.11L696.36 3791.27L657.03 3791.49L594.75 3791.83C594.75 3791.83 608.68 3781.82 616.18 3783.48C617.5 3783.77 618.26 3784.58 618.7 3785.44C619.33 3786.69 619.28 3788.03 619.28 3788.03C619.28 3788.03 619.7 3786.98 620.52 3785.65C621.82 3783.54 624.12 3780.71 627.36 3780.24C629.91 3779.87 631.18 3780.84 631.81 3781.95C632.49 3783.15 632.43 3784.49 632.43 3784.49C632.43 3784.49 634.24 3778.76 638.76 3772.42C644.91 3763.79 656.07 3754.06 674.51 3756.22C686.49 3757.63 692.95 3761.56 696.34 3765.93C696.38 3765.98 696.42 3766.02 696.45 3766.07C701.87 3773.19 699.23 3781.41 699.14 3781.71C699.25 3781.55 701.28 3778.67 705.42 3776.33C708.58 3774.54 712.97 3773.06 718.67 3773.35C732.02 3774.04 739.21 3790.62 739.21 3790.62L739.22 3790.63Z" fill="url(#paint2_linear_118_4438)"/>
<path style="mix-blend-mode:multiply" d="M714.189 3788.18L696.369 3791.27L690.299 3792.32C690.299 3792.32 674.259 3791.91 657.039 3791.48C637.209 3790.99 615.789 3790.47 615.479 3790.54C616.019 3790.69 599.539 3790.65 609.189 3790.45C618.839 3790.25 618.709 3785.44 618.709 3785.44C619.339 3786.69 619.289 3788.03 619.289 3788.03C619.289 3788.03 619.709 3786.98 620.529 3785.65C621.349 3786.22 622.439 3786.58 623.889 3786.62C632.169 3786.86 631.839 3782.18 631.819 3781.96C632.499 3783.15 632.439 3784.49 632.439 3784.49C632.439 3784.49 634.249 3778.76 638.769 3772.42C640.559 3776.81 645.099 3781 654.999 3783.29C681.809 3789.5 700.579 3771.83 696.459 3766.07C701.879 3773.19 699.239 3781.41 699.149 3781.71C699.259 3781.55 701.289 3778.67 705.429 3776.33C703.829 3777.86 702.789 3779.48 703.019 3781.06C703.839 3786.69 714.189 3788.17 714.189 3788.17V3788.18Z" fill="url(#paint3_linear_118_4438)"/>
<path d="M739.301 3790.64C743.721 3793.49 632.761 3811.34 642.101 3800.4C640.101 3796.75 593.681 3793.47 594.821 3791.84C595.961 3790.21 648.191 3783.52 649.491 3786.94C653.321 3797.06 720.051 3778.22 739.301 3790.64Z" fill="url(#paint4_linear_118_4438)"/>
<path d="M790.702 3804.5C786.902 3805.61 749.132 3809.61 748.012 3804.94C747.982 3804.81 752.292 3799.96 752.322 3799.82C752.332 3799.76 750.122 3805.29 752.462 3799.63C753.012 3798.52 757.602 3794.42 761.692 3794.75C766.212 3795.11 765.632 3798.84 765.632 3798.84C765.632 3798.84 769.072 3785.81 778.142 3787.04C786.302 3788.15 790.532 3796.48 791.302 3798.14C791.542 3798.38 791.452 3798.67 790.962 3799.01C785.552 3802.76 794.632 3803.36 790.722 3804.5H790.702Z" fill="url(#paint5_linear_118_4438)"/>
<path d="M790.702 3804.5C786.902 3805.61 749.132 3809.61 748.012 3804.94C749.542 3800.95 761.292 3798.08 764.102 3801.87C764.812 3802.83 763.422 3802.26 763.392 3802.32C763.552 3802.19 779.942 3795.25 791.282 3798.16C791.522 3798.4 791.432 3798.69 790.942 3799.03C785.532 3802.78 794.612 3803.38 790.702 3804.52V3804.5Z" fill="url(#paint6_linear_118_4438)"/>
<path d="M892.23 3695.92L875.46 3697.82L837.73 3701.03L787.67 3705.29L708.41 3712.03C708.41 3712.03 725.22 3699.03 734.92 3700.19C736.63 3700.39 737.67 3701.25 738.31 3702.2C739.23 3703.58 739.29 3705.14 739.29 3705.14C739.29 3705.14 739.73 3703.88 740.65 3702.26C742.1 3699.68 744.77 3696.19 748.86 3695.3C752.07 3694.61 753.78 3695.61 754.69 3696.83C754.69 3696.83 754.69 3696.83 754.69 3696.84C755.66 3698.15 755.72 3699.71 755.72 3699.71C755.72 3699.71 757.5 3692.89 762.66 3685.11C769.69 3674.51 783 3662.11 806.67 3662.73C822.05 3663.14 830.64 3667.03 835.36 3671.73C835.41 3671.78 835.47 3671.83 835.51 3671.89C843.06 3679.58 840.47 3689.35 840.38 3689.7C840.5 3689.51 842.83 3685.97 847.88 3682.84C851.74 3680.45 857.19 3678.29 864.47 3678.05C881.54 3677.49 892.22 3695.93 892.22 3695.93L892.23 3695.92Z" fill="url(#paint7_linear_118_4438)"/>
<path style="mix-blend-mode:multiply" d="M860.131 3695.63L837.721 3701.02L830.081 3702.86C830.081 3702.86 809.631 3704.02 787.661 3705.28C762.361 3706.73 735.061 3708.32 734.661 3708.42C735.361 3708.53 714.381 3710.18 726.651 3708.96C738.921 3707.74 738.311 3702.2 738.311 3702.2C739.231 3703.58 739.291 3705.14 739.291 3705.14C739.291 3705.14 739.731 3703.88 740.651 3702.26C741.741 3702.84 743.171 3703.14 745.021 3703.04C755.581 3702.47 754.731 3697.1 754.691 3696.84C755.661 3698.15 755.721 3699.71 755.721 3699.71C755.721 3699.71 757.501 3692.89 762.661 3685.11C765.341 3690.01 771.511 3694.39 784.331 3696.03C819.031 3700.49 841.291 3678.14 835.521 3671.89C843.071 3679.58 840.481 3689.35 840.391 3689.7C840.511 3689.51 842.841 3685.97 847.891 3682.84C845.991 3684.77 844.821 3686.76 845.261 3688.55C846.821 3694.98 860.141 3695.64 860.141 3695.64L860.131 3695.63Z" fill="url(#paint8_linear_118_4438)"/>
<path d="M892.341 3695.92C898.231 3698.77 758.621 3730.71 769.501 3717.11C766.611 3713.1 707.221 3714.02 708.521 3712.02C709.821 3710.02 775.701 3696.96 777.661 3700.78C783.471 3712.09 866.691 3683.51 892.341 3695.91V3695.92Z" fill="url(#paint9_linear_118_4438)"/>
<path d="M959.049 3706.71C954.309 3708.38 906.609 3716.85 904.739 3711.56C904.689 3711.41 909.729 3705.37 909.749 3705.2C909.749 3705.12 907.459 3711.75 909.909 3704.96C910.499 3703.62 915.979 3698.41 921.209 3698.38C926.999 3698.34 926.599 3702.71 926.599 3702.71C926.599 3702.71 929.769 3687.29 941.429 3687.79C951.919 3688.24 958.079 3697.45 959.209 3699.29C959.539 3699.55 959.449 3699.89 958.859 3700.33C952.309 3705.22 963.929 3704.98 959.059 3706.7L959.049 3706.71Z" fill="url(#paint10_linear_118_4438)"/>
<path d="M959.048 3706.71C954.308 3708.38 906.608 3716.85 904.738 3711.56C906.318 3706.79 921.008 3702.27 924.938 3706.37C925.928 3707.4 924.108 3706.88 924.078 3706.96C924.268 3706.8 944.498 3697.09 959.208 3699.3C959.538 3699.56 959.448 3699.9 958.858 3700.34C952.308 3705.23 963.928 3704.99 959.058 3706.71H959.048Z" fill="url(#paint11_linear_118_4438)"/>
<path d="M1658.99 3770.43L1638.45 3770.74L1592.38 3770.16L1531.26 3769.39L1434.48 3768.16C1434.48 3768.16 1456.37 3754.41 1467.99 3756.97C1470.03 3757.42 1471.19 3758.58 1471.85 3759.81C1472.8 3761.59 1472.69 3763.48 1472.69 3763.48C1472.69 3763.48 1473.37 3762.01 1474.67 3760.15C1476.74 3757.2 1480.38 3753.28 1485.43 3752.7C1489.4 3752.24 1491.35 3753.65 1492.31 3755.24V3755.25C1493.33 3756.95 1493.21 3758.84 1493.21 3758.84C1493.21 3758.84 1496.17 3750.79 1503.35 3741.98C1513.12 3729.97 1530.71 3716.54 1559.3 3720.1C1577.88 3722.41 1587.82 3728.14 1592.98 3734.4C1593.04 3734.47 1593.1 3734.54 1593.15 3734.61C1601.39 3744.81 1597.09 3756.34 1596.94 3756.76C1597.11 3756.54 1600.35 3752.53 1606.84 3749.34C1611.8 3746.9 1618.66 3744.93 1627.5 3745.5C1648.23 3746.85 1658.99 3770.44 1658.99 3770.44V3770.43Z" fill="url(#paint12_linear_118_4438)"/>
<path style="mix-blend-mode:multiply" d="M1620.16 3766.28L1592.39 3770.15L1582.93 3771.47C1582.93 3771.47 1558.02 3770.45 1531.27 3769.38C1500.46 3768.14 1467.21 3766.82 1466.71 3766.91C1467.54 3767.13 1441.94 3766.63 1456.94 3766.61C1471.94 3766.59 1471.86 3759.8 1471.86 3759.8C1472.81 3761.58 1472.7 3763.47 1472.7 3763.47C1472.7 3763.47 1473.38 3762 1474.68 3760.14C1475.94 3760.97 1477.63 3761.51 1479.88 3761.61C1492.74 3762.17 1492.35 3755.56 1492.32 3755.25C1493.34 3756.95 1493.22 3758.84 1493.22 3758.84C1493.22 3758.84 1496.18 3750.79 1503.36 3741.98C1499.59 3747.41 1491.42 3754.11 1506.74 3757.62C1548.24 3767.13 1599.41 3742.85 1593.16 3734.61C1601.4 3744.81 1597.1 3756.34 1596.95 3756.76C1597.12 3756.54 1600.36 3752.53 1606.85 3749.34C1604.32 3751.45 1602.67 3753.72 1602.98 3755.95C1604.11 3763.92 1620.16 3766.3 1620.16 3766.3V3766.28Z" fill="url(#paint13_linear_118_4438)"/>
<path d="M1659.12 3770.45C1665.92 3774.6 1510.35 3778.76 1507.49 3773.47C1504.63 3768.18 1432.79 3770.44 1434.61 3768.18C1436.42 3765.92 1514.98 3759.21 1519.27 3762.19C1523.56 3765.17 1629.53 3752.39 1659.12 3770.45Z" fill="url(#paint14_linear_118_4438)"/>
<path d="M1685.48 3768.59C1670.84 3769.37 1673.33 3764.26 1681.66 3763.84C1683.99 3752.94 1700.11 3749.68 1722.09 3759.75C1741.78 3768.76 1715.16 3767.01 1685.48 3768.59Z" fill="url(#paint15_linear_118_4438)"/>
<path d="M1222.09 3711.65C1222.09 3711.65 1204.34 3719.15 1208.62 3724.78C1215.52 3724.78 1232.48 3723.65 1232.32 3723.41C1232.15 3723.18 1222.1 3711.64 1222.1 3711.64L1222.09 3711.65Z" fill="#ECF8FE"/>
<path d="M1134.46 3739.81C1133.73 3739.82 1132.99 3739.82 1132.26 3739.81C1131.79 3739.81 1131.32 3739.79 1130.84 3739.77C1120.5 3739.33 1110.65 3736.21 1102.97 3732.93C1093.7 3728.97 1087.59 3724.79 1087.59 3724.79C1087.59 3724.79 1087.9 3722.56 1088.81 3720.17C1088.83 3720.13 1088.84 3720.09 1088.85 3720.06C1089.84 3717.52 1091.53 3714.85 1094.27 3714.5C1096.34 3714.24 1098.29 3714.64 1099.9 3715.23C1102.46 3716.17 1104.17 3717.58 1104.17 3717.58C1104.17 3717.58 1104.39 3716.58 1105 3715.04C1106.98 3710 1113.09 3699.23 1129.16 3699.1C1139.19 3699.02 1146.53 3705.41 1151.05 3711.05C1154.61 3715.49 1156.42 3719.47 1156.42 3719.47C1156.42 3719.47 1158.67 3739.34 1134.44 3739.83L1134.46 3739.81Z" fill="url(#paint16_linear_118_4438)"/>
<path d="M1134.46 3739.81C1133.73 3739.82 1132.99 3739.82 1132.26 3739.81C1131.92 3739.68 1131.44 3739.68 1130.84 3739.77C1126.77 3740.38 1117.66 3745.41 1117.22 3745.03C1116.8 3744.67 1109.88 3738.85 1102.97 3732.93C1100.84 3731.1 1098.71 3729.26 1096.77 3727.57C1094.38 3725.48 1092.29 3723.62 1090.85 3722.27C1089.7 3721.2 1088.97 3720.45 1088.82 3720.17C1088.78 3720.09 1088.79 3720.05 1088.86 3720.06C1088.86 3720.06 1092.7 3720.87 1098.45 3721.74C1102.58 3720.12 1101.96 3716.21 1099.91 3715.23C1102.47 3716.16 1104.18 3717.57 1104.18 3717.57C1104.18 3717.57 1104.4 3716.57 1105.01 3715.03C1108.25 3718.42 1113.68 3722.98 1120.11 3723.83C1139.13 3727.47 1142.19 3723 1147.1 3718.08C1149.34 3715.84 1150.55 3713.44 1151.06 3711.04C1154.62 3715.48 1156.43 3719.46 1156.43 3719.46C1156.43 3719.46 1158.68 3739.33 1134.45 3739.82L1134.46 3739.81Z" fill="url(#paint17_linear_118_4438)"/>
<path d="M1344.39 3738.4L1316.38 3739.58L1200.74 3744.44L1101.29 3748.62L1072.24 3741.58L1066.21 3740.12C1066.21 3740.12 1067.39 3736.05 1070.3 3731.56C1074 3725.87 1080.48 3719.53 1090.89 3719.95C1101.08 3720.37 1108.12 3723.74 1112.4 3726.71C1115.84 3729.09 1117.5 3731.22 1117.6 3731.35C1117.57 3731.28 1117.21 3730.35 1117.53 3729.58C1117.77 3728.99 1118.4 3728.5 1119.87 3728.55C1121.92 3728.61 1123.42 3730.04 1124.3 3731.2C1124.87 3731.95 1125.18 3732.58 1125.22 3732.67C1125.13 3732.24 1122.33 3718.06 1130.13 3706.18V3706.16H1130.14C1135.87 3697.44 1147.3 3689.98 1169.69 3690.08C1188.75 3690.17 1203.22 3694.83 1213.95 3700.79C1233.3 3711.53 1240.49 3726.5 1240.49 3726.5C1240.49 3726.5 1240.93 3725.36 1241.8 3723.95C1243.32 3721.46 1246.15 3718.15 1250.21 3718.7C1253.99 3719.21 1256.56 3720.84 1258.04 3722.09C1259.03 3722.93 1259.52 3723.59 1259.56 3723.64C1259.54 3723.5 1259.03 3719.67 1260.5 3715.52C1262.4 3710.14 1267.62 3704.24 1281.5 3705.13C1291.43 3705.76 1299.18 3709.18 1304.89 3713.05C1312.39 3718.12 1316.39 3723.98 1317.27 3725.35C1317.38 3725.53 1317.44 3725.63 1317.45 3725.65C1317.45 3725.62 1317.4 3725.4 1317.5 3725.12C1317.63 3724.75 1318 3724.28 1319.02 3724.03C1319.91 3723.81 1321.28 3723.77 1323.41 3724.09C1324.63 3724.28 1326.12 3724.89 1327.73 3725.76C1328.76 3726.32 1329.85 3726.98 1330.95 3727.71C1335.87 3730.96 1341.08 3735.47 1343.29 3737.44C1343.98 3738.06 1344.38 3738.43 1344.38 3738.43L1344.39 3738.4Z" fill="url(#paint18_linear_118_4438)"/>
<path d="M1261.86 3752.73C1261.86 3752.73 1265.09 3754.12 1268.32 3756.07C1268.18 3756.88 1266.28 3757.67 1260.96 3758.22C1214.09 3763.06 1058.6 3752.62 1045.79 3751.08C1045.47 3751.03 1045.23 3751 1045.09 3750.97C1044.96 3750.97 1044.89 3750.94 1044.85 3750.92C1042.39 3749.99 1078.01 3750.99 1077.8 3749.71C1077.59 3748.45 1071.54 3748.13 1066.25 3741.3C1065.91 3740.87 1065.91 3740.45 1066.21 3740.09C1066.21 3740.09 1066.51 3739.08 1067.16 3737.5C1067.81 3735.92 1068.84 3733.78 1070.29 3731.53H1070.3C1070.3 3731.53 1067.86 3735.55 1080.18 3736.38C1081.81 3736.5 1087.73 3736.55 1093.55 3736.55C1093.61 3736.55 1093.68 3736.55 1093.75 3736.55C1099.15 3736.55 1104.44 3736.45 1106.13 3736.3H1106.14C1106.24 3736.28 1106.34 3736.27 1106.41 3736.26C1108.36 3735.99 1110.02 3735.51 1111.25 3734.78C1115.5 3732.24 1114.57 3729.2 1112.38 3726.69C1115.82 3729.08 1117.48 3731.19 1117.59 3731.33C1117.57 3731.26 1117.21 3730.33 1117.52 3729.55C1117.52 3729.66 1117.29 3734.99 1122.08 3734.68C1124.04 3734.55 1124.47 3733 1124.29 3731.17C1124.78 3731.83 1125.08 3732.39 1125.18 3732.58C1124.99 3731.5 1122.51 3717.73 1130.11 3706.15C1129.84 3706.77 1124.14 3720.13 1159 3723.04C1194.68 3726.01 1222.05 3713.78 1213.94 3700.76C1233.28 3711.51 1240.47 3726.47 1240.47 3726.47C1240.47 3726.47 1240.87 3725.45 1241.66 3724.15C1241.45 3724.53 1241.39 3725.31 1244.48 3725.75C1253.83 3727.11 1258.2 3722.29 1258.05 3722.06C1259.04 3722.9 1259.53 3723.55 1259.55 3723.6C1259.53 3723.46 1259.03 3719.62 1260.5 3715.48C1260.44 3715.77 1259.09 3724.06 1276.59 3725.63C1294.41 3727.23 1310.06 3720.66 1304.89 3713.01C1308.63 3715.54 1311.51 3718.27 1313.56 3720.54C1315.61 3722.81 1316.82 3724.61 1317.27 3725.31C1316.3 3726.36 1316.06 3727.77 1320.37 3728.52C1327.77 3729.8 1327.74 3725.72 1327.74 3725.72L1330.96 3727.66C1335.88 3730.9 1341.1 3735.43 1343.31 3737.38L1343.14 3737.4H1343.07C1343.26 3737.52 1343.44 3737.65 1343.61 3737.76C1362.16 3750.83 1261.87 3752.71 1261.87 3752.71L1261.86 3752.73Z" fill="url(#paint19_linear_118_4438)"/>
<path d="M1262 3752.76C1262 3752.76 1268.64 3754.45 1268.32 3756.07C1268.18 3756.88 1266.28 3757.67 1260.96 3758.22C1214.09 3763.06 1058.6 3752.62 1045.79 3751.08C1045.47 3751.03 1045.23 3751 1045.09 3750.97C1045.03 3750.95 1045.01 3750.95 1044.98 3750.93C1042.52 3750.02 1078.14 3751.01 1077.93 3749.74C1077.74 3748.48 1071.68 3748.16 1066.38 3741.33C1064.07 3738.35 1077.47 3737.05 1093.57 3736.55C1093.63 3736.55 1093.7 3736.55 1093.77 3736.55C1097.8 3736.43 1102 3736.35 1106.15 3736.3H1106.16C1123.44 3736.12 1140.07 3736.55 1141.46 3736.56C1144.5 3736.59 1140.63 3733.95 1140 3732.62C1139.37 3731.27 1154.64 3733.67 1152.03 3731.24C1149.43 3728.82 1208.47 3724.68 1227.51 3727.98C1227.51 3727.98 1323.2 3724.8 1343.15 3737.4C1343.35 3737.53 1343.56 3737.67 1343.74 3737.8C1362.31 3750.86 1262.01 3752.74 1262.01 3752.74L1262 3752.76Z" fill="url(#paint20_linear_118_4438)"/>
<path d="M1146.95 3731.68C1142.08 3731.32 1135.54 3726.75 1142.21 3725.77C1148.89 3724.79 1152.5 3732.1 1146.95 3731.68Z" fill="url(#paint21_linear_118_4438)"/>
<path d="M396.09 3717.12C395.36 3717.16 394.62 3717.18 393.89 3717.18C393.42 3717.18 392.95 3717.18 392.47 3717.18C382.12 3717.03 372.19 3714.19 364.42 3711.13C355.04 3707.44 348.82 3703.42 348.82 3703.42C348.82 3703.42 349.06 3701.18 349.91 3698.77C349.92 3698.73 349.94 3698.69 349.95 3698.65C350.87 3696.09 352.48 3693.36 355.21 3692.94C357.27 3692.62 359.23 3692.97 360.86 3693.51C363.45 3694.37 365.2 3695.73 365.2 3695.73C365.2 3695.73 365.39 3694.72 365.96 3693.17C367.8 3688.08 373.61 3677.14 389.66 3676.56C399.68 3676.2 407.2 3682.38 411.87 3687.89C415.55 3692.23 417.48 3696.16 417.48 3696.16C417.48 3696.16 420.29 3715.96 396.08 3717.13L396.09 3717.12Z" fill="url(#paint22_linear_118_4438)"/>
<path d="M396.09 3717.12C395.36 3717.16 394.62 3717.18 393.89 3717.18C393.55 3717.06 393.06 3717.07 392.47 3717.18C388.42 3717.9 379.45 3723.19 379.01 3722.83C378.58 3722.48 371.5 3716.86 364.43 3711.13C362.25 3709.36 360.07 3707.58 358.08 3705.94C355.64 3703.92 353.49 3702.12 352.01 3700.81C350.83 3699.77 350.08 3699.04 349.93 3698.77C349.88 3698.69 349.9 3698.65 349.97 3698.65C349.97 3698.65 353.83 3699.35 359.6 3700.06C363.68 3698.32 362.95 3694.43 360.88 3693.51C363.47 3694.37 365.22 3695.73 365.22 3695.73C365.22 3695.73 365.41 3694.72 365.98 3693.17C369.31 3696.47 374.87 3700.87 381.32 3701.54C400.43 3704.64 403.37 3700.09 408.14 3695.03C410.32 3692.72 411.46 3690.3 411.9 3687.88C415.58 3692.22 417.51 3696.15 417.51 3696.15C417.51 3696.15 420.32 3715.95 396.11 3717.12H396.09Z" fill="url(#paint23_linear_118_4438)"/>
<path d="M605.889 3709.8L577.919 3711.76L462.459 3719.87L363.159 3726.85L333.929 3720.63L327.859 3719.34C327.859 3719.34 328.919 3715.24 331.709 3710.67C335.239 3704.88 341.539 3698.36 351.959 3698.49C362.159 3698.62 369.289 3701.79 373.659 3704.64C377.159 3706.93 378.889 3709 378.989 3709.13C378.959 3709.06 378.579 3708.14 378.869 3707.36C379.089 3706.77 379.709 3706.26 381.179 3706.26C383.229 3706.26 384.769 3707.65 385.679 3708.79C386.269 3709.52 386.599 3710.14 386.639 3710.23C386.539 3709.8 383.339 3695.71 390.799 3683.61V3683.59H390.809C396.289 3674.72 407.499 3666.93 429.889 3666.4C448.939 3665.95 463.539 3670.2 474.429 3675.86C494.069 3686.05 501.689 3700.81 501.689 3700.81C501.689 3700.81 502.099 3699.66 502.919 3698.22C504.369 3695.69 507.099 3692.3 511.179 3692.73C514.969 3693.13 517.589 3694.69 519.099 3695.9C520.109 3696.71 520.619 3697.36 520.659 3697.41C520.639 3697.28 520.019 3693.46 521.369 3689.27C523.119 3683.84 528.169 3677.8 542.069 3678.29C552.019 3678.64 559.849 3681.84 565.679 3685.55C573.319 3690.41 577.479 3696.15 578.399 3697.5C578.519 3697.67 578.579 3697.77 578.589 3697.79C578.589 3697.76 578.539 3697.54 578.619 3697.26C578.739 3696.88 579.089 3696.41 580.099 3696.13C580.979 3695.89 582.349 3695.8 584.489 3696.07C585.709 3696.22 587.219 3696.79 588.859 3697.62C589.909 3698.15 591.009 3698.78 592.129 3699.47C597.139 3702.58 602.469 3706.94 604.739 3708.85C605.449 3709.45 605.859 3709.8 605.859 3709.8H605.889Z" fill="url(#paint24_linear_118_4438)"/>
<path d="M523.799 3726.45C523.799 3726.45 527.069 3727.75 530.349 3729.61C530.229 3730.43 528.349 3731.26 523.049 3731.97C476.339 3738.13 320.609 3732.08 307.759 3730.9C307.439 3730.86 307.199 3730.83 307.059 3730.81C306.929 3730.81 306.859 3730.79 306.819 3730.77C304.339 3729.91 339.959 3729.9 339.719 3728.63C339.479 3727.37 333.419 3727.22 327.939 3720.55C327.589 3720.12 327.579 3719.71 327.869 3719.34C327.869 3719.34 328.139 3718.32 328.749 3716.72C329.359 3715.12 330.329 3712.96 331.709 3710.67H331.719C331.719 3710.67 329.389 3714.76 341.729 3715.23C343.369 3715.3 349.279 3715.19 355.099 3715.02C355.159 3715.02 355.229 3715.02 355.299 3715.02C360.699 3714.86 365.979 3714.62 367.669 3714.43H367.679C367.779 3714.41 367.879 3714.4 367.949 3714.39C369.889 3714.06 371.539 3713.54 372.739 3712.77C376.909 3710.11 375.899 3707.09 373.639 3704.65C377.149 3706.94 378.869 3709.01 378.969 3709.14C378.939 3709.07 378.559 3708.15 378.849 3707.37C378.849 3707.48 378.769 3712.81 383.549 3712.37C385.509 3712.19 385.889 3710.62 385.659 3708.8C386.169 3709.44 386.489 3710 386.589 3710.18C386.369 3709.11 383.499 3695.41 390.769 3683.62C390.519 3684.25 385.189 3697.76 420.119 3699.69C455.869 3701.65 482.879 3688.65 474.409 3675.87C494.049 3686.07 501.649 3700.83 501.649 3700.83C501.649 3700.83 502.019 3699.8 502.769 3698.47C502.569 3698.86 502.539 3699.63 505.629 3699.99C515.019 3701.09 519.249 3696.14 519.089 3695.92C520.099 3696.73 520.609 3697.37 520.639 3697.42C520.619 3697.28 520.009 3693.46 521.359 3689.28C521.299 3689.57 520.189 3697.9 537.729 3698.97C555.589 3700.07 571.049 3693.06 565.659 3685.56C569.469 3687.99 572.429 3690.63 574.539 3692.85C576.649 3695.06 577.919 3696.83 578.379 3697.51C577.439 3698.59 577.239 3700.01 581.569 3700.63C588.999 3701.7 588.859 3697.62 588.859 3697.62L592.129 3699.47C597.139 3702.57 602.479 3706.95 604.749 3708.84L604.579 3708.86H604.509C604.699 3708.98 604.879 3709.1 605.059 3709.21C623.979 3721.76 523.769 3726.46 523.769 3726.46L523.799 3726.45Z" fill="url(#paint25_linear_118_4438)"/>
<path d="M523.938 3726.47C523.938 3726.47 530.618 3727.98 530.348 3729.61C530.228 3730.43 528.348 3731.26 523.048 3731.97C476.338 3738.13 320.608 3732.08 307.758 3730.9C307.438 3730.86 307.198 3730.83 307.058 3730.81C306.998 3730.79 306.978 3730.79 306.948 3730.78C304.468 3729.94 340.088 3729.93 339.848 3728.66C339.618 3727.41 333.558 3727.26 328.068 3720.58C325.678 3717.66 339.028 3715.99 355.108 3715.04C355.168 3715.04 355.238 3715.04 355.308 3715.04C359.338 3714.8 363.528 3714.6 367.678 3714.45H367.688C384.958 3713.79 401.588 3713.74 402.978 3713.72C406.018 3713.67 402.068 3711.14 401.408 3709.82C400.748 3708.49 416.078 3710.46 413.388 3708.11C410.718 3705.76 469.618 3699.96 488.748 3702.73C488.748 3702.73 584.308 3696.85 604.608 3708.89C604.818 3709.01 605.018 3709.15 605.218 3709.27C624.148 3721.8 523.948 3726.5 523.948 3726.5L523.938 3726.47Z" fill="url(#paint26_linear_118_4438)"/>
<path d="M408.337 3708.65C403.457 3708.43 396.787 3704.04 403.437 3702.87C410.087 3701.7 413.897 3708.91 408.337 3708.65Z" fill="url(#paint27_linear_118_4438)"/>
<defs>
<linearGradient id="paint0_linear_118_4438" x1="952.049" y1="4176.67" x2="952.049" y2="3606.86" gradientUnits="userSpaceOnUse">
<stop offset="0.22" stop-color="#E6F7FE"/>
<stop offset="0.46" stop-color="#99DEF9"/>
<stop offset="0.51" stop-color="#90DBF8"/>
<stop offset="0.59" stop-color="#78D3F6"/>
<stop offset="0.69" stop-color="#52C7F4"/>
<stop offset="0.8" stop-color="#1DB7F0"/>
<stop offset="0.86" stop-color="#00AEEF"/>
</linearGradient>
<linearGradient id="paint1_linear_118_4438" x1="980.487" y1="4340.57" x2="980.487" y2="4080.27" gradientUnits="userSpaceOnUse">
<stop offset="0.23" stop-color="#00A651"/>
<stop offset="0.61" stop-color="#A4CF57"/>
<stop offset="1" stop-color="#BBDB81"/>
</linearGradient>
<linearGradient id="paint2_linear_118_4438" x1="669.832" y1="3804.77" x2="658.199" y2="3741.46" gradientUnits="userSpaceOnUse">
<stop stop-color="#D7F0FC"/>
<stop offset="0.12" stop-color="#E2F4FC"/>
<stop offset="0.36" stop-color="#F2FAFE"/>
<stop offset="0.63" stop-color="#FCFDFE"/>
<stop offset="0.99" stop-color="white"/>
</linearGradient>
<linearGradient id="paint3_linear_118_4438" x1="647.922" y1="3818.05" x2="689.995" y2="3751.54" gradientUnits="userSpaceOnUse">
<stop stop-color="#D7F0FC"/>
<stop offset="0.37" stop-color="#DEF2FC"/>
<stop offset="0.99" stop-color="#E1F4FD"/>
</linearGradient>
<linearGradient id="paint4_linear_118_4438" x1="667.581" y1="3798.81" x2="665.47" y2="3615" gradientUnits="userSpaceOnUse">
<stop stop-color="#A5D9F1"/>
<stop offset="0.05" stop-color="#AFDDF2"/>
<stop offset="0.2" stop-color="#CCE9F7"/>
<stop offset="0.36" stop-color="#E2F3FA"/>
<stop offset="0.53" stop-color="#F2F9FD"/>
<stop offset="0.73" stop-color="#FCFDFE"/>
<stop offset="0.99" stop-color="white"/>
</linearGradient>
<linearGradient id="paint5_linear_118_4438" x1="770.732" y1="3805.18" x2="766.528" y2="3785.91" gradientUnits="userSpaceOnUse">
<stop stop-color="#D7F0FC"/>
<stop offset="0.12" stop-color="#E2F4FC"/>
<stop offset="0.36" stop-color="#F2FAFE"/>
<stop offset="0.63" stop-color="#FCFDFE"/>
<stop offset="0.99" stop-color="white"/>
</linearGradient>
<linearGradient id="paint6_linear_118_4438" x1="770.154" y1="3797.48" x2="768.035" y2="3613.02" gradientUnits="userSpaceOnUse">
<stop stop-color="#A5D9F1"/>
<stop offset="0.05" stop-color="#AFDDF2"/>
<stop offset="0.2" stop-color="#CCE9F7"/>
<stop offset="0.36" stop-color="#E2F3FA"/>
<stop offset="0.53" stop-color="#F2F9FD"/>
<stop offset="0.73" stop-color="#FCFDFE"/>
<stop offset="0.99" stop-color="white"/>
</linearGradient>
<linearGradient id="paint7_linear_118_4438" x1="804.85" y1="3720.88" x2="784.96" y2="3646.6" gradientUnits="userSpaceOnUse">
<stop stop-color="#D7F0FC"/>
<stop offset="0.12" stop-color="#E2F4FC"/>
<stop offset="0.36" stop-color="#F2FAFE"/>
<stop offset="0.63" stop-color="#FCFDFE"/>
<stop offset="0.99" stop-color="white"/>
</linearGradient>
<linearGradient id="paint8_linear_118_4438" x1="782.562" y1="3740.23" x2="828.061" y2="3653.7" gradientUnits="userSpaceOnUse">
<stop stop-color="#D7F0FC"/>
<stop offset="0.37" stop-color="#DEF2FC"/>
<stop offset="0.99" stop-color="#E1F4FD"/>
</linearGradient>
<linearGradient id="paint9_linear_118_4438" x1="801.291" y1="3712.65" x2="781.841" y2="3500.12" gradientUnits="userSpaceOnUse">
<stop stop-color="#A5D9F1"/>
<stop offset="0.05" stop-color="#AFDDF2"/>
<stop offset="0.2" stop-color="#CCE9F7"/>
<stop offset="0.36" stop-color="#E2F3FA"/>
<stop offset="0.53" stop-color="#F2F9FD"/>
<stop offset="0.73" stop-color="#FCFDFE"/>
<stop offset="0.99" stop-color="white"/>
</linearGradient>
<linearGradient id="paint10_linear_118_4438" x1="933.293" y1="3709.93" x2="926.539" y2="3687.68" gradientUnits="userSpaceOnUse">
<stop stop-color="#D7F0FC"/>
<stop offset="0.12" stop-color="#E2F4FC"/>
<stop offset="0.36" stop-color="#F2FAFE"/>
<stop offset="0.63" stop-color="#FCFDFE"/>
<stop offset="0.99" stop-color="white"/>
</linearGradient>
<linearGradient id="paint11_linear_118_4438" x1="931.778" y1="3700.71" x2="912.328" y2="3488.18" gradientUnits="userSpaceOnUse">
<stop stop-color="#A5D9F1"/>
<stop offset="0.05" stop-color="#AFDDF2"/>
<stop offset="0.2" stop-color="#CCE9F7"/>
<stop offset="0.36" stop-color="#E2F3FA"/>
<stop offset="0.53" stop-color="#F2F9FD"/>
<stop offset="0.73" stop-color="#FCFDFE"/>
<stop offset="0.99" stop-color="white"/>
</linearGradient>
<linearGradient id="paint12_linear_118_4438" x1="1546.56" y1="3772.14" x2="1543.02" y2="3698.64" gradientUnits="userSpaceOnUse">
<stop stop-color="#D7F0FC"/>
<stop offset="0.12" stop-color="#E2F4FC"/>
<stop offset="0.36" stop-color="#F2FAFE"/>
<stop offset="0.63" stop-color="#FCFDFE"/>
<stop offset="0.99" stop-color="white"/>
</linearGradient>
<linearGradient id="paint13_linear_118_4438" x1="1520.86" y1="3811.13" x2="1586.22" y2="3711.74" gradientUnits="userSpaceOnUse">
<stop stop-color="#D7F0FC"/>
<stop offset="0.37" stop-color="#DEF2FC"/>
<stop offset="0.99" stop-color="#E1F4FD"/>
</linearGradient>
<linearGradient id="paint14_linear_118_4438" x1="1544.25" y1="3810.37" x2="1539.04" y2="3898.96" gradientUnits="userSpaceOnUse">
<stop stop-color="#A5D9F1"/>
<stop offset="0.05" stop-color="#AFDDF2"/>
<stop offset="0.2" stop-color="#CCE9F7"/>
<stop offset="0.36" stop-color="#E2F3FA"/>
<stop offset="0.53" stop-color="#F2F9FD"/>
<stop offset="0.73" stop-color="#FCFDFE"/>
<stop offset="0.99" stop-color="white"/>
</linearGradient>
<linearGradient id="paint15_linear_118_4438" x1="1697.5" y1="3706.26" x2="1771.1" y2="3949.52" gradientUnits="userSpaceOnUse">
<stop stop-color="#D7F0FC"/>
<stop offset="0.12" stop-color="#E2F4FC"/>
<stop offset="0.36" stop-color="#F2FAFE"/>
<stop offset="0.63" stop-color="#FCFDFE"/>
<stop offset="0.99" stop-color="white"/>
</linearGradient>
<linearGradient id="paint16_linear_118_4438" x1="1122.4" y1="3732.68" x2="1121.53" y2="3704.4" gradientUnits="userSpaceOnUse">
<stop stop-color="#D7F0FC"/>
<stop offset="0.12" stop-color="#E2F4FC"/>
<stop offset="0.36" stop-color="#F2FAFE"/>
<stop offset="0.63" stop-color="#FCFDFE"/>
<stop offset="0.99" stop-color="white"/>
</linearGradient>
<linearGradient id="paint17_linear_118_4438" x1="1122.43" y1="3724.78" x2="1124.34" y2="3694.78" gradientUnits="userSpaceOnUse">
<stop stop-color="#D7F0FC"/>
<stop offset="0.37" stop-color="#DEF2FC"/>
<stop offset="0.99" stop-color="#E1F4FD"/>
</linearGradient>
<linearGradient id="paint18_linear_118_4438" x1="1205.05" y1="3730.15" x2="1204.18" y2="3701.88" gradientUnits="userSpaceOnUse">
<stop stop-color="#D7F0FC"/>
<stop offset="0.12" stop-color="#E2F4FC"/>
<stop offset="0.36" stop-color="#F2FAFE"/>
<stop offset="0.63" stop-color="#FCFDFE"/>
<stop offset="0.99" stop-color="white"/>
</linearGradient>
<linearGradient id="paint19_linear_118_4438" x1="1196.48" y1="3728.13" x2="1198.3" y2="3699.5" gradientUnits="userSpaceOnUse">
<stop stop-color="#D7F0FC"/>
<stop offset="0.37" stop-color="#DEF2FC"/>
<stop offset="0.99" stop-color="#E1F4FD"/>
</linearGradient>
<linearGradient id="paint20_linear_118_4438" x1="1192.98" y1="3781.98" x2="1206.66" y2="3584.63" gradientUnits="userSpaceOnUse">
<stop stop-color="#80C3E0"/>
<stop offset="0.14" stop-color="#93CCE4"/>
<stop offset="0.73" stop-color="#E0F0F7"/>
<stop offset="0.99" stop-color="white"/>
</linearGradient>
<linearGradient id="paint21_linear_118_4438" x1="1134.99" y1="3750.27" x2="1163.13" y2="3687.19" gradientUnits="userSpaceOnUse">
<stop stop-color="#D7F0FC"/>
<stop offset="0.12" stop-color="#E2F4FC"/>
<stop offset="0.36" stop-color="#F2FAFE"/>
<stop offset="0.63" stop-color="#FCFDFE"/>
<stop offset="0.99" stop-color="white"/>
</linearGradient>
<linearGradient id="paint22_linear_118_4438" x1="383.45" y1="3710.35" x2="381.786" y2="3682.11" gradientUnits="userSpaceOnUse">
<stop stop-color="#D7F0FC"/>
<stop offset="0.12" stop-color="#E2F4FC"/>
<stop offset="0.36" stop-color="#F2FAFE"/>
<stop offset="0.63" stop-color="#FCFDFE"/>
<stop offset="0.99" stop-color="white"/>
</linearGradient>
<linearGradient id="paint23_linear_118_4438" x1="383.263" y1="3702.45" x2="384.33" y2="3672.4" gradientUnits="userSpaceOnUse">
<stop stop-color="#D7F0FC"/>
<stop offset="0.37" stop-color="#DEF2FC"/>
<stop offset="0.99" stop-color="#E1F4FD"/>
</linearGradient>
<linearGradient id="paint24_linear_118_4438" x1="465.998" y1="3705.49" x2="464.344" y2="3677.25" gradientUnits="userSpaceOnUse">
<stop stop-color="#D7F0FC"/>
<stop offset="0.12" stop-color="#E2F4FC"/>
<stop offset="0.36" stop-color="#F2FAFE"/>
<stop offset="0.63" stop-color="#FCFDFE"/>
<stop offset="0.99" stop-color="white"/>
</linearGradient>
<linearGradient id="paint25_linear_118_4438" x1="457.377" y1="3703.72" x2="458.394" y2="3675.04" gradientUnits="userSpaceOnUse">
<stop stop-color="#D7F0FC"/>
<stop offset="0.37" stop-color="#DEF2FC"/>
<stop offset="0.99" stop-color="#E1F4FD"/>
</linearGradient>
<linearGradient id="paint26_linear_118_4438" x1="455.381" y1="3757.64" x2="463.516" y2="3559.99" gradientUnits="userSpaceOnUse">
<stop stop-color="#80C3E0"/>
<stop offset="0.14" stop-color="#93CCE4"/>
<stop offset="0.73" stop-color="#E0F0F7"/>
<stop offset="0.99" stop-color="white"/>
</linearGradient>
<linearGradient id="paint27_linear_118_4438" x1="396.521" y1="3727.57" x2="422.888" y2="3663.73" gradientUnits="userSpaceOnUse">
<stop stop-color="#D7F0FC"/>
<stop offset="0.12" stop-color="#E2F4FC"/>
<stop offset="0.36" stop-color="#F2FAFE"/>
<stop offset="0.63" stop-color="#FCFDFE"/>
<stop offset="0.99" stop-color="white"/>
</linearGradient>
</defs>
</svg>
