<svg width="1920" height="14910" viewBox="0 0 1920 14910" fill="none" xmlns="http://www.w3.org/2000/svg">
<rect y="1024" width="1910.05" height="13882" fill="#ED1C24"/>
<path d="M392.662 883.4C281.67 1014.18 294.454 1235.05 384.037 1259.23C435.071 1273.01 535.906 1235.83 536.841 1196.94C537.239 1180.25 518.188 1164.39 501.147 1159.47C473.272 1151.42 440.612 1169.68 433.659 1191.39C423.104 1224.37 471.601 1266.03 489.239 1281.18C653.911 1422.64 1029.14 1093.66 1374.51 1309.11C1386.56 1316.63 1510.43 1393.05 1536.61 1514.23C1541.17 1535.34 1553.04 1590.24 1527.35 1608C1513.33 1617.69 1489.68 1615.23 1475.74 1602.41C1458.12 1586.21 1457.11 1554.48 1469.78 1540.56C1491.71 1516.47 1566.2 1532.91 1604.09 1571.37C1663.48 1631.64 1650.78 1764.03 1599.33 1849.82C1500 2015.44 1227.39 2066.99 1040.84 2037.71C977.785 2027.82 911.878 2006.71 798.876 2009.44C778.363 2009.94 700.3 2012.57 598.401 2037.37C487.249 2064.43 418.199 2081.23 358.231 2129.15C202.582 2253.5 181.572 2528.3 243.111 2565.02C261.913 2576.24 295.08 2568.35 310.599 2550.15C330.118 2527.26 325.95 2483.12 304.641 2466.35C275.035 2443.05 207.795 2469.01 182.318 2511.64C146.474 2571.6 191.669 2660.99 229.213 2707.78C304.123 2801.13 423.86 2820.14 478.505 2827.49C973.049 2894.09 1284.77 2699.86 1525.36 2871.39C1547 2886.81 1633.02 2951.51 1664.31 3062.93C1702.57 3199.2 1648.61 3368.56 1583.42 3379.8C1552.76 3385.09 1512.95 3356.55 1510.86 3328.74C1508.64 3299.21 1548.65 3266.55 1583.42 3266.44C1640.05 3266.26 1679.29 3352.43 1690.11 3376.18C1756.98 3522.95 1705.42 3761.92 1557.13 3902.92C1371.71 4079.21 1092.97 4047.41 967.966 4032.97C607.135 3991.3 464.369 3795 336.584 3878.97C218.479 3956.58 205.089 4213.21 276.865 4263.47C295.737 4276.68 336.435 4287.26 354.272 4267.87C369.164 4251.67 369.582 4218.18 356.262 4199.74C336.316 4172.14 281.183 4176.03 255.029 4193.15C187.451 4237.37 186.814 4453.71 274.876 4563.35C503.037 4847.4 1358.24 4454.65 1634.53 4697.03C1722.54 4774.22 1741.27 4872.61 1741.27 4872.61C1753.65 4937.66 1748.98 5046.98 1682.18 5082.11C1644.25 5102.05 1586.61 5097.94 1555.07 5064.7C1535.41 5043.99 1521.2 5007.02 1535.29 4986.34C1553.63 4959.42 1617.54 4959.03 1631.94 4981.45C1660.78 5026.37 1518.96 5207.45 1373.85 5293.6C1005.59 5512.25 620.774 5116.8 370.816 5314.88C169.783 5474.18 236.625 5874.21 246.742 5934.74C254.671 5982.18 284.386 6160.02 354.939 6168.85C404.341 6175.03 470.586 6097.95 458.151 6070.42C448.939 6050.03 392.115 6046.98 378.755 6067.76C362.38 6093.23 407.057 6161.01 447.566 6192.8C558.966 6280.21 716.754 6156.47 1054.95 6101.68C1265.15 6067.63 1406.77 6046.81 1524.72 6131.61C1638.58 6213.48 1693.46 6367.24 1678.22 6501.4C1659.3 6667.92 1529.91 6825.72 1461.2 6810C1425.97 6801.94 1396.87 6746.02 1410.91 6716.89C1425.7 6686.2 1492.27 6677.16 1524.71 6706.25C1557.12 6735.32 1543.28 6791.57 1537.28 6815.99C1520.41 6884.58 1469.61 6938.5 1429.43 6961.64C1295.16 7038.97 1144.56 6850.33 864.594 6791.32C669.819 6750.26 349.099 6758.59 264.957 6911.1C163.436 7095.12 419.462 7465.33 336.594 7633.44C327.342 7652.22 308.112 7691.21 283.491 7690.57C253.497 7689.79 220.628 7630.36 235.849 7602.78C254.502 7568.99 354.988 7565.43 397.288 7610.76C468.756 7687.35 333.948 7860.44 389.349 7914.04C430.575 7953.93 537.687 7889.48 839.067 7756.15C1107.66 7637.32 1187.11 7615.72 1283.66 7632.04C1317.37 7637.74 1442.24 7658.85 1516.78 7765.06C1528.42 7781.64 1573.09 7847.18 1569.05 7933.33C1565.5 8008.7 1527.68 8035.38 1503.55 8098.94C1439.17 8268.45 1580.24 8415.81 1535.3 8458.08C1460.18 8528.75 1039.53 8141.63 982.172 8198.7C959.172 8221.59 993.99 8316.5 1039.66 8324.81C1088.98 8333.78 1156.63 8242.79 1140.96 8217.33C1119.62 8182.62 969.776 8312.37 746.629 8299.8C568.108 8289.75 484.563 8196.61 429.043 8243.93C377.412 8287.95 440.543 8376.3 397.288 8552.53C369.085 8667.41 332.873 8668.1 320.677 8747.4C297.886 8895.65 394.552 9089.5 544.83 9164.41C674.385 9228.99 818.246 9190.92 1076.79 9122.51C1200.39 9089.8 1288.4 9050.14 1394.3 9089.14C1414.01 9096.4 1524.86 9137.22 1532.65 9222.94C1539.15 9294.37 1472.08 9375.09 1412.37 9371.71C1384.05 9370.1 1352.29 9349.29 1348.9 9324.22C1343.45 9283.96 1411.34 9234.17 1450.6 9246.89C1490.36 9259.77 1496.85 9335.48 1501.55 9397.86C1510.94 9522.71 1528.75 9759.51 1405.61 9834.82C1295.93 9901.89 1212 9756.73 998.039 9792.25C817.221 9822.27 780.194 9942.03 632.811 9925.27C499.356 9910.09 464.369 9804.46 389.329 9826.84C283.521 9858.39 259.068 10096.5 268.917 10239.9C274.796 10325.6 290.962 10561 468.726 10683.5C586.443 10764.6 724.802 10761.6 770.435 10760.6C944.488 10756.9 997.582 10674.7 1114.48 10712.7C1205.67 10742.4 1193.75 10795.5 1314.96 10846.4C1403.82 10883.7 1542.68 10910.2 1588.22 10851.1C1609.95 10822.9 1612.6 10772.4 1590.86 10755.3C1572.79 10741.1 1537.26 10749.6 1516.76 10768.6C1496.95 10787 1492.73 10813.8 1498.23 10906.9C1505.04 11022.2 1508.44 11079.8 1529.99 11117.1C1568.21 11183.3 1609.86 11177.4 1622.62 11220.9C1644.87 11296.6 1549.88 11422.8 1432.07 11476.2C1251.29 11558.3 1162.84 11403.1 820.713 11420.4C671.062 11427.9 542.551 11434.5 439.608 11526.8C371.93 11587.5 330.934 11671.3 280.815 11659.8C248.344 11652.4 219.882 11606.7 230.527 11574.7C241.659 11541.2 294.891 11524.4 328.447 11537.4C385.977 11559.8 391.19 11672 393.945 11748.3C403.078 12001.1 306.67 12083.5 360.201 12213.2C400.461 12310.6 493.139 12356.4 511.055 12364.8C642.451 12426.4 745.554 12350.7 1008.6 12293C1158.53 12260.1 1487.75 12187.9 1559.09 12303.6C1595.34 12362.4 1566.3 12471.9 1529.98 12481.8C1504.8 12488.7 1464.02 12451.1 1469.11 12434C1472.96 12421 1505.33 12412 1519.39 12423.3C1548.11 12446.4 1455.4 12532.7 1471.75 12638.8C1486.39 12733.7 1573.91 12756.9 1567.03 12827.7C1565.84 12839.9 1558.16 12891.4 1455.87 12947.4C1343.51 13008.9 1194.6 13033.3 844.519 12982C564.219 12940.9 466.507 12897 389.31 12963.4C330.078 13014.3 324.328 13094.3 317.852 13192.2C299.249 13473.2 433.35 13766.9 513.692 13758.8C539.836 13756.1 569.043 13720.7 563.98 13697.6C559.344 13676.5 524.704 13660.1 500.461 13668.3C473.561 13677.4 464.219 13715.6 459.126 13739.1C368.677 14156.5 323.453 14365.2 438.265 14489.1C560.359 14620.8 758.447 14626.4 836.57 14615.4C1007.27 14591.5 1195.53 14570.5 1129.37 14764.7" stroke="#981B1E" stroke-width="11.15" stroke-linecap="round" stroke-linejoin="round"/>
</svg>
