<svg width="158" height="92" viewBox="0 0 158 92" fill="none" xmlns="http://www.w3.org/2000/svg">
<path d="M103.76 24.9404V39.25H102.01V24.9404H67.58V39.25H65.84V24.9404H57.1599V44.6699L45.6299 24.9404H32.1699V66.1904H45.7199V49.5898L57.1599 66.1904H70.7399V39.5996H77.59V66.1904H91.9899V39.5996H98.95V66.1904H113.45V24.9404H103.76Z" fill="white"/>
<path d="M129.1 52.6904H115.2V66.1797H129.1V52.6904Z" fill="white"/>
<path d="M149.63 65.3398C145.61 70.0798 139.9 74.7496 132.34 79.3096C110.28 92.5296 80.1102 92.9896 56.9702 89.3096C90.3602 89.5196 119.24 80.2498 135.17 65.3398C147.71 53.5798 152.21 38.3402 144.55 21.4902C158.45 35.8102 161.8 50.9298 149.63 65.3398Z" fill="white"/>
<path d="M11.5401 65.3397C12.0901 67.0497 12.7601 68.7797 13.5701 70.5497C11.8801 68.8197 10.3401 67.0897 8.9601 65.3397C-4.7499 47.9097 -2.16994 29.5003 25.4801 12.6903C47.4701 -0.679701 77.6601 -1.2806 100.79 2.2694C43.8601 2.2094 0.150103 29.6397 11.5301 65.3397H11.5401Z" fill="white"/>
</svg>
