<?xml version="1.0" encoding="utf-8"?>
<!-- Generator: Adobe Illustrator 16.0.0, SVG Export Plug-In . SVG Version: 6.00 Build 0)  -->
<!DOCTYPE svg PUBLIC "-//W3C//DTD SVG 1.1//EN" "http://www.w3.org/Graphics/SVG/1.1/DTD/svg11.dtd">
<svg version="1.1" id="Layer_1" xmlns="http://www.w3.org/2000/svg" xmlns:xlink="http://www.w3.org/1999/xlink" x="0px" y="0px"
	 width="1596.803px" height="13892.449px" viewBox="0 0 1596.803 13892.449" enable-background="new 0 0 1596.803 13892.449"
	 xml:space="preserve">
<path fill="none" stroke="#981B1F" stroke-width="11.146" stroke-linecap="round" stroke-linejoin="round" stroke-miterlimit="10" d="
	M230.161,5.573c-111.566,130.78-98.723,351.652-8.666,375.835c51.302,13.774,152.661-23.396,153.604-62.289
	c0.405-16.69-18.751-32.55-35.885-37.475c-28.022-8.053-60.851,10.206-67.838,31.924c-10.61,32.979,38.138,74.637,55.867,89.786
	c165.53,141.456,542.707-187.519,889.88,27.935c12.112,7.516,136.63,83.939,162.945,205.124c4.584,21.11,16.506,76.011-9.312,93.765
	c-14.097,9.695-37.866,7.229-51.877-5.588c-17.705-16.199-18.725-47.927-5.984-61.854c22.038-24.091,96.917-7.647,135.011,30.815
	c59.696,60.271,46.93,192.657-4.786,278.449c-99.839,165.62-373.87,217.167-561.402,187.891
	c-63.38-9.894-129.629-31.001-243.217-28.271c-20.624,0.494-99.09,3.129-201.52,27.932
	c-111.725,27.056-181.137,43.865-241.424,91.782C39.102,1375.687,17.972,1650.482,79.832,1687.2
	c18.899,11.219,52.237,3.331,67.839-14.868c19.62-22.888,15.429-67.03-5.986-83.801c-29.756-23.303-97.348,2.659-122.962,45.287
	c-36.027,59.956,9.397,149.348,47.143,196.139c75.303,93.348,195.655,112.354,250.587,119.715
	c497.122,66.596,810.459-127.63,1052.308,43.895c21.75,15.425,108.223,80.121,139.668,191.543
	c38.46,136.274-15.78,305.627-81.309,316.871c-30.821,5.289-70.842-23.249-72.944-51.058c-2.232-29.532,37.992-62.19,72.944-62.297
	c56.918-0.177,96.371,85.984,107.247,109.737c67.206,146.773,15.393,385.739-133.682,526.745
	c-186.382,176.292-466.57,144.492-592.232,130.055c-362.713-41.675-506.216-237.972-634.667-153.997
	c-118.722,77.613-132.18,334.244-60.034,384.497c18.967,13.212,59.881,23.794,77.814,4.395
	c14.974-16.197,15.392-49.693,1.995-68.127c-20.054-27.595-75.466-23.71-101.757-6.592
	c-67.926,44.221-68.571,260.557,19.952,370.196c229.347,284.054,1089.005-108.697,1366.744,133.682
	c88.456,77.194,107.286,175.582,107.286,175.582c12.451,65.054,7.754,174.366-59.4,209.501
	c-38.116,19.94-96.063,15.832-127.771-17.409c-19.757-20.712-34.04-57.678-19.877-78.363c18.432-26.922,82.676-27.309,97.148-4.886
	c28.994,44.922-113.565,225.997-259.429,312.154c-370.184,218.653-756.998-176.798-1008.265,21.281
	C6.118,4596.379,73.306,4996.407,83.472,5056.934c7.967,47.438,37.838,225.283,108.759,234.11
	c49.66,6.18,116.253-70.904,103.753-98.434c-9.258-20.39-66.375-23.439-79.81-2.66c-16.463,25.466,28.453,93.254,69.169,125.035
	c111.979,87.408,270.59-36.33,610.544-91.116c211.291-34.05,353.648-54.871,472.208,29.93
	c114.461,81.869,169.62,235.629,154.3,369.786c-19.018,166.522-149.077,324.323-218.146,308.597
	c-35.411-8.063-64.659-63.982-50.547-93.111c14.869-30.689,81.793-39.728,114.394-10.642c32.581,29.068,18.675,85.319,12.638,109.74
	c-16.958,68.592-68.017,122.509-108.408,145.651c-134.966,77.328-286.356-111.308-567.782-170.323
	c-195.79-41.057-518.185-32.728-602.763,119.777c-102.055,184.021,155.311,554.225,72.006,722.343
	c-9.305,18.779-28.625,57.771-53.384,57.135c-30.154-0.777-63.19-60.206-47.885-87.791c18.746-33.789,119.759-37.353,162.28,7.979
	c71.836,76.588-63.671,249.677-7.981,303.277c41.44,39.887,149.106-24.555,452.059-157.887
	c269.992-118.824,349.863-140.43,446.911-124.107c33.883,5.699,159.402,26.809,234.329,133.017
	c11.697,16.58,56.614,82.123,52.542,168.265c-3.563,75.375-41.585,102.055-65.843,165.606
	c-64.706,169.51,77.09,316.873,31.924,359.144c-75.514,70.672-498.346-316.451-556.009-259.382
	c-23.125,22.888,11.88,117.804,57.786,126.107c49.569,8.967,117.579-82.021,101.834-107.485
	c-21.463-34.705-172.082,95.036-396.39,82.471c-179.449-10.053-263.433-103.194-319.24-55.867
	c-51.902,44.017,11.563,132.367-31.923,308.599c-28.349,114.883-64.754,115.571-77.011,194.869
	c-22.913,148.245,74.262,342.101,225.324,417.007c130.233,64.576,274.841,26.511,534.726-41.9
	c124.245-32.706,212.713-72.371,319.165-33.369c19.816,7.26,131.24,48.083,139.076,133.796
	c6.531,71.434-60.888,152.151-120.906,148.767c-28.47-1.606-60.388-22.424-63.798-47.495c-5.477-40.262,62.761-90.05,102.234-77.328
	c39.973,12.882,46.494,88.589,51.211,150.974c9.441,124.847,27.35,361.652-96.437,436.959
	c-110.248,67.069-194.611-78.089-409.69-42.565c-181.756,30.021-218.975,149.78-367.125,133.017
	c-134.151-15.18-169.323-120.811-244.75-98.433c-106.359,31.555-130.942,269.624-121.045,413.018
	c5.914,85.692,22.161,321.097,200.854,443.608c118.333,81.127,257.414,78.137,303.278,77.149
	c174.962-3.763,228.33-85.902,345.842-47.886c91.663,29.653,79.677,82.779,201.521,133.682
	c89.318,37.314,228.905,63.735,274.679,4.655c21.847-28.198,24.507-78.694,2.661-95.772c-18.174-14.205-53.879-5.736-74.49,13.303
	c-19.914,18.395-24.154,45.195-18.622,138.336c6.843,115.221,10.265,172.831,31.924,210.166
	c38.421,66.23,80.287,60.328,93.112,103.754c22.374,75.76-73.109,201.895-191.544,255.391
	c-181.724,82.084-270.627-73.178-614.536-55.867c-150.427,7.572-279.612,14.075-383.087,106.414
	c-68.029,60.707-109.243,144.501-159.62,133.016c-32.637-7.439-61.25-53.076-50.546-85.13
	c11.187-33.503,64.699-50.294,98.432-37.245c57.834,22.373,63.074,134.602,65.843,210.831
	c9.183,252.8-87.732,335.261-33.919,464.893c40.467,97.484,133.626,143.238,151.639,151.639
	c132.083,61.6,235.718-14.141,500.141-71.829c150.709-32.879,481.646-105.078,553.35,10.642
	c36.44,58.812,7.245,168.288-29.265,178.242c-25.309,6.899-66.301-30.708-61.188-47.886c3.87-12.998,36.413-21.941,50.547-10.642
	c28.873,23.082-64.334,109.362-47.886,215.487c14.707,94.899,102.686,118.063,95.771,188.883
	c-1.193,12.219-8.91,63.744-111.734,119.715c-112.955,61.484-262.636,85.85-614.536,34.584
	c-281.757-41.047-379.983-84.956-457.576-18.623c-59.537,50.897-65.317,130.896-71.829,228.789
	c-18.699,281.074,116.096,574.779,196.864,566.65c26.283-2.646,55.637-38.139,50.546-61.188
	c-4.663-21.114-39.482-37.461-63.848-29.264c-27.035,9.096-36.434,47.291-41.549,70.773
	c-90.922,417.381-136.382,626.071-20.968,749.938c122.73,131.719,321.846,137.308,400.379,126.365
	c171.591-23.909,360.829-44.913,294.321,149.291"/>
</svg>
