<?xml version="1.0" encoding="UTF-8"?><svg id="Layer_2" xmlns="http://www.w3.org/2000/svg" xmlns:xlink="http://www.w3.org/1999/xlink" viewBox="0 0 92.98 92.98"><defs><style>.cls-1{fill:none;}.cls-2{clip-path:url(#clippath);}.cls-3{fill:#fff;}</style><clipPath id="clippath"><rect class="cls-1" width="92.98" height="92.98"/></clipPath></defs><g id="FOOTER"><g id="BARCODE"><g><g class="cls-2"><rect class="cls-3" x="-.01" y="-.01" width="92.99" height="92.99"/></g><rect x="32.05" y="6.4" width="3.21" height="3.21"/><rect x="41.67" y="6.4" width="3.21" height="3.21"/><rect x="51.29" y="6.4" width="3.21" height="3.21"/><rect x="57.71" y="6.4" width="3.21" height="3.21"/><rect x="44.88" y="9.61" width="3.21" height="3.21"/><rect x="48.09" y="9.61" width="3.21" height="3.21"/><rect x="51.29" y="9.61" width="3.21" height="3.21"/><rect x="32.05" y="12.81" width="3.21" height="3.21"/><rect x="38.47" y="12.81" width="3.21" height="3.21"/><rect x="48.09" y="12.81" width="3.21" height="3.21"/><rect x="57.71" y="12.81" width="3.21" height="3.21"/><rect x="35.26" y="16.02" width="3.21" height="3.21"/><rect x="38.47" y="16.02" width="3.21" height="3.21"/><rect x="41.67" y="16.02" width="3.21" height="3.21"/><rect x="44.88" y="16.02" width="3.21" height="3.21"/><rect x="48.09" y="16.02" width="3.21" height="3.21"/><rect x="51.29" y="16.02" width="3.21" height="3.21"/><rect x="57.71" y="16.02" width="3.21" height="3.21"/><rect x="41.67" y="19.23" width="3.21" height="3.21"/><rect x="51.29" y="19.23" width="3.21" height="3.21"/><rect x="32.05" y="22.43" width="3.21" height="3.21"/><rect x="35.26" y="22.43" width="3.21" height="3.21"/><rect x="48.09" y="22.43" width="3.21" height="3.21"/><rect x="51.29" y="22.43" width="3.21" height="3.21"/><rect x="32.05" y="25.64" width="3.21" height="3.21"/><rect x="38.47" y="25.64" width="3.21" height="3.21"/><rect x="44.88" y="25.64" width="3.21" height="3.21"/><rect x="51.29" y="25.64" width="3.21" height="3.21"/><rect x="57.71" y="25.64" width="3.21" height="3.21"/><rect x="38.47" y="28.85" width="3.21" height="3.21"/><rect x="41.67" y="28.85" width="3.21" height="3.21"/><rect x="44.88" y="28.85" width="3.21" height="3.21"/><rect x="6.4" y="32.05" width="3.21" height="3.21"/><rect x="12.81" y="32.05" width="3.21" height="3.21"/><rect x="25.64" y="32.05" width="3.21" height="3.21"/><rect x="28.85" y="32.05" width="3.21" height="3.21"/><rect x="41.67" y="32.05" width="3.21" height="3.21"/><rect x="44.88" y="32.05" width="3.21" height="3.21"/><rect x="57.71" y="32.05" width="3.21" height="3.21"/><rect x="67.33" y="32.05" width="3.21" height="3.21"/><rect x="76.95" y="32.05" width="3.21" height="3.21"/><rect x="83.36" y="32.05" width="3.21" height="3.21"/><rect x="9.61" y="35.26" width="3.21" height="3.21"/><rect x="16.02" y="35.26" width="3.21" height="3.21"/><rect x="19.23" y="35.26" width="3.21" height="3.21"/><rect x="22.43" y="35.26" width="3.21" height="3.21"/><rect x="38.47" y="35.26" width="3.21" height="3.21"/><rect x="44.88" y="35.26" width="3.21" height="3.21"/><rect x="51.29" y="35.26" width="3.21" height="3.21"/><rect x="54.5" y="35.26" width="3.21" height="3.21"/><rect x="57.71" y="35.26" width="3.21" height="3.21"/><rect x="60.91" y="35.26" width="3.21" height="3.21"/><rect x="64.12" y="35.26" width="3.21" height="3.21"/><rect x="67.33" y="35.26" width="3.21" height="3.21"/><rect x="73.74" y="35.26" width="3.21" height="3.21"/><rect x="80.15" y="35.26" width="3.21" height="3.21"/><rect x="83.36" y="35.26" width="3.21" height="3.21"/><rect x="9.61" y="38.47" width="3.21" height="3.21"/><rect x="12.81" y="38.47" width="3.21" height="3.21"/><rect x="16.02" y="38.47" width="3.21" height="3.21"/><rect x="22.43" y="38.47" width="3.21" height="3.21"/><rect x="25.64" y="38.47" width="3.21" height="3.21"/><rect x="35.26" y="38.47" width="3.21" height="3.21"/><rect x="38.47" y="38.47" width="3.21" height="3.21"/><rect x="41.67" y="38.47" width="3.21" height="3.21"/><rect x="48.09" y="38.47" width="3.21" height="3.21"/><rect x="54.5" y="38.47" width="3.21" height="3.21"/><rect x="57.71" y="38.47" width="3.21" height="3.21"/><rect x="64.12" y="38.47" width="3.21" height="3.21"/><rect x="73.74" y="38.47" width="3.21" height="3.21"/><rect x="76.95" y="38.47" width="3.21" height="3.21"/><rect x="83.36" y="38.47" width="3.21" height="3.21"/><rect x="6.4" y="41.67" width="3.21" height="3.21"/><rect x="12.81" y="41.67" width="3.21" height="3.21"/><rect x="19.23" y="41.67" width="3.21" height="3.21"/><rect x="22.43" y="41.67" width="3.21" height="3.21"/><rect x="32.05" y="41.67" width="3.21" height="3.21"/><rect x="35.26" y="41.67" width="3.21" height="3.21"/><rect x="54.5" y="41.67" width="3.21" height="3.21"/><rect x="57.71" y="41.67" width="3.21" height="3.21"/><rect x="60.91" y="41.67" width="3.21" height="3.21"/><rect x="64.12" y="41.67" width="3.21" height="3.21"/><rect x="67.33" y="41.67" width="3.21" height="3.21"/><rect x="73.74" y="41.67" width="3.21" height="3.21"/><rect x="6.4" y="44.88" width="3.21" height="3.21"/><rect x="9.61" y="44.88" width="3.21" height="3.21"/><rect x="16.02" y="44.88" width="3.21" height="3.21"/><rect x="25.64" y="44.88" width="3.21" height="3.21"/><rect x="28.85" y="44.88" width="3.21" height="3.21"/><rect x="35.26" y="44.88" width="3.21" height="3.21"/><rect x="38.47" y="44.88" width="3.21" height="3.21"/><rect x="44.88" y="44.88" width="3.21" height="3.21"/><rect x="57.71" y="44.88" width="3.21" height="3.21"/><rect x="60.91" y="44.88" width="3.21" height="3.21"/><rect x="64.12" y="44.88" width="3.21" height="3.21"/><rect x="83.36" y="44.88" width="3.21" height="3.21"/><rect x="12.81" y="48.09" width="3.21" height="3.21"/><rect x="22.43" y="48.09" width="3.21" height="3.21"/><rect x="32.05" y="48.09" width="3.21" height="3.21"/><rect x="44.88" y="48.09" width="3.21" height="3.21"/><rect x="54.5" y="48.09" width="3.21" height="3.21"/><rect x="64.12" y="48.09" width="3.21" height="3.21"/><rect x="67.33" y="48.09" width="3.21" height="3.21"/><rect x="80.15" y="48.09" width="3.21" height="3.21"/><rect x="83.36" y="48.09" width="3.21" height="3.21"/><rect x="6.4" y="51.29" width="3.21" height="3.21"/><rect x="9.61" y="51.29" width="3.21" height="3.21"/><rect x="19.23" y="51.29" width="3.21" height="3.21"/><rect x="25.64" y="51.29" width="3.21" height="3.21"/><rect x="28.85" y="51.29" width="3.21" height="3.21"/><rect x="44.88" y="51.29" width="3.21" height="3.21"/><rect x="48.09" y="51.29" width="3.21" height="3.21"/><rect x="54.5" y="51.29" width="3.21" height="3.21"/><rect x="57.71" y="51.29" width="3.21" height="3.21"/><rect x="73.74" y="51.29" width="3.21" height="3.21"/><rect x="76.95" y="51.29" width="3.21" height="3.21"/><rect x="83.36" y="51.29" width="3.21" height="3.21"/><rect x="19.23" y="54.5" width="3.21" height="3.21"/><rect x="35.26" y="54.5" width="3.21" height="3.21"/><rect x="41.67" y="54.5" width="3.21" height="3.21"/><rect x="44.88" y="54.5" width="3.21" height="3.21"/><rect x="51.29" y="54.5" width="3.21" height="3.21"/><rect x="57.71" y="54.5" width="3.21" height="3.21"/><rect x="64.12" y="54.5" width="3.21" height="3.21"/><rect x="67.33" y="54.5" width="3.21" height="3.21"/><rect x="6.4" y="57.71" width="3.21" height="3.21"/><rect x="9.61" y="57.71" width="3.21" height="3.21"/><rect x="16.02" y="57.71" width="3.21" height="3.21"/><rect x="19.23" y="57.71" width="3.21" height="3.21"/><rect x="22.43" y="57.71" width="3.21" height="3.21"/><rect x="25.64" y="57.71" width="3.21" height="3.21"/><rect x="32.05" y="57.71" width="3.21" height="3.21"/><rect x="38.47" y="57.71" width="3.21" height="3.21"/><rect x="57.71" y="57.71" width="3.21" height="3.21"/><rect x="60.91" y="57.71" width="3.21" height="3.21"/><rect x="64.12" y="57.71" width="3.21" height="3.21"/><rect x="67.33" y="57.71" width="3.21" height="3.21"/><rect x="70.53" y="57.71" width="3.21" height="3.21"/><rect x="80.15" y="57.71" width="3.21" height="3.21"/><rect x="32.05" y="60.91" width="3.21" height="3.21"/><rect x="38.47" y="60.91" width="3.21" height="3.21"/><rect x="48.09" y="60.91" width="3.21" height="3.21"/><rect x="57.71" y="60.91" width="3.21" height="3.21"/><rect x="70.53" y="60.91" width="3.21" height="3.21"/><rect x="76.95" y="60.91" width="3.21" height="3.21"/><rect x="83.36" y="60.91" width="3.21" height="3.21"/><rect x="32.05" y="64.12" width="3.21" height="3.21"/><rect x="41.67" y="64.12" width="3.21" height="3.21"/><rect x="48.09" y="64.12" width="3.21" height="3.21"/><rect x="57.71" y="64.12" width="3.21" height="3.21"/><rect x="64.12" y="64.12" width="3.21" height="3.21"/><rect x="70.53" y="64.12" width="3.21" height="3.21"/><rect x="73.74" y="64.12" width="3.21" height="3.21"/><rect x="83.36" y="64.12" width="3.21" height="3.21"/><rect x="38.47" y="67.33" width="3.21" height="3.21"/><rect x="54.5" y="67.33" width="3.21" height="3.21"/><rect x="57.71" y="67.33" width="3.21" height="3.21"/><rect x="70.53" y="67.33" width="3.21" height="3.21"/><rect x="80.15" y="67.33" width="3.21" height="3.21"/><rect x="83.36" y="67.33" width="3.21" height="3.21"/><rect x="35.26" y="70.53" width="3.21" height="3.21"/><rect x="41.67" y="70.53" width="3.21" height="3.21"/><rect x="44.88" y="70.53" width="3.21" height="3.21"/><rect x="54.5" y="70.53" width="3.21" height="3.21"/><rect x="57.71" y="70.53" width="3.21" height="3.21"/><rect x="60.91" y="70.53" width="3.21" height="3.21"/><rect x="64.12" y="70.53" width="3.21" height="3.21"/><rect x="67.33" y="70.53" width="3.21" height="3.21"/><rect x="70.53" y="70.53" width="3.21" height="3.21"/><rect x="73.74" y="70.53" width="3.21" height="3.21"/><rect x="83.36" y="70.53" width="3.21" height="3.21"/><rect x="38.47" y="73.74" width="3.21" height="3.21"/><rect x="44.88" y="73.74" width="3.21" height="3.21"/><rect x="60.91" y="73.74" width="3.21" height="3.21"/><rect x="67.33" y="73.74" width="3.21" height="3.21"/><rect x="70.53" y="73.74" width="3.21" height="3.21"/><rect x="73.74" y="73.74" width="3.21" height="3.21"/><rect x="76.95" y="73.74" width="3.21" height="3.21"/><rect x="80.15" y="73.74" width="3.21" height="3.21"/><rect x="32.05" y="76.95" width="3.21" height="3.21"/><rect x="38.47" y="76.95" width="3.21" height="3.21"/><rect x="44.88" y="76.95" width="3.21" height="3.21"/><rect x="48.09" y="76.95" width="3.21" height="3.21"/><rect x="57.71" y="76.95" width="3.21" height="3.21"/><rect x="60.91" y="76.95" width="3.21" height="3.21"/><rect x="70.53" y="76.95" width="3.21" height="3.21"/><rect x="80.15" y="76.95" width="3.21" height="3.21"/><rect x="83.36" y="76.95" width="3.21" height="3.21"/><rect x="41.67" y="80.15" width="3.21" height="3.21"/><rect x="44.88" y="80.15" width="3.21" height="3.21"/><rect x="51.29" y="80.15" width="3.21" height="3.21"/><rect x="54.5" y="80.15" width="3.21" height="3.21"/><rect x="57.71" y="80.15" width="3.21" height="3.21"/><rect x="60.91" y="80.15" width="3.21" height="3.21"/><rect x="64.12" y="80.15" width="3.21" height="3.21"/><rect x="67.33" y="80.15" width="3.21" height="3.21"/><rect x="70.53" y="80.15" width="3.21" height="3.21"/><rect x="32.05" y="83.36" width="3.21" height="3.21"/><rect x="35.26" y="83.36" width="3.21" height="3.21"/><rect x="38.47" y="83.36" width="3.21" height="3.21"/><rect x="44.88" y="83.36" width="3.21" height="3.21"/><rect x="48.09" y="83.36" width="3.21" height="3.21"/><rect x="51.29" y="83.36" width="3.21" height="3.21"/><rect x="57.71" y="83.36" width="3.21" height="3.21"/><rect x="60.91" y="83.36" width="3.21" height="3.21"/><rect x="73.74" y="83.36" width="3.21" height="3.21"/><rect x="83.36" y="83.36" width="3.21" height="3.21"/><path d="M25.48,6.4H6.4V28.85H28.85V6.4h-3.37Zm0,19.08H9.77V9.77h15.71v15.71Z"/><path d="M83.2,6.4h-19.08V28.85h22.45V6.4h-3.37Zm0,19.08h-15.71V9.77h15.71v15.71Z"/><path d="M25.48,64.12H6.4v22.45H28.85v-22.45h-3.37Zm0,19.08H9.77v-15.71h15.71v15.71Z"/><rect x="12.81" y="12.81" width="9.62" height="9.62"/><rect x="70.53" y="12.81" width="9.62" height="9.62"/><rect x="12.81" y="70.53" width="9.62" height="9.62"/></g></g></g></svg>