<svg width="677" height="441" viewBox="0 0 677 441" fill="none" xmlns="http://www.w3.org/2000/svg">
<path d="M131.53 61.8701H242.77" stroke="white" stroke-width="6.58" stroke-linecap="round" stroke-linejoin="round"/>
<path d="M352.75 61.8701H563.44" stroke="white" stroke-width="6.58" stroke-linecap="round" stroke-linejoin="round"/>
<path d="M149.98 256.82H210.15" stroke="white" stroke-width="6.58" stroke-linecap="round" stroke-linejoin="round"/>
<path d="M149.6 392.48L561.1 392.08" stroke="white" stroke-width="6.58" stroke-linecap="round" stroke-linejoin="round"/>
<path d="M298.02 120.57L298.08 192.641" stroke="white" stroke-width="6.58" stroke-linecap="round" stroke-linejoin="round"/>
<path d="M618.29 133.32L618.38 177.98" stroke="white" stroke-width="6.58" stroke-linecap="round" stroke-linejoin="round"/>
<path d="M618.63 259.66L618.72 304.311" stroke="white" stroke-width="6.58" stroke-linecap="round" stroke-linejoin="round"/>
<path d="M340 260.21C340 265.82 337.73 271.251 333.78 275.271L330.16 274.71C331.82 271.21 332.71 267.38 332.71 263.46V256.76C332.71 250.28 330.24 244.06 326 239.34C326.74 238.65 327.71 238.23 328.77 238.23C329.64 238.23 330.5 238.51 331.19 239.03C336.71 243.1 340.01 249.59 340.01 256.38V260.21H340ZM340 285.65C340 288.97 337.62 291.75 334.34 292.25L271.81 301.87C270.98 302 270.14 302.061 269.31 302.061H268.88C259.83 302.061 252.47 294.7 252.47 285.65C252.47 276.6 259.83 269.24 268.88 269.24H269.31C270.14 269.24 270.98 269.301 271.81 269.431L334.34 279.05C337.62 279.56 340 282.33 340 285.65ZM241.48 294.73C240.62 294.92 239.7 294.22 239.7 293.3V292.58C239.7 291.77 240.36 291.12 241.16 291.12H249.59C249.75 291.69 249.94 292.25 250.15 292.8L241.47 294.73H241.48ZM234.23 285.65C234.23 284.64 235.05 283.83 236.05 283.83H248.91C248.86 284.43 248.82 285.04 248.82 285.65C248.82 286.26 248.86 286.871 248.91 287.471H236.05C235.05 287.471 234.23 286.65 234.23 285.65ZM239.7 278.721V278C239.7 277.08 240.59 276.38 241.48 276.57L250.16 278.5C249.95 279.05 249.76 279.611 249.6 280.181H241.17C240.36 280.181 239.71 279.521 239.71 278.721H239.7ZM255.58 254.65H254.29C250.27 254.65 247 251.38 247 247.36C247 246.51 247.17 245.641 247.5 244.771L248.03 243.37L246.77 242.57C244.63 241.22 243.35 238.92 243.35 236.42C243.35 234.98 243.77 233.591 244.57 232.391L245.71 230.681L243.88 229.75C240.18 227.87 237.88 224.13 237.88 220C237.88 215.15 241.14 210.83 245.81 209.49L246.94 209.17L247.11 208C247.63 204.45 250.72 201.76 254.29 201.76C254.36 201.76 254.43 201.77 254.49 201.78C254.61 201.8 254.74 201.81 254.87 201.82L256.18 201.931L256.7 200.721C257.85 198.031 260.48 196.28 263.41 196.28C266.94 196.28 269.95 198.81 270.57 202.3L270.9 204.181L272.76 203.771C273.33 203.641 273.84 203.58 274.35 203.58C275.19 203.58 275.99 203.76 276.75 204.03C274.07 204.81 271.76 206.591 270.34 209.061C265.51 209.221 261.34 212.631 260.14 217.271C254.49 219.381 250.64 224.841 250.64 230.931C250.64 235.821 253.04 240.28 257.02 242.98C256.42 244.35 256.11 245.83 256.11 247.34C256.11 250.62 257.57 253.67 260.07 255.74C259.86 256.59 259.75 257.44 259.75 258.28C259.75 261.48 261.13 264.36 263.31 266.37C262.23 266.68 261.19 267.09 260.19 267.57L255.57 254.63L255.58 254.65ZM286.99 213.26L287.32 215.141L289.18 214.73C289.75 214.6 290.26 214.54 290.77 214.54C294.79 214.54 298.06 217.81 298.06 221.83C298.06 223.75 297.32 225.561 295.97 226.931L294.72 228.21L295.97 229.49C297.32 230.86 298.06 232.68 298.06 234.59C298.06 234.64 298.05 234.7 298.05 234.76C297.56 234.66 297.05 234.59 296.53 234.59C294.89 234.59 293.26 235.121 291.94 236.101C288.62 238.551 286.01 241.75 284.24 245.36C283.55 243.21 282.82 241.15 282.08 239.19C283.77 230.28 290.02 225.12 290.09 225.07L288.95 223.65L287.81 222.23C287.56 222.43 282.62 226.46 279.85 233.73C276.05 225.02 272.47 219.381 272.24 219.021L269.17 220.99C269.22 221.06 272 225.44 275.24 232.4C269.79 230.35 263.59 230.91 263.23 230.95L263.59 234.58C266.33 234.3 274.1 234.441 277.73 238.141C279.01 241.281 280.27 244.73 281.38 248.42C275.84 245.58 269.22 245.53 268.88 245.53V249.181C268.97 249.181 277.08 249.231 281.89 253.061C281.74 254.161 281.65 255.271 281.65 256.391V260.23C281.65 262.69 282.03 265.1 282.73 267.44L272.36 265.84C271.81 265.76 271.26 265.7 270.71 265.66C266.69 265.66 263.42 262.361 263.42 258.311C263.42 257.461 263.59 256.591 263.92 255.721L264.45 254.32L263.19 253.521C261.05 252.171 259.77 249.87 259.77 247.37C259.77 245.93 260.19 244.54 260.99 243.34L262.13 241.63L260.3 240.7C256.6 238.82 254.3 235.08 254.3 230.95C254.3 226.1 257.56 221.78 262.23 220.44L263.36 220.12L263.53 218.95C264.05 215.4 267.14 212.71 270.71 212.71C270.78 212.71 270.84 212.72 270.91 212.73C271.04 212.75 271.17 212.771 271.3 212.771L272.61 212.88L273.12 211.67C274.27 208.97 276.9 207.23 279.83 207.23C283.36 207.23 286.38 209.76 286.99 213.25V213.26ZM286.82 268.04C285.83 265.53 285.3 262.91 285.3 260.21V256.37C285.3 249.58 288.6 243.101 294.12 239.021C294.81 238.511 295.67 238.23 296.54 238.23C297.64 238.23 298.66 238.67 299.4 239.42C295.1 244.13 292.6 250.321 292.6 256.771V263.471C292.6 265.351 292.82 267.21 293.23 269.03L286.82 268.04ZM306.53 238.38L306.79 241.271C304.73 242.271 303.54 243.801 303.54 245.521C303.54 247.531 305.18 249.21 307.73 250.16C307.4 252.23 307.19 254.32 307.19 256.41V263.811C307.19 266.321 307.43 268.82 307.9 271.28L297.15 269.63C296.56 267.63 296.25 265.56 296.25 263.46V256.76C296.25 249.83 299.58 243.2 305.17 239.04C305.58 238.74 306.05 238.51 306.54 238.38H306.53ZM312.43 221.82H312.91C314.79 221.82 316.32 223.35 316.32 225.23C316.32 225.33 316.32 225.44 316.31 225.54L314.65 243.75L316.04 244.2C317.64 244.71 318.14 245.38 318.14 245.53C318.14 245.98 316.2 247.351 312.67 247.351C309.14 247.351 307.2 245.98 307.2 245.53C307.2 245.39 307.7 244.71 309.3 244.2L310.69 243.75L309.03 225.54C309.03 225.44 309.02 225.33 309.02 225.23C309.02 223.35 310.55 221.82 312.43 221.82ZM320.39 239.03C325.83 243.19 329.08 249.821 329.08 256.771V263.471C329.08 267.211 328.15 270.87 326.39 274.13L311.77 271.88C311.17 269.23 310.85 266.53 310.85 263.82V256.42C310.85 254.58 311.03 252.751 311.31 250.931C311.76 250.971 312.2 251.01 312.67 251.01C317.87 251.01 321.79 248.66 321.79 245.54C321.79 243.82 320.6 242.29 318.54 241.29L318.81 238.34C319.38 238.45 319.93 238.68 320.4 239.05L320.39 239.03ZM343.68 256.391C343.68 248.451 339.83 240.87 333.38 236.11C332.06 235.14 330.43 234.601 328.79 234.601C326.73 234.601 324.81 235.42 323.39 236.82C323.13 236.6 322.88 236.36 322.61 236.15C321.6 235.38 320.38 234.92 319.14 234.73L319.94 225.891C319.96 225.681 319.97 225.46 319.97 225.25C319.97 221.36 316.8 218.19 312.91 218.19H312.44C308.55 218.19 305.38 221.36 305.38 225.25C305.38 225.46 305.38 225.681 305.41 225.891L306.22 234.771C305.06 234.991 303.95 235.441 303 236.141C302.67 236.381 302.38 236.67 302.07 236.92C301.91 236.75 301.74 236.6 301.56 236.44C301.66 235.83 301.74 235.221 301.74 234.601C301.74 232.281 301.02 230.071 299.68 228.221C301.02 226.371 301.74 224.16 301.74 221.84C301.74 215.6 296.46 210.54 290.16 210.92C288.99 207.56 286.26 205.031 282.9 204.061C280.68 201.291 277.33 199.75 273.74 199.98C272.23 195.65 268.14 192.67 263.43 192.67C259.48 192.67 255.89 194.78 253.95 198.15C249.12 198.31 244.95 201.72 243.75 206.36C238.1 208.47 234.25 213.931 234.25 220.021C234.25 224.911 236.65 229.37 240.63 232.07C240.03 233.44 239.72 234.921 239.72 236.431C239.72 239.711 241.18 242.76 243.68 244.83C243.47 245.68 243.36 246.53 243.36 247.37C243.36 252.96 247.57 257.58 252.99 258.23L257.02 269.53C254.95 271.05 253.19 272.96 251.84 275.15L242.29 273.03C241.93 272.95 241.55 272.91 241.18 272.91C238.36 272.91 236.07 275.201 236.07 278.021V278.74C236.07 279.25 236.17 279.74 236.31 280.2H236.07C233.05 280.2 230.6 282.65 230.6 285.67C230.6 288.69 233.05 291.141 236.07 291.141H236.31C236.17 291.611 236.07 292.091 236.07 292.601V293.32C236.07 296.14 238.36 298.431 241.18 298.431C241.56 298.431 241.93 298.391 242.29 298.311L251.85 296.19C255.39 301.9 261.7 305.73 268.9 305.73H269.33C270.34 305.73 271.37 305.65 272.38 305.5L334.91 295.88C339.98 295.1 343.67 290.81 343.67 285.67C343.67 281.57 341.29 278.03 337.76 276.37C341.54 271.86 343.67 266.13 343.67 260.23V256.4L343.68 256.391Z" fill="white"/>
<path d="M270.7 276.53H267.05V294.771H270.7V276.53Z" fill="white"/>
<path d="M285.29 276.53H281.64V294.771H285.29V276.53Z" fill="white"/>
<path d="M299.88 276.53H296.23V294.771H299.88V276.53Z" fill="white"/>
<path d="M314.47 280.17H310.82V291.11H314.47V280.17Z" fill="white"/>
<path d="M329.06 282H325.41V289.29H329.06V282Z" fill="white"/>
<path d="M280.45 53.5703C280.45 51.4403 282.32 49.5799 283.43 48.6699C286.51 46.1399 291.03 44.6807 295.84 44.6807C300.65 44.6807 305.16 46.1299 308.24 48.6699C309.36 49.5899 311.22 51.4403 311.22 53.5703C311.22 56.5703 307.61 58.9604 307.28 59.1904C304.01 57.3904 300 56.4004 295.83 56.4004C291.66 56.4004 287.64 57.3904 284.38 59.1904C284.05 58.9604 280.44 56.6303 280.44 53.5703H280.45ZM295.83 59.1904C298.85 59.1904 301.75 59.7601 304.27 60.8301C301.76 61.8901 298.85 62.46 295.83 62.46C292.81 62.46 289.9 61.8801 287.39 60.8301C289.92 59.7701 292.84 59.1904 295.83 59.1904ZM310.01 60.6299C311.51 59.3999 314.01 56.8503 314.01 53.5703C314.01 50.2903 311.5 47.7398 310.01 46.5098C306.44 43.5698 301.27 41.8906 295.83 41.8906C290.39 41.8906 285.22 43.5698 281.65 46.5098C280.16 47.7398 277.65 50.2903 277.65 53.5703C277.65 56.8503 280.16 59.3999 281.65 60.6299C285.22 63.5699 290.39 65.25 295.83 65.25C301.27 65.25 306.44 63.5699 310.01 60.6299Z" fill="white"/>
<path d="M326.9 114.12C325.98 113.07 324.94 111.99 323.76 110.91C321.1 108.66 314.03 103.78 307.21 101.98V102.01C306.54 101.84 305.86 101.68 305.17 101.54C300.82 100.82 297.69 100.7 295.01 100.63C294.2 100.63 293.39 100.63 292.58 100.58V100.561C291.63 100.531 290.72 100.48 289.79 100.38C288.84 100.28 287.9 100.15 286.97 100V99.9805C286 99.8105 285.06 99.6199 284.18 99.4199V99.4404C283.35 99.2504 282.55 99.03 281.76 98.79C280.89 98.54 280.15 98.2901 279.62 98.0801H279.6C275.47 96.5501 271.96 94.3798 269.13 91.5898C263.53 86.0698 260.69 78.1601 260.69 68.0801V65.46C262.59 69.32 265.43 72.8606 269.11 75.8906C276.26 81.7706 285.75 85.0098 295.83 85.0098C296.06 85.0098 318.49 85.1702 327.55 97.7402C328.99 99.7402 329.75 102.15 329.75 104.71V113.08C329.75 114.12 328.95 114.5 328.71 114.59C328.46 114.68 327.6 114.93 326.9 114.13V114.12ZM329.69 117.21C331.43 116.56 332.55 114.94 332.55 113.08V104.71C332.55 101.56 331.61 98.5904 329.82 96.1104C325.7 90.3904 318.82 85.6598 307.33 83.5498C313.01 82.0598 318.22 79.4706 322.57 75.8906C326.25 72.8606 329.09 69.32 330.99 65.46V68.0801C330.99 74.2901 328.59 80.1999 324.04 85.1699C323.8 85.4399 323.3 86.4606 324.13 87.1406C324.73 87.6306 325.58 87.6198 326.1 87.0498C331.12 81.5598 333.78 75.0001 333.78 68.0801V53.5703C333.78 47.4303 331.65 41.4899 327.62 36.3799C323.73 31.4499 318.27 27.5298 311.84 25.0498C311.12 24.7698 310.31 25.1306 310.03 25.8506C309.75 26.5706 310.11 27.3802 310.83 27.6602C316.8 29.9602 321.85 33.5704 325.43 38.1104C329.07 42.7204 330.99 48.0703 330.99 53.5703C330.99 69.3603 315.23 82.21 295.85 82.21C276.47 82.21 260.71 69.3603 260.71 53.5703C260.71 37.7803 276.48 24.9307 295.85 24.9307C299.2 24.9307 302.52 25.3203 305.71 26.0703C306.46 26.2503 307.21 25.7803 307.39 25.0303C307.57 24.2803 307.1 23.5306 306.35 23.3506C302.95 22.5406 299.42 22.1299 295.85 22.1299C285.77 22.1299 276.28 25.37 269.13 31.25C261.9 37.19 257.92 45.1203 257.92 53.5703V68.0801C257.92 78.9301 261.04 87.5101 267.19 93.5801C271.52 97.8501 277.25 100.79 284.21 102.32C287.81 103.11 291.59 103.431 295.47 103.431C311.03 103.431 319.82 110.251 324.81 115.971C326.04 117.381 327.96 117.86 329.71 117.21" fill="white"/>
<path d="M316.51 106.811V88.9307C316.51 88.2107 317.09 87.6201 317.82 87.6201C318.55 87.6201 319.13 88.2107 319.13 88.9307V106.811C319.13 107.531 318.54 108.12 317.82 108.12C317.1 108.12 316.51 107.541 316.51 106.811Z" fill="white"/>
<path d="M301.97 102.431V85.4502C301.97 84.7302 302.55 84.1406 303.28 84.1406C304.01 84.1406 304.59 84.7202 304.59 85.4502V102.431C304.59 103.151 304 103.74 303.28 103.74C302.56 103.74 301.97 103.161 301.97 102.431Z" fill="white"/>
<path d="M287.44 100.38V83.4004C287.44 82.6804 288.02 82.0898 288.75 82.0898C289.48 82.0898 290.06 82.6704 290.06 83.4004V100.38C290.06 101.1 289.47 101.69 288.75 101.69C288.03 101.69 287.44 101.11 287.44 100.38Z" fill="white"/>
<path d="M272.88 97.0498V78.2705C272.88 77.5505 273.46 76.96 274.19 76.96C274.92 76.96 275.5 77.5405 275.5 78.2705V97.0498C275.5 97.7698 274.91 98.3604 274.19 98.3604C273.47 98.3604 272.88 97.7798 272.88 97.0498Z" fill="white"/>
<path d="M81.1901 22.7803C82.1701 22.7803 82.9701 21.98 82.9701 21V15.79C82.9701 14.81 82.1701 14.0098 81.1901 14.0098C80.2101 14.0098 79.4101 14.81 79.4101 15.79V21C79.4101 21.98 80.2101 22.7803 81.1901 22.7803Z" fill="white"/>
<path d="M81.1901 9.9707C85.8301 9.9707 89.61 13.7506 89.61 18.3906C89.61 23.0306 85.8301 26.8105 81.1901 26.8105C76.5501 26.8105 72.7701 23.0306 72.7701 18.3906C72.7701 13.7506 76.5501 9.9707 81.1901 9.9707ZM81.1901 30.3799C87.8001 30.3799 93.1801 25.0006 93.1801 18.3906C93.1801 11.7806 87.8001 6.40039 81.1901 6.40039C74.5801 6.40039 69.2001 11.7806 69.2001 18.3906C69.2001 25.0006 74.5801 30.3799 81.1901 30.3799Z" fill="white"/>
<path d="M11.7101 32.9498C12.0601 33.2998 12.5101 33.4703 12.9701 33.4703C13.4301 33.4703 13.88 33.2998 14.23 32.9498C14.93 32.2498 14.93 31.1203 14.23 30.4303L12.12 28.3199C11.42 27.6199 10.2901 27.6199 9.60007 28.3199C8.90007 29.0199 8.90007 30.1495 9.60007 30.8395L11.7101 32.9498Z" fill="white"/>
<path d="M12.12 80.2398L14.23 78.1295C14.93 77.4295 14.93 76.3 14.23 75.61C13.53 74.91 12.4001 74.91 11.7101 75.61L9.60007 77.7203C8.90007 78.4203 8.90007 79.5498 9.60007 80.2398C9.95007 80.5898 10.4 80.7594 10.86 80.7594C11.32 80.7594 11.77 80.5898 12.12 80.2398Z" fill="white"/>
<path d="M94.7101 85.4805H6.01007C5.10007 85.4805 4.37006 84.7398 4.37006 83.8398V73.1406C4.37006 72.1606 3.57009 71.3604 2.59009 71.3604C1.61009 71.3604 0.810059 72.1606 0.810059 73.1406V83.8398C0.810059 86.7098 3.15008 89.0498 6.02008 89.0498H94.7201C95.7001 89.0498 96.5001 88.2505 96.5001 87.2705C96.5001 86.2905 95.7001 85.4902 94.7201 85.4902" fill="white"/>
<path d="M104.6 80.7701C105.06 80.7701 105.51 80.5996 105.86 80.2496C106.56 79.5496 106.56 78.4201 105.86 77.7301L103.75 75.6197C103.05 74.9197 101.92 74.9197 101.23 75.6197C100.54 76.3197 100.53 77.4502 101.23 78.1402L103.34 80.2496C103.69 80.5996 104.14 80.7701 104.6 80.7701Z" fill="white"/>
<path d="M32.3501 51.4902C32.3501 50.5102 31.5501 49.71 30.5701 49.71H17.3501C16.3701 49.71 15.5701 50.5102 15.5701 51.4902C15.5701 52.4702 16.3701 53.2705 17.3501 53.2705H30.5701C31.5501 53.2705 32.3501 52.4702 32.3501 51.4902Z" fill="white"/>
<path d="M57.73 72.6201C47.62 72.6201 39.3901 64.3903 39.3901 54.2803C39.3901 44.1703 47.62 35.9404 57.73 35.9404C67.84 35.9404 76.0701 44.1703 76.0701 54.2803C76.0701 64.3903 67.84 72.6201 57.73 72.6201ZM57.73 32.3799C45.65 32.3799 35.8301 42.2103 35.8301 54.2803C35.8301 66.3503 45.66 76.1807 57.73 76.1807C69.8 76.1807 79.6301 66.3503 79.6301 54.2803C79.6301 42.2003 69.8 32.3799 57.73 32.3799Z" fill="white"/>
<path d="M104.15 43.79C98.0101 43.79 92.5301 39.9601 90.3401 34.3301C91.1901 33.8401 91.9901 33.2907 92.7501 32.6807C94.3101 37.4807 98.8401 40.9707 104.15 40.9707C110.76 40.9707 116.14 35.5905 116.14 28.9805C116.14 27.7705 115.96 26.5699 115.6 25.4199C115.31 24.4799 114.31 23.95 113.37 24.25C112.43 24.54 111.9 25.5405 112.2 26.4805C112.45 27.2905 112.58 28.1305 112.58 28.9805C112.58 33.6205 108.8 37.4004 104.16 37.4004C99.5201 37.4004 96.0801 33.9498 95.7601 29.5898C97.4101 27.4398 98.6101 24.9307 99.1801 22.1807C100.62 21.1307 102.36 20.5498 104.15 20.5498C105.64 20.5498 107.11 20.9404 108.39 21.6904C109.24 22.1904 110.33 21.8998 110.83 21.0498C111.33 20.1998 111.04 19.1104 110.19 18.6104C108.37 17.5504 106.28 16.9805 104.16 16.9805C102.57 16.9805 101.01 17.3004 99.5701 17.9004C99.5401 16.9104 99.4401 15.94 99.2601 15C100.83 14.45 102.47 14.1602 104.16 14.1602C112.33 14.1602 118.97 20.8007 118.97 28.9707C118.97 37.1407 112.33 43.7803 104.16 43.7803L104.15 43.79ZM104.4 64.0498C96.6801 64.8798 90.5201 71.0298 89.6901 78.7598H25.8C24.97 71.0398 18.8201 64.8798 11.0901 64.0498V44.5C18.8101 43.67 24.97 37.52 25.8 29.79H66.8C70.1701 34.04 75.3701 36.7705 81.2001 36.7705C83.2601 36.7705 85.2501 36.42 87.1001 35.79C89.8601 42.68 96.6101 47.3506 104.16 47.3506C104.24 47.3506 104.32 47.3506 104.4 47.3506V64.0605V64.0498ZM81.2101 3.58008C89.3801 3.58008 96.0201 10.2206 96.0201 18.3906C96.0201 26.5606 89.3801 33.2002 81.2101 33.2002C73.0401 33.2002 66.4001 26.5606 66.4001 18.3906C66.4001 10.2206 73.0401 3.58008 81.2101 3.58008ZM104.17 10.5898C102.14 10.5898 100.16 10.9205 98.2701 11.5605C95.5501 4.80055 88.9301 0.00976562 81.2101 0.00976562C71.0801 0.00976562 62.8301 8.25062 62.8301 18.3906C62.8301 18.7706 62.8401 19.1398 62.8701 19.5098H6.03009C3.16009 19.5098 0.820068 21.8507 0.820068 24.7207V63.8105C0.820068 64.7906 1.6201 65.5898 2.6001 65.5898C3.5801 65.5898 4.38007 64.7906 4.38007 63.8105V24.7207C4.38007 23.8107 5.12008 23.0801 6.02008 23.0801H63.4301C63.7201 24.1701 64.1101 25.2305 64.5801 26.2305H24.11C23.13 26.2305 22.3301 27.0298 22.3301 28.0098C22.3301 35.1898 16.4901 41.0303 9.31006 41.0303C8.33006 41.0303 7.53009 41.8305 7.53009 42.8105V65.7402C7.53009 66.7202 8.33006 67.5205 9.31006 67.5205C16.4901 67.5205 22.3301 73.36 22.3301 80.54C22.3301 81.52 23.13 82.3203 24.11 82.3203H91.3801C92.3601 82.3203 93.1601 81.52 93.1601 80.54C93.1601 73.36 99.0001 67.5205 106.18 67.5205C107.16 67.5205 107.96 66.7202 107.96 65.7402V46.9502C109.05 46.7202 110.1 46.3905 111.11 45.9805V83.8301C111.11 84.7401 110.37 85.4707 109.47 85.4707H104.87C103.89 85.4707 103.09 86.27 103.09 87.25C103.09 88.23 103.89 89.0303 104.87 89.0303H109.47C112.34 89.0303 114.68 86.6903 114.68 83.8203V44.0098C119.43 40.6798 122.54 35.1802 122.54 28.9502C122.54 18.8202 114.3 10.5703 104.16 10.5703" fill="white"/>
<path d="M30.5701 56.2998H23.9601C22.9801 56.2998 22.1801 57.1001 22.1801 58.0801C22.1801 59.0601 22.9801 59.8604 23.9601 59.8604H30.5701C31.5501 59.8604 32.3501 59.0601 32.3501 58.0801C32.3501 57.1001 31.5501 56.2998 30.5701 56.2998Z" fill="white"/>
<path d="M104.15 24.5898C103.17 24.5898 102.37 25.3901 102.37 26.3701V31.5801C102.37 32.5601 103.17 33.3604 104.15 33.3604C105.13 33.3604 105.93 32.5601 105.93 31.5801V26.3701C105.93 25.3901 105.13 24.5898 104.15 24.5898Z" fill="white"/>
<path d="M98.1201 49.71H84.9001C83.9201 49.71 83.1201 50.5102 83.1201 51.4902C83.1201 52.4702 83.9201 53.2705 84.9001 53.2705H98.1201C99.1001 53.2705 99.9001 52.4702 99.9001 51.4902C99.9001 50.5102 99.1001 49.71 98.1201 49.71Z" fill="white"/>
<path d="M91.5101 56.2998H84.9001C83.9201 56.2998 83.1201 57.1001 83.1201 58.0801C83.1201 59.0601 83.9201 59.8604 84.9001 59.8604H91.5101C92.4901 59.8604 93.29 59.0601 93.29 58.0801C93.29 57.1001 92.4901 56.2998 91.5101 56.2998Z" fill="white"/>
<path d="M69.2701 50.9199C68.2901 50.9199 67.4901 51.7202 67.4901 52.7002V54.6201C67.4901 55.6001 68.2901 56.4004 69.2701 56.4004C70.2501 56.4004 71.05 55.6001 71.05 54.6201V52.7002C71.05 51.7202 70.2501 50.9199 69.2701 50.9199Z" fill="white"/>
<path d="M46.1901 50.9199C45.2101 50.9199 44.4101 51.7202 44.4101 52.7002V54.6201C44.4101 55.6001 45.2101 56.4004 46.1901 56.4004C47.1701 56.4004 47.9701 55.6001 47.9701 54.6201V52.7002C47.9701 51.7202 47.1701 50.9199 46.1901 50.9199Z" fill="white"/>
<path d="M61.95 53.3506C61.21 52.7006 60.08 52.7806 59.43 53.5206C59 54.0106 58.38 54.2999 57.73 54.2999C57.08 54.2999 56.4601 54.0206 56.0301 53.5206C55.3801 52.7806 54.26 52.7006 53.51 53.3506C52.77 54.0006 52.6901 55.1202 53.3401 55.8702C54.4501 57.1402 56.05 57.8702 57.73 57.8702C59.41 57.8702 61.01 57.1402 62.12 55.8702C62.77 55.1302 62.69 54.0006 61.95 53.3506Z" fill="white"/>
<path d="M81.1901 222.181C82.1701 222.181 82.9701 221.38 82.9701 220.4V215.19C82.9701 214.21 82.1701 213.41 81.1901 213.41C80.2101 213.41 79.4101 214.21 79.4101 215.19V220.4C79.4101 221.38 80.2101 222.181 81.1901 222.181Z" fill="white"/>
<path d="M81.1901 209.37C85.8301 209.37 89.61 213.15 89.61 217.79C89.61 222.43 85.8301 226.21 81.1901 226.21C76.5501 226.21 72.7701 222.43 72.7701 217.79C72.7701 213.15 76.5501 209.37 81.1901 209.37ZM81.1901 229.78C87.8001 229.78 93.1801 224.4 93.1801 217.79C93.1801 211.18 87.8001 205.8 81.1901 205.8C74.5801 205.8 69.2001 211.18 69.2001 217.79C69.2001 224.4 74.5801 229.78 81.1901 229.78Z" fill="white"/>
<path d="M11.7101 232.35C12.0601 232.7 12.5101 232.87 12.9701 232.87C13.4301 232.87 13.88 232.7 14.23 232.35C14.93 231.65 14.93 230.52 14.23 229.83L12.12 227.72C11.42 227.02 10.2901 227.02 9.60007 227.72C8.90007 228.42 8.90007 229.55 9.60007 230.24L11.7101 232.35Z" fill="white"/>
<path d="M12.12 279.64L14.23 277.53C14.93 276.83 14.93 275.699 14.23 275.009C13.53 274.309 12.4001 274.309 11.7101 275.009L9.60007 277.12C8.90007 277.82 8.90007 278.95 9.60007 279.64C9.95007 279.99 10.4 280.16 10.86 280.16C11.32 280.16 11.77 279.99 12.12 279.64Z" fill="white"/>
<path d="M94.7101 284.88H6.01007C5.10007 284.88 4.37006 284.14 4.37006 283.24V272.54C4.37006 271.56 3.57009 270.76 2.59009 270.76C1.61009 270.76 0.810059 271.56 0.810059 272.54V283.24C0.810059 286.11 3.15008 288.45 6.02008 288.45H94.7201C95.7001 288.45 96.5001 287.65 96.5001 286.67C96.5001 285.69 95.7001 284.891 94.7201 284.891" fill="white"/>
<path d="M104.6 280.16C105.06 280.16 105.51 279.99 105.86 279.64C106.56 278.94 106.56 277.81 105.86 277.12L103.75 275.009C103.05 274.309 101.92 274.309 101.23 275.009C100.53 275.709 100.53 276.84 101.23 277.53L103.34 279.64C103.69 279.99 104.14 280.16 104.6 280.16Z" fill="white"/>
<path d="M32.3501 250.891C32.3501 249.911 31.5501 249.11 30.5701 249.11H17.3501C16.3701 249.11 15.5701 249.911 15.5701 250.891C15.5701 251.871 16.3701 252.67 17.3501 252.67H30.5701C31.5501 252.67 32.3501 251.871 32.3501 250.891Z" fill="white"/>
<path d="M57.73 272.021C47.62 272.021 39.3901 263.791 39.3901 253.681C39.3901 243.571 47.62 235.34 57.73 235.34C67.84 235.34 76.0701 243.571 76.0701 253.681C76.0701 263.791 67.84 272.021 57.73 272.021ZM57.73 231.78C45.65 231.78 35.8301 241.611 35.8301 253.681C35.8301 265.751 45.66 275.58 57.73 275.58C69.8 275.58 79.6301 265.751 79.6301 253.681C79.6301 241.601 69.8 231.78 57.73 231.78Z" fill="white"/>
<path d="M104.15 243.19C98.0101 243.19 92.5301 239.36 90.3401 233.73C91.1901 233.24 91.9901 232.69 92.7501 232.08C94.3101 236.88 98.8401 240.37 104.15 240.37C110.76 240.37 116.14 234.99 116.14 228.38C116.14 227.17 115.96 225.97 115.6 224.82C115.31 223.88 114.31 223.35 113.37 223.65C112.43 223.94 111.9 224.94 112.2 225.88C112.45 226.69 112.58 227.53 112.58 228.38C112.58 233.02 108.8 236.8 104.16 236.8C99.5201 236.8 96.0801 233.35 95.7601 228.99C97.4101 226.84 98.6101 224.33 99.1801 221.58C100.62 220.53 102.36 219.95 104.15 219.95C105.64 219.95 107.11 220.34 108.39 221.09C109.24 221.59 110.33 221.3 110.83 220.45C111.33 219.6 111.04 218.51 110.19 218.01C108.37 216.95 106.28 216.38 104.16 216.38C102.57 216.38 101.01 216.7 99.5701 217.3C99.5401 216.31 99.4401 215.34 99.2601 214.4C100.83 213.85 102.47 213.561 104.16 213.561C112.33 213.561 118.97 220.2 118.97 228.37C118.97 236.54 112.33 243.181 104.16 243.181L104.15 243.19ZM104.4 263.45C96.6801 264.28 90.5201 270.43 89.6901 278.16H25.8C24.97 270.44 18.8201 264.28 11.0901 263.45V243.9C18.8101 243.07 24.97 236.92 25.8 229.19H66.8C70.1701 233.44 75.3701 236.17 81.2001 236.17C83.2601 236.17 85.2501 235.82 87.1001 235.19C89.8601 242.08 96.6101 246.75 104.16 246.75C104.24 246.75 104.32 246.75 104.4 246.75V263.46V263.45ZM81.2101 202.98C89.3801 202.98 96.0201 209.62 96.0201 217.79C96.0201 225.96 89.3801 232.601 81.2101 232.601C73.0401 232.601 66.4001 225.96 66.4001 217.79C66.4001 209.62 73.0401 202.98 81.2101 202.98ZM104.17 209.99C102.14 209.99 100.16 210.32 98.2701 210.96C95.5501 204.2 88.9301 199.41 81.2101 199.41C71.0801 199.41 62.8301 207.65 62.8301 217.79C62.8301 218.17 62.8401 218.54 62.8701 218.91H6.03009C3.16009 218.91 0.820068 221.25 0.820068 224.12V263.21C0.820068 264.19 1.6201 264.99 2.6001 264.99C3.5801 264.99 4.38007 264.19 4.38007 263.21V224.12C4.38007 223.21 5.12008 222.48 6.02008 222.48H63.4301C63.7201 223.57 64.1101 224.63 64.5801 225.63H24.11C23.13 225.63 22.3301 226.43 22.3301 227.41C22.3301 234.59 16.4901 240.431 9.31006 240.431C8.33006 240.431 7.53009 241.23 7.53009 242.21V265.141C7.53009 266.121 8.33006 266.92 9.31006 266.92C16.4901 266.92 22.3301 272.76 22.3301 279.94C22.3301 280.92 23.13 281.721 24.11 281.721H91.3801C92.3601 281.721 93.1601 280.92 93.1601 279.94C93.1601 272.76 99.0001 266.92 106.18 266.92C107.16 266.92 107.96 266.121 107.96 265.141V246.351C109.05 246.121 110.1 245.79 111.11 245.38V283.23C111.11 284.14 110.37 284.87 109.47 284.87H104.87C103.89 284.87 103.09 285.67 103.09 286.65C103.09 287.63 103.89 288.431 104.87 288.431H109.47C112.34 288.431 114.68 286.091 114.68 283.221V243.41C119.43 240.08 122.54 234.581 122.54 228.351C122.54 218.221 114.3 209.971 104.16 209.971" fill="white"/>
<path d="M30.5701 255.7H23.9601C22.9801 255.7 22.1801 256.5 22.1801 257.48C22.1801 258.46 22.9801 259.26 23.9601 259.26H30.5701C31.5501 259.26 32.3501 258.46 32.3501 257.48C32.3501 256.5 31.5501 255.7 30.5701 255.7Z" fill="white"/>
<path d="M104.15 223.99C103.17 223.99 102.37 224.791 102.37 225.771V230.98C102.37 231.96 103.17 232.76 104.15 232.76C105.13 232.76 105.93 231.96 105.93 230.98V225.771C105.93 224.791 105.13 223.99 104.15 223.99Z" fill="white"/>
<path d="M98.1201 249.11H84.9001C83.9201 249.11 83.1201 249.911 83.1201 250.891C83.1201 251.871 83.9201 252.67 84.9001 252.67H98.1201C99.1001 252.67 99.9001 251.871 99.9001 250.891C99.9001 249.911 99.1001 249.11 98.1201 249.11Z" fill="white"/>
<path d="M91.5101 255.7H84.9001C83.9201 255.7 83.1201 256.5 83.1201 257.48C83.1201 258.46 83.9201 259.26 84.9001 259.26H91.5101C92.4901 259.26 93.29 258.46 93.29 257.48C93.29 256.5 92.4901 255.7 91.5101 255.7Z" fill="white"/>
<path d="M69.2701 250.311C68.2901 250.311 67.4901 251.11 67.4901 252.09V254.01C67.4901 254.99 68.2901 255.79 69.2701 255.79C70.2501 255.79 71.05 254.99 71.05 254.01V252.09C71.05 251.11 70.2501 250.311 69.2701 250.311Z" fill="white"/>
<path d="M46.1901 250.311C45.2101 250.311 44.4101 251.11 44.4101 252.09V254.01C44.4101 254.99 45.2101 255.79 46.1901 255.79C47.1701 255.79 47.9701 254.99 47.9701 254.01V252.09C47.9701 251.11 47.1701 250.311 46.1901 250.311Z" fill="white"/>
<path d="M61.95 252.75C61.21 252.1 60.08 252.18 59.43 252.92C59 253.41 58.38 253.69 57.73 253.69C57.08 253.69 56.4601 253.41 56.0301 252.92C55.3801 252.18 54.26 252.1 53.51 252.75C52.77 253.4 52.6901 254.521 53.3401 255.271C54.4501 256.541 56.05 257.271 57.73 257.271C59.41 257.271 61.01 256.541 62.12 255.271C62.77 254.531 62.69 253.4 61.95 252.75Z" fill="white"/>
<path d="M81.1901 366.07C82.1701 366.07 82.9701 365.27 82.9701 364.29V359.08C82.9701 358.1 82.1701 357.3 81.1901 357.3C80.2101 357.3 79.4101 358.1 79.4101 359.08V364.29C79.4101 365.27 80.2101 366.07 81.1901 366.07Z" fill="white"/>
<path d="M81.1901 353.26C85.8301 353.26 89.61 357.041 89.61 361.681C89.61 366.321 85.8301 370.101 81.1901 370.101C76.5501 370.101 72.7701 366.321 72.7701 361.681C72.7701 357.041 76.5501 353.26 81.1901 353.26ZM81.1901 373.67C87.8001 373.67 93.1801 368.291 93.1801 361.681C93.1801 355.071 87.8001 349.69 81.1901 349.69C74.5801 349.69 69.2001 355.071 69.2001 361.681C69.2001 368.291 74.5801 373.67 81.1901 373.67Z" fill="white"/>
<path d="M11.7101 376.23C12.0601 376.58 12.5101 376.75 12.9701 376.75C13.4301 376.75 13.88 376.58 14.23 376.23C14.93 375.53 14.93 374.4 14.23 373.71L12.12 371.6C11.42 370.9 10.2901 370.9 9.60007 371.6C8.90007 372.3 8.90007 373.43 9.60007 374.12L11.7101 376.23Z" fill="white"/>
<path d="M12.12 423.52L14.23 421.41C14.93 420.71 14.93 419.58 14.23 418.89C13.53 418.19 12.4001 418.19 11.7101 418.89L9.60007 421C8.90007 421.7 8.90007 422.83 9.60007 423.52C9.95007 423.87 10.4 424.04 10.86 424.04C11.32 424.04 11.77 423.87 12.12 423.52Z" fill="white"/>
<path d="M94.7101 428.76H6.01007C5.10007 428.76 4.37006 428.02 4.37006 427.12V416.42C4.37006 415.44 3.57009 414.641 2.59009 414.641C1.61009 414.641 0.810059 415.44 0.810059 416.42V427.12C0.810059 429.99 3.15008 432.33 6.02008 432.33H94.7201C95.7001 432.33 96.5001 431.53 96.5001 430.55C96.5001 429.57 95.7001 428.771 94.7201 428.771" fill="white"/>
<path d="M104.6 424.049C105.06 424.049 105.51 423.88 105.86 423.53C106.56 422.83 106.56 421.699 105.86 421.009L103.75 418.9C103.05 418.2 101.92 418.2 101.23 418.9C100.54 419.6 100.53 420.73 101.23 421.42L103.34 423.53C103.69 423.88 104.14 424.049 104.6 424.049Z" fill="white"/>
<path d="M32.3501 394.771C32.3501 393.791 31.5501 392.99 30.5701 392.99H17.3501C16.3701 392.99 15.5701 393.791 15.5701 394.771C15.5701 395.751 16.3701 396.55 17.3501 396.55H30.5701C31.5501 396.55 32.3501 395.751 32.3501 394.771Z" fill="white"/>
<path d="M57.73 415.9C47.62 415.9 39.3901 407.671 39.3901 397.561C39.3901 387.451 47.62 379.221 57.73 379.221C67.84 379.221 76.0701 387.451 76.0701 397.561C76.0701 407.671 67.84 415.9 57.73 415.9ZM57.73 375.66C45.65 375.66 35.8301 385.491 35.8301 397.561C35.8301 409.631 45.66 419.46 57.73 419.46C69.8 419.46 79.6301 409.631 79.6301 397.561C79.6301 385.481 69.8 375.66 57.73 375.66Z" fill="white"/>
<path d="M104.15 387.07C98.0101 387.07 92.5301 383.24 90.3401 377.61C91.1901 377.12 91.9901 376.57 92.7501 375.96C94.3101 380.76 98.8401 384.25 104.15 384.25C110.76 384.25 116.14 378.87 116.14 372.26C116.14 371.05 115.96 369.85 115.6 368.7C115.31 367.76 114.31 367.23 113.37 367.53C112.43 367.82 111.9 368.82 112.2 369.76C112.45 370.57 112.58 371.41 112.58 372.26C112.58 376.9 108.8 380.681 104.16 380.681C99.5201 380.681 96.0801 377.23 95.7601 372.87C97.4101 370.72 98.6101 368.21 99.1801 365.46C100.62 364.41 102.36 363.83 104.15 363.83C105.64 363.83 107.11 364.221 108.39 364.971C109.24 365.471 110.33 365.18 110.83 364.33C111.33 363.48 111.04 362.391 110.19 361.891C108.37 360.831 106.28 360.26 104.16 360.26C102.57 360.26 101.01 360.581 99.5701 361.181C99.5401 360.191 99.4401 359.22 99.2601 358.28C100.83 357.73 102.47 357.44 104.16 357.44C112.33 357.44 118.97 364.08 118.97 372.25C118.97 380.42 112.33 387.061 104.16 387.061L104.15 387.07ZM104.4 407.33C96.6801 408.16 90.5201 414.31 89.6901 422.04H25.8C24.97 414.32 18.8201 408.16 11.0901 407.33V387.78C18.8101 386.95 24.97 380.8 25.8 373.07H66.8C70.1701 377.32 75.3701 380.05 81.2001 380.05C83.2601 380.05 85.2501 379.7 87.1001 379.07C89.8601 385.96 96.6101 390.63 104.16 390.63C104.24 390.63 104.32 390.63 104.4 390.63V407.34V407.33ZM81.2101 346.86C89.3801 346.86 96.0201 353.5 96.0201 361.67C96.0201 369.84 89.3801 376.48 81.2101 376.48C73.0401 376.48 66.4001 369.84 66.4001 361.67C66.4001 353.5 73.0401 346.86 81.2101 346.86ZM104.17 353.87C102.14 353.87 100.16 354.2 98.2701 354.84C95.5501 348.08 88.9301 343.29 81.2101 343.29C71.0801 343.29 62.8301 351.53 62.8301 361.67C62.8301 362.05 62.8401 362.42 62.8701 362.79H6.03009C3.16009 362.79 0.820068 365.13 0.820068 368V407.09C0.820068 408.07 1.6201 408.87 2.6001 408.87C3.5801 408.87 4.38007 408.07 4.38007 407.09V368C4.38007 367.09 5.12008 366.36 6.02008 366.36H63.4301C63.7201 367.45 64.1101 368.51 64.5801 369.51H24.11C23.13 369.51 22.3301 370.31 22.3301 371.29C22.3301 378.47 16.4901 384.311 9.31006 384.311C8.33006 384.311 7.53009 385.11 7.53009 386.09V409.021C7.53009 410.001 8.33006 410.8 9.31006 410.8C16.4901 410.8 22.3301 416.64 22.3301 423.82C22.3301 424.8 23.13 425.601 24.11 425.601H91.3801C92.3601 425.601 93.1601 424.8 93.1601 423.82C93.1601 416.64 99.0001 410.8 106.18 410.8C107.16 410.8 107.96 410.001 107.96 409.021V390.23C109.05 390 110.1 389.67 111.11 389.26V427.11C111.11 428.02 110.37 428.75 109.47 428.75H104.87C103.89 428.75 103.09 429.55 103.09 430.53C103.09 431.51 103.89 432.311 104.87 432.311H109.47C112.34 432.311 114.68 429.971 114.68 427.101V387.29C119.43 383.96 122.54 378.46 122.54 372.23C122.54 362.1 114.3 353.851 104.16 353.851" fill="white"/>
<path d="M30.5701 399.58H23.9601C22.9801 399.58 22.1801 400.38 22.1801 401.36C22.1801 402.34 22.9801 403.141 23.9601 403.141H30.5701C31.5501 403.141 32.3501 402.34 32.3501 401.36C32.3501 400.38 31.5501 399.58 30.5701 399.58Z" fill="white"/>
<path d="M104.15 367.87C103.17 367.87 102.37 368.67 102.37 369.65V374.86C102.37 375.84 103.17 376.641 104.15 376.641C105.13 376.641 105.93 375.84 105.93 374.86V369.65C105.93 368.67 105.13 367.87 104.15 367.87Z" fill="white"/>
<path d="M98.1201 392.99H84.9001C83.9201 392.99 83.1201 393.791 83.1201 394.771C83.1201 395.751 83.9201 396.55 84.9001 396.55H98.1201C99.1001 396.55 99.9001 395.751 99.9001 394.771C99.9001 393.791 99.1001 392.99 98.1201 392.99Z" fill="white"/>
<path d="M91.5101 399.58H84.9001C83.9201 399.58 83.1201 400.38 83.1201 401.36C83.1201 402.34 83.9201 403.141 84.9001 403.141H91.5101C92.4901 403.141 93.29 402.34 93.29 401.36C93.29 400.38 92.4901 399.58 91.5101 399.58Z" fill="white"/>
<path d="M69.2701 394.2C68.2901 394.2 67.4901 395 67.4901 395.98V397.9C67.4901 398.88 68.2901 399.681 69.2701 399.681C70.2501 399.681 71.05 398.88 71.05 397.9V395.98C71.05 395 70.2501 394.2 69.2701 394.2Z" fill="white"/>
<path d="M46.1901 394.2C45.2101 394.2 44.4101 395 44.4101 395.98V397.9C44.4101 398.88 45.2101 399.681 46.1901 399.681C47.1701 399.681 47.9701 398.88 47.9701 397.9V395.98C47.9701 395 47.1701 394.2 46.1901 394.2Z" fill="white"/>
<path d="M61.95 396.641C61.21 395.991 60.08 396.071 59.43 396.811C59 397.301 58.38 397.58 57.73 397.58C57.08 397.58 56.4601 397.301 56.0301 396.811C55.3801 396.071 54.26 395.991 53.51 396.641C52.77 397.291 52.6901 398.41 53.3401 399.16C54.4501 400.43 56.05 401.16 57.73 401.16C59.41 401.16 61.01 400.43 62.12 399.16C62.77 398.42 62.69 397.291 61.95 396.641Z" fill="white"/>
<path d="M634.68 31.5703H586.04V101.34H634.68V31.5703Z" stroke="white" stroke-width="3.29" stroke-linecap="round" stroke-linejoin="round"/>
<path d="M634.74 31.2803V100.99C647.99 98.3602 661.24 95.7198 674.49 93.0898V23.3799C661.24 26.0099 647.99 28.6503 634.74 31.2803Z" stroke="white" stroke-width="3.29" stroke-linecap="round" stroke-linejoin="round"/>
<path d="M600.44 39.54H592.54V47.4404H600.44V39.54Z" fill="white"/>
<path d="M600.44 39.54H592.54V47.4404H600.44V39.54Z" stroke="white" stroke-width="1.97" stroke-linecap="round" stroke-linejoin="round"/>
<path d="M600.44 53.1602H592.54V61.0605H600.44V53.1602Z" fill="white"/>
<path d="M600.44 53.1602H592.54V61.0605H600.44V53.1602Z" stroke="white" stroke-width="1.97" stroke-linecap="round" stroke-linejoin="round"/>
<path d="M600.44 67.5303H592.54V75.4307H600.44V67.5303Z" fill="white"/>
<path d="M600.44 67.5303H592.54V75.4307H600.44V67.5303Z" stroke="white" stroke-width="1.97" stroke-linecap="round" stroke-linejoin="round"/>
<path d="M600.44 82.6602H592.54V90.5605H600.44V82.6602Z" fill="white"/>
<path d="M600.44 82.6602H592.54V90.5605H600.44V82.6602Z" stroke="white" stroke-width="1.97" stroke-linecap="round" stroke-linejoin="round"/>
<path d="M613.99 39.54H606.09V47.4404H613.99V39.54Z" fill="white"/>
<path d="M613.99 39.54H606.09V47.4404H613.99V39.54Z" stroke="white" stroke-width="1.97" stroke-linecap="round" stroke-linejoin="round"/>
<path d="M613.99 53.1602H606.09V61.0605H613.99V53.1602Z" fill="white"/>
<path d="M613.99 53.1602H606.09V61.0605H613.99V53.1602Z" stroke="white" stroke-width="1.97" stroke-linecap="round" stroke-linejoin="round"/>
<path d="M613.99 67.5303H606.09V75.4307H613.99V67.5303Z" fill="white"/>
<path d="M613.99 67.5303H606.09V75.4307H613.99V67.5303Z" stroke="white" stroke-width="1.97" stroke-linecap="round" stroke-linejoin="round"/>
<path d="M627.06 39.54H619.16V47.4404H627.06V39.54Z" fill="white"/>
<path d="M627.06 39.54H619.16V47.4404H627.06V39.54Z" stroke="white" stroke-width="1.97" stroke-linecap="round" stroke-linejoin="round"/>
<path d="M627.06 53.1602H619.16V61.0605H627.06V53.1602Z" fill="white"/>
<path d="M627.06 53.1602H619.16V61.0605H627.06V53.1602Z" stroke="white" stroke-width="1.97" stroke-linecap="round" stroke-linejoin="round"/>
<path d="M627.06 67.5303H619.16V75.4307H627.06V67.5303Z" fill="white"/>
<path d="M627.06 67.5303H619.16V75.4307H627.06V67.5303Z" stroke="white" stroke-width="1.97" stroke-linecap="round" stroke-linejoin="round"/>
<path d="M584.909 202.373L583.267 210.101L590.994 211.743L592.636 204.016L584.909 202.373Z" fill="white"/>
<path d="M584.909 202.373L583.267 210.101L590.994 211.743L592.636 204.016L584.909 202.373Z" stroke="white" stroke-width="1.97" stroke-linecap="round" stroke-linejoin="round"/>
<path d="M586.987 219.428L579.131 220.254L579.956 228.11L587.813 227.284L586.987 219.428Z" fill="white"/>
<path d="M586.987 219.428L579.131 220.254L579.956 228.11L587.813 227.284L586.987 219.428Z" stroke="white" stroke-width="1.97" stroke-linecap="round" stroke-linejoin="round"/>
<path d="M577.3 207.08H569.4V214.98H577.3V207.08Z" fill="white"/>
<path d="M577.3 207.08H569.4V214.98H577.3V207.08Z" stroke="white" stroke-width="1.97" stroke-linecap="round" stroke-linejoin="round"/>
<path d="M617.05 227.03L615.18 223.79C614.42 222.55 613.94 221.75 613.48 220.9H613.44C613.03 221.75 612.61 222.531 611.85 223.811L610.09 227.03H607.92L612.4 219.62L608.1 212.38H610.3L612.23 215.811C612.77 216.771 613.19 217.5 613.58 218.29H613.65C614.06 217.42 614.43 216.751 614.98 215.811L616.98 212.38H619.15L614.7 219.51L619.26 227.03H617.07H617.05Z" fill="white"/>
<path d="M633.73 227.03V225.25L636 223.04C641.46 217.84 643.93 215.081 643.96 211.851C643.96 209.681 642.91 207.67 639.71 207.67C637.77 207.67 636.16 208.66 635.17 209.48L634.25 207.44C635.73 206.19 637.84 205.271 640.31 205.271C644.92 205.271 646.86 208.43 646.86 211.49C646.86 215.44 644 218.63 639.49 222.98L637.78 224.561V224.63H647.39V227.03H633.73Z" fill="white"/>
<path d="M658.97 216.101C658.97 223.371 656.27 227.391 651.53 227.391C647.35 227.391 644.52 223.47 644.45 216.4C644.45 209.23 647.54 205.28 651.89 205.28C656.24 205.28 658.97 209.3 658.97 216.11V216.101ZM647.35 216.431C647.35 221.991 649.06 225.15 651.69 225.15C654.65 225.15 656.07 221.69 656.07 216.23C656.07 210.77 654.72 207.51 651.73 207.51C649.2 207.51 647.35 210.601 647.35 216.431Z" fill="white"/>
<path d="M584.9 419.57C584.9 419.57 579.3 406.33 589.79 403.46C600.28 400.59 605.02 409.26 606.04 412.64C607.05 416.02 615.17 433.61 613.31 436.99C611.45 440.37 605.87 438.68 602.15 435.81C598.43 432.94 585.48 421.93 584.9 419.58V419.57Z" stroke="white" stroke-width="3.81" stroke-linecap="round" stroke-linejoin="round"/>
<path d="M597.64 386.09C592.7 388.71 585.18 393.41 581.86 398.61C578.2 404.34 578.59 411.83 582.51 414.55" stroke="white" stroke-width="3.81" stroke-linecap="round" stroke-linejoin="round"/>
<path d="M644.03 404.01C644.07 403.04 644.08 404.18 644.08 403.34C644.08 398.03 640.04 392.54 636.75 388.95" stroke="white" stroke-width="3.81" stroke-linecap="round" stroke-linejoin="round"/>
<path d="M601.65 388.42C599.35 390.17 597.13 392.66 596.23 396.07C595.74 397.91 595.39 399.49 595.4 402.54" stroke="white" stroke-width="3.81" stroke-linecap="round" stroke-linejoin="round"/>
<path d="M613.58 349.571C613.58 349.571 610.94 331.991 608.57 326.241C606.2 320.491 587.77 311.021 585.74 313.731C583.71 316.441 588.78 331.14 594.19 335.54C599.6 339.94 606 352.871 606.67 352.701" stroke="white" stroke-width="3.81" stroke-linecap="round" stroke-linejoin="round"/>
<path d="M607.57 366.021V371.601" stroke="white" stroke-width="3.81" stroke-linecap="round" stroke-linejoin="round"/>
<path d="M631.23 366.021V371.09" stroke="white" stroke-width="3.81" stroke-linecap="round" stroke-linejoin="round"/>
<path d="M654.57 419.57C654.57 419.57 658.63 408.579 648.15 405.709C637.67 402.839 634.45 409.26 633.44 412.64C632.43 416.02 624.31 433.61 626.17 436.99C628.03 440.37 633.61 438.68 637.33 435.81C641.05 432.94 654 421.93 654.58 419.58L654.57 419.57Z" stroke="white" stroke-width="3.81" stroke-linecap="round" stroke-linejoin="round"/>
<path d="M641.34 385.83C646.26 388.39 654.19 393.23 657.62 398.61C661.73 405.05 660.73 413.71 655.35 415.32" stroke="white" stroke-width="3.81" stroke-linecap="round" stroke-linejoin="round"/>
<path d="M625.89 349.571C625.89 349.571 628.53 331.991 630.9 326.241C633.27 320.491 651.7 311.021 653.73 313.731C655.76 316.441 650.69 331.14 645.28 335.54C639.87 339.94 633.85 352.281 633.18 352.111" stroke="white" stroke-width="3.81" stroke-linecap="round" stroke-linejoin="round"/>
<path d="M607.31 352.4C601.25 355.14 595.39 360.3 595.39 369.69C595.39 387.08 605.53 392.681 619.73 392.681C633.93 392.681 644.07 387.08 644.07 369.69C644.07 352.3 623.96 349.4 619.73 349.57C618.68 349.53 616.64 349.68 614.17 350.19" stroke="white" stroke-width="3.81" stroke-linecap="round" stroke-linejoin="round"/>
<path d="M619.63 378.061V381.971C619.63 383.681 618.64 384.91 615.85 384.91C613.06 384.91 611.37 381.85 611.18 380.79" stroke="white" stroke-width="2.29" stroke-linecap="round" stroke-linejoin="round"/>
<path d="M619.63 378.061V381.971C619.63 383.681 620.62 384.91 623.41 384.91C626.2 384.91 627.89 381.85 628.08 380.79" stroke="white" stroke-width="2.29" stroke-linecap="round" stroke-linejoin="round"/>
<path d="M619.69 372.3C620.28 372.3 623.85 372.221 623.85 374.481C623.85 376.741 620.99 377.351 620.02 377.351H619.3C618.33 377.351 615.47 376.741 615.47 374.481C615.47 372.221 619.04 372.3 619.63 372.3H619.69V372.3Z" stroke="white" stroke-width="2.98" stroke-linecap="round" stroke-linejoin="round"/>
<path d="M613.22 432.771C617.42 435.501 621.76 435.501 626.26 432.771" stroke="white" stroke-width="3.81" stroke-linecap="round" stroke-linejoin="round"/>
</svg>
